<svg xmlns="http://www.w3.org/2000/svg" width="24" height="17.403" viewBox="0 0 24 17.403">
  <path id="Path_14335" data-name="Path 14335" d="M38.512,82.7H19.533a2.513,2.513,0,0,0-2.511,2.511V97.592a2.513,2.513,0,0,0,2.511,2.511H38.511a2.513,2.513,0,0,0,2.511-2.511V85.211A2.513,2.513,0,0,0,38.512,82.7Zm-4.464,8.7,5.97-4.686V97.193ZM19.533,83.7H38.511a1.508,1.508,0,0,1,1.506,1.506v.225l-9.661,7.583a2.007,2.007,0,0,1-2.473,0l-9.858-7.583v-.224A1.508,1.508,0,0,1,19.533,83.7Zm4.641,7.725-6.148,5.784V86.7ZM38.512,99.1H19.533a1.507,1.507,0,0,1-1.282-.717l6.73-6.332,2.289,1.76a3.009,3.009,0,0,0,3.706,0l2.275-1.786L39.8,98.378A1.507,1.507,0,0,1,38.512,99.1Z" transform="translate(-17.022 -82.7)" fill="#fff"/>
</svg>
