<svg xmlns="http://www.w3.org/2000/svg" xmlns:xlink="http://www.w3.org/1999/xlink" width="168.118" height="39.639" viewBox="0 0 168.118 39.639">
  <defs>
    <linearGradient id="linear-gradient" x2="1" y2="1" gradientUnits="objectBoundingBox">
      <stop offset="0" stop-color="#c946f8"/>
      <stop offset="0.527" stop-color="#65b0fa"/>
      <stop offset="1" stop-color="#46ebed"/>
    </linearGradient>
  </defs>
  <path id="Path_19" data-name="Path 19" d="M16-13.425a14.023,14.023,0,0,1-5.7-1.147,9,9,0,0,1-4.156-3.7,13.027,13.027,0,0,1-1.542-6.786V-41.114A12.812,12.812,0,0,1,6.182-47.9a9.182,9.182,0,0,1,4.188-3.7,14.1,14.1,0,0,1,5.73-1.147,14.043,14.043,0,0,1,6.151,1.238,9.664,9.664,0,0,1,3.959,3.329A8.3,8.3,0,0,1,27.6-43.472a2.661,2.661,0,0,1-.549,1.99A2.5,2.5,0,0,1,25.361-41a2.7,2.7,0,0,1-1.638-.421,1.485,1.485,0,0,1-.6-1.158,9.13,9.13,0,0,0-.293-1.83,5.959,5.959,0,0,0-.96-2.016,5.2,5.2,0,0,0-2.059-1.622,8.505,8.505,0,0,0-3.612-.646,7.094,7.094,0,0,0-5.277,1.851q-1.83,1.851-1.83,5.724v16.058q0,3.905,1.856,5.741a7.365,7.365,0,0,0,5.4,1.835,8.246,8.246,0,0,0,3.542-.63,4.784,4.784,0,0,0,1.953-1.6,6.227,6.227,0,0,0,.907-2.07,20.171,20.171,0,0,0,.373-2.028,1.508,1.508,0,0,1,.651-1.2,2.825,2.825,0,0,1,1.568-.379,2.482,2.482,0,0,1,1.713.5,2.722,2.722,0,0,1,.549,2.006,8.554,8.554,0,0,1-1.408,4.78,9.7,9.7,0,0,1-4.007,3.414A14.052,14.052,0,0,1,16-13.425Zm17.916-.32A3.44,3.44,0,0,1,32.7-13.99a2.988,2.988,0,0,1-1.067-.667,1.328,1.328,0,0,1-.422-.966,1.417,1.417,0,0,1,.075-.427L42.2-51.506a1.823,1.823,0,0,1,1.035-1.185,4.012,4.012,0,0,1,1.718-.373,3.956,3.956,0,0,1,1.744.389,1.871,1.871,0,0,1,1.041,1.169L58.609-16.05a1.346,1.346,0,0,1,.075.4,1.325,1.325,0,0,1-.438.949,3.238,3.238,0,0,1-1.072.7,3.3,3.3,0,0,1-1.265.261,2.057,2.057,0,0,1-1-.235,1.279,1.279,0,0,1-.6-.8L51.951-22.7H37.909L35.584-14.78a1.188,1.188,0,0,1-.609.8A2.286,2.286,0,0,1,33.919-13.745Zm5.026-12.666h11.95L44.952-46.469ZM66.367-13.745a3.146,3.146,0,0,1-1.542-.384,1.265,1.265,0,0,1-.7-1.185v-35.83a1.325,1.325,0,0,1,.635-1.2,2.56,2.56,0,0,1,1.393-.4h18.8a1.259,1.259,0,0,1,1.185.635A2.66,2.66,0,0,1,86.5-50.77a2.646,2.646,0,0,1-.4,1.451,1.281,1.281,0,0,1-1.147.629H68.607v13.562h8.343a1.316,1.316,0,0,1,1.147.571,2.273,2.273,0,0,1,.4,1.339,2.293,2.293,0,0,1-.363,1.211,1.282,1.282,0,0,1-1.185.592H68.607v16.1a1.265,1.265,0,0,1-.7,1.185A3.147,3.147,0,0,1,66.367-13.745Zm27.177,0a2.56,2.56,0,0,1-1.393-.4,1.325,1.325,0,0,1-.635-1.2v-35.8a1.325,1.325,0,0,1,.635-1.2,2.56,2.56,0,0,1,1.393-.4h18.993a1.259,1.259,0,0,1,1.184.635,2.657,2.657,0,0,1,.363,1.339,2.646,2.646,0,0,1-.4,1.451,1.281,1.281,0,0,1-1.147.629H96v13.562h8.323a1.316,1.316,0,0,1,1.147.571,2.273,2.273,0,0,1,.4,1.339,2.291,2.291,0,0,1-.363,1.211,1.282,1.282,0,0,1-1.184.592H96V-17.8h16.539a1.289,1.289,0,0,1,1.147.614,2.626,2.626,0,0,1,.4,1.467,2.657,2.657,0,0,1-.363,1.339,1.259,1.259,0,0,1-1.184.635Zm36.5.32a14.024,14.024,0,0,1-5.7-1.147,9,9,0,0,1-4.156-3.7,13.027,13.027,0,0,1-1.542-6.786V-41.114a12.812,12.812,0,0,1,1.574-6.786,9.182,9.182,0,0,1,4.188-3.7,14.105,14.105,0,0,1,5.73-1.147,14.043,14.043,0,0,1,6.151,1.238,9.664,9.664,0,0,1,3.959,3.329,8.3,8.3,0,0,1,1.393,4.705,2.661,2.661,0,0,1-.549,1.99A2.5,2.5,0,0,1,139.4-41a2.7,2.7,0,0,1-1.638-.421,1.485,1.485,0,0,1-.6-1.158,9.129,9.129,0,0,0-.293-1.83,5.958,5.958,0,0,0-.96-2.016,5.2,5.2,0,0,0-2.059-1.622,8.5,8.5,0,0,0-3.612-.646,7.094,7.094,0,0,0-5.277,1.851q-1.83,1.851-1.83,5.724v16.058q0,3.905,1.856,5.741a7.365,7.365,0,0,0,5.4,1.835,8.246,8.246,0,0,0,3.542-.63,4.784,4.784,0,0,0,1.953-1.6,6.227,6.227,0,0,0,.907-2.07,20.171,20.171,0,0,0,.373-2.028,1.508,1.508,0,0,1,.651-1.2,2.825,2.825,0,0,1,1.568-.379,2.482,2.482,0,0,1,1.713.5,2.722,2.722,0,0,1,.549,2.006,8.554,8.554,0,0,1-1.408,4.78,9.7,9.7,0,0,1-4.007,3.414A14.052,14.052,0,0,1,130.045-13.425Zm17.916-.32a3.44,3.44,0,0,1-1.222-.245,2.988,2.988,0,0,1-1.067-.667,1.328,1.328,0,0,1-.422-.966,1.417,1.417,0,0,1,.075-.427L156.24-51.506a1.823,1.823,0,0,1,1.035-1.185,4.013,4.013,0,0,1,1.718-.373,3.956,3.956,0,0,1,1.744.389,1.87,1.87,0,0,1,1.041,1.169L172.651-16.05a1.346,1.346,0,0,1,.075.4,1.325,1.325,0,0,1-.438.949,3.238,3.238,0,0,1-1.072.7,3.3,3.3,0,0,1-1.265.261,2.057,2.057,0,0,1-1-.235,1.279,1.279,0,0,1-.6-.8L165.993-22.7H151.951l-2.326,7.917a1.188,1.188,0,0,1-.609.8A2.286,2.286,0,0,1,147.961-13.745Zm5.026-12.666h11.95l-5.943-20.059Z" transform="translate(-4.608 53.064)" fill="url(#linear-gradient)"/>
</svg>
