<svg id="Group_65" data-name="Group 65" xmlns="http://www.w3.org/2000/svg" xmlns:xlink="http://www.w3.org/1999/xlink" width="457.943" height="288.009" viewBox="0 0 457.943 288.009">
  <defs>
    <clipPath id="clip-path">
      <path id="Rectangle_30" data-name="Rectangle 30" d="M10.013,0H447.931a10,10,0,0,1,10.013,10.013V278a10,10,0,0,1-10.013,10.013H10.013A10,10,0,0,1,0,278V10.013A10,10,0,0,1,10.013,0Z" fill="none"/>
    </clipPath>
    <filter id="Rectangle_21">
      <feOffset dx="3" dy="3" input="SourceAlpha"/>
      <feGaussianBlur stdDeviation="4" result="blur"/>
      <feFlood flood-color="#fff" result="color"/>
      <feComposite operator="out" in="SourceGraphic" in2="blur"/>
      <feComposite operator="in" in="color"/>
      <feComposite operator="in" in2="SourceGraphic"/>
    </filter>
    <linearGradient id="linear-gradient" x1="-2.395" y1="-7.875" x2="1.99" y2="4.81" gradientUnits="objectBoundingBox">
      <stop offset="0" stop-color="#f0eeeb"/>
      <stop offset="0" stop-color="#e9e6e3"/>
      <stop offset="0.067" stop-color="#dad7d5"/>
      <stop offset="0.194" stop-color="#b4b0b2"/>
      <stop offset="0.276" stop-color="#999499"/>
      <stop offset="0.522" stop-color="#efefef"/>
      <stop offset="0.573" stop-color="#e1e0e0"/>
      <stop offset="0.671" stop-color="#bcb9ba"/>
      <stop offset="0.78" stop-color="#8d878a"/>
      <stop offset="1" stop-color="#dbdcdc"/>
      <stop offset="1" stop-color="#b4b4b5"/>
    </linearGradient>
    <linearGradient id="linear-gradient-2" x1="-1.138" y1="-2.696" x2="3.293" y2="5.948" xlink:href="#linear-gradient"/>
    <linearGradient id="linear-gradient-3" x1="-0.92" y1="-6.626" x2="2.313" y2="9.6" xlink:href="#linear-gradient"/>
    <linearGradient id="linear-gradient-4" x1="-3.142" y1="-0.996" x2="3.972" y2="1.92" xlink:href="#linear-gradient"/>
    <linearGradient id="linear-gradient-5" x1="-12.713" y1="-3.412" x2="16.476" y2="5.231" xlink:href="#linear-gradient"/>
    <linearGradient id="linear-gradient-6" x1="-2.213" y1="-2.838" x2="4.812" y2="5.805" xlink:href="#linear-gradient"/>
    <linearGradient id="linear-gradient-7" x1="-1.513" y1="-5.079" x2="2.871" y2="7.605" xlink:href="#linear-gradient"/>
    <linearGradient id="linear-gradient-8" x1="-1.047" y1="-9.305" x2="1.604" y2="7.499" xlink:href="#linear-gradient"/>
    <linearGradient id="linear-gradient-9" x1="-16.27" y1="-4.552" x2="12.422" y2="4.091" xlink:href="#linear-gradient"/>
    <linearGradient id="linear-gradient-10" x1="-4.092" y1="-5.127" x2="2.962" y2="3.517" xlink:href="#linear-gradient"/>
    <linearGradient id="linear-gradient-11" x1="-2.037" y1="-4.611" x2="2.394" y2="4.032" xlink:href="#linear-gradient"/>
    <linearGradient id="linear-gradient-12" x1="-5.206" y1="-8.798" x2="4.468" y2="7.426" xlink:href="#linear-gradient"/>
    <linearGradient id="linear-gradient-13" x1="-2.346" y1="-4.273" x2="7.328" y2="11.952" xlink:href="#linear-gradient"/>
    <linearGradient id="linear-gradient-14" x1="-5.812" y1="-6.879" x2="9.128" y2="9.926" xlink:href="#linear-gradient"/>
    <linearGradient id="linear-gradient-15" x1="-9.83" y1="-11.944" x2="4.12" y2="4.86" xlink:href="#linear-gradient"/>
    <linearGradient id="linear-gradient-16" y1="0.5" x2="1" y2="0.5" gradientUnits="objectBoundingBox">
      <stop offset="0" stop-color="#bd1ff6"/>
      <stop offset="0.5" stop-color="#4181ef"/>
      <stop offset="1" stop-color="#46ebed"/>
    </linearGradient>
  </defs>
  <g id="Group_64" data-name="Group 64" clip-path="url(#clip-path)">
    <g data-type="innerShadowGroup">
      <path id="Rectangle_21-2" data-name="Rectangle 21" d="M10.013,0H447.931a10,10,0,0,1,10.013,10.013V278a10,10,0,0,1-10.013,10.013H10.013A10,10,0,0,1,0,278V10.013A10,10,0,0,1,10.013,0Z" fill="#f2f2f2"/>
      <g transform="matrix(1, 0, 0, 1, 0, 0)" filter="url(#Rectangle_21)">
        <path id="Rectangle_21-3" data-name="Rectangle 21" d="M10.013,0H447.931a10,10,0,0,1,10.013,10.013V278a10,10,0,0,1-10.013,10.013H10.013A10,10,0,0,1,0,278V10.013A10,10,0,0,1,10.013,0Z" fill="#fff"/>
      </g>
    </g>
    <g id="Group_52" data-name="Group 52" transform="translate(234.599 6.922)">
      <path id="Path_161" data-name="Path 161" d="M93.954,110.846a77.3,77.3,0,0,1-27.513-5.551A116.893,116.893,0,0,1,40.132,90.816a126.15,126.15,0,0,1-21.9-20.144A87.21,87.21,0,0,1,3.953,48.124,51.874,51.874,0,0,1,.378,35.471a34.8,34.8,0,0,1,.188-11.4,28.324,28.324,0,0,1,3.9-9.9,31.428,31.428,0,0,1,7.566-8.133A28.227,28.227,0,0,1,25.2.3a32.574,32.574,0,0,1,13.31,1.01A66.624,66.624,0,0,1,51.644,6.65c4.311,2.236,8.54,4.791,12.632,7.264,3.024,1.828,6.006,3.63,8.929,5.266a84.183,84.183,0,0,0,8.574,4.269,35.544,35.544,0,0,0,8.117,2.427,18.458,18.458,0,0,0,7.556-.261,16.619,16.619,0,0,0,4.209-1.759,22.148,22.148,0,0,0,4.009-3.046,33.925,33.925,0,0,0,3.838-4.36,54.563,54.563,0,0,0,3.694-5.7,5.35,5.35,0,1,1,9.3,5.294,63.771,63.771,0,0,1-4.946,7.5,42.932,42.932,0,0,1-5.348,5.8,31.536,31.536,0,0,1-5.789,4.131,27.18,27.18,0,0,1-6.269,2.5q-.869.226-1.738.392t-1.737.273q-.868.108-1.736.16t-1.734.052a34.339,34.339,0,0,1-8.727-1.2,55.338,55.338,0,0,1-8.665-3.144c-2.876-1.3-5.739-2.807-8.584-4.417s-5.675-3.32-8.484-5.018c-4.461-2.7-8.533-5.091-12.3-7.038a56.354,56.354,0,0,0-10.466-4.352,21.817,21.817,0,0,0-9.136-.79,17.813,17.813,0,0,0-8.311,3.648,19.541,19.541,0,0,0-5.738,6.767A19.441,19.441,0,0,0,10.8,28.959a28.511,28.511,0,0,0,.7,7.813,43.746,43.746,0,0,0,2.331,7.252A78.744,78.744,0,0,0,27.81,65.459,116.427,116.427,0,0,0,49.347,84.288,100.472,100.472,0,0,0,74.682,96.915c8.66,2.776,17.325,3.92,25.368,2.831a5.35,5.35,0,1,1,1.435,10.6q-.928.126-1.864.219t-1.878.155q-.942.062-1.89.092T93.954,110.846Z" transform="translate(103.162 148.856)" fill="#eaeaea"/>
      <path id="Path_162" data-name="Path 162" d="M5.346,55.734a5.315,5.315,0,0,1-2.11-.436,5.4,5.4,0,0,1-.667-.345A5.345,5.345,0,0,1,.781,47.6,88.332,88.332,0,0,1,8.414,36.953a96.432,96.432,0,0,1,9.346-9.706,109.617,109.617,0,0,1,11.024-8.733,128.229,128.229,0,0,1,12.665-7.728q5.865-2.7,11.634-4.724A114.762,114.762,0,0,1,64.517,2.693,101,101,0,0,1,75.738.673a91.536,91.536,0,0,1,11-.673,5.35,5.35,0,1,1,0,10.7,81.216,81.216,0,0,0-9.837.609,90.868,90.868,0,0,0-10.057,1.819A103.611,103.611,0,0,0,56.6,16.149q-5.161,1.809-10.391,4.213A114.954,114.954,0,0,0,34.929,27.25a98.671,98.671,0,0,0-9.848,7.791,86.315,86.315,0,0,0-8.356,8.653,77.86,77.86,0,0,0-6.8,9.472,5.356,5.356,0,0,1-4.574,2.568Z" fill="#eaeaea"/>
      <path id="Path_163" data-name="Path 163" d="M105.269,170.209h-.1l-.1,0-.1,0-.1-.006A103.582,103.582,0,0,1,76.7,163.954,115.006,115.006,0,0,1,47.71,148.173,118.918,118.918,0,0,1,21.83,121.524,136.844,136.844,0,0,1,2.964,82.679a66.1,66.1,0,0,1,.817-41.611,64.839,64.839,0,0,1,9.9-18.144A62.862,62.862,0,0,1,29.14,8.715,52.669,52.669,0,0,1,49.01.672a49.525,49.525,0,0,1,18.436.422A78.645,78.645,0,0,1,84.339,6.837C89.7,9.288,94.788,12.1,99.582,14.752c2.692,1.489,5.293,2.927,7.781,4.212a76.462,76.462,0,0,0,7.109,3.295,27.953,27.953,0,0,0,6.315,1.764,11.8,11.8,0,0,0,5.4-.379,10.283,10.283,0,0,0,2.832-1.509,15.627,15.627,0,0,0,2.667-2.569,26.8,26.8,0,0,0,2.521-3.65,46.557,46.557,0,0,0,2.393-4.753,5.35,5.35,0,1,1,9.8,4.3,54.385,54.385,0,0,1-3.5,6.748,35.221,35.221,0,0,1-3.946,5.28,24.738,24.738,0,0,1-4.417,3.844,20.563,20.563,0,0,1-4.918,2.44,21.37,21.37,0,0,1-8.394,1.026,33.837,33.837,0,0,1-8.669-1.884,73.345,73.345,0,0,1-8.939-3.871c-3.024-1.519-6.092-3.216-9.2-4.937-4.6-2.544-9.239-5.109-13.954-7.3a68.842,68.842,0,0,0-14.411-5.076,39.753,39.753,0,0,0-15.089-.492,41.876,41.876,0,0,0-15.99,6.45A52.254,52.254,0,0,0,22.075,29.551,54.067,54.067,0,0,0,13.832,44.71a55.417,55.417,0,0,0-.647,34.8,126.23,126.23,0,0,0,17.189,35.533,108.681,108.681,0,0,0,23.495,24.367,104.006,104.006,0,0,0,26.269,14.419,92.928,92.928,0,0,0,25.511,5.69,5.35,5.35,0,0,1-.38,10.686Z" transform="translate(67.256 112.893)" fill="#eaeaea"/>
      <path id="Path_164" data-name="Path 164" d="M57.88,205.853a5.331,5.331,0,0,1-3.414-1.234,186.231,186.231,0,0,1-16.228-15.133,154.437,154.437,0,0,1-13.3-16.014,132.072,132.072,0,0,1-10.34-16.839A118.372,118.372,0,0,1,7.26,139.028,143.489,143.489,0,0,1,.031,98.142a107.981,107.981,0,0,1,5.234-36.6A87.621,87.621,0,0,1,50.26,9.829,92.869,92.869,0,0,1,77.29.918,74.252,74.252,0,0,1,100.16.854a87.147,87.147,0,0,1,18.947,5.257c5.688,2.247,10.762,4.794,15.261,7.052,3.321,1.667,6.153,3.046,8.607,4.106a34.737,34.737,0,0,0,6.338,2.181,10.209,10.209,0,0,0,4.733.054,8.288,8.288,0,0,0,3.791-2.277,5.35,5.35,0,1,1,7.532,7.6,19.025,19.025,0,0,1-8.257,5.03,19.652,19.652,0,0,1-8.774.307,42.435,42.435,0,0,1-9.209-2.886c-3.133-1.324-6.325-2.926-9.561-4.551-4.5-2.259-9.278-4.656-14.444-6.717a75.292,75.292,0,0,0-16.781-4.693,62.836,62.836,0,0,0-19.805.183A83.443,83.443,0,0,0,55.023,19.41,77.04,77.04,0,0,0,27.2,42.162,79.39,79.39,0,0,0,13.582,71.94a108.322,108.322,0,0,0-2.3,32.594,134.251,134.251,0,0,0,6.154,31.2,107.683,107.683,0,0,0,6.767,16.192A121.752,121.752,0,0,0,33.8,167.466,144.153,144.153,0,0,0,46.175,182.3,175.673,175.673,0,0,0,61.3,196.386a5.35,5.35,0,0,1-3.42,9.466Z" transform="translate(32.308 75.33)" fill="#eaeaea"/>
      <path id="Path_165" data-name="Path 165" d="M5.35,115.624H5.327A5.345,5.345,0,0,1,0,110.251,115.834,115.834,0,0,1,3.862,80.9,110.076,110.076,0,0,1,14.77,54.374,107.869,107.869,0,0,1,32.1,31.758,109.615,109.615,0,0,1,55.212,14.15,107.059,107.059,0,0,1,110.433.017,111.9,111.9,0,0,1,139.066,4.3a119.761,119.761,0,0,1,27.623,11.825,5.35,5.35,0,1,1-5.4,9.24A108.9,108.9,0,0,0,136.28,14.645a101.389,101.389,0,0,0-25.9-3.911A96.4,96.4,0,0,0,60.52,23.441a98.738,98.738,0,0,0-20.858,15.9A97.35,97.35,0,0,0,24.028,59.773a99.557,99.557,0,0,0-9.843,23.983A104.957,104.957,0,0,0,10.7,110.3a5.345,5.345,0,0,1-5.349,5.327Z" transform="translate(0.381 35.732)" fill="#eaeaea"/>
      <path id="Path_166" data-name="Path 166" d="M57.98,31.8a67.421,67.421,0,0,1-16.629-2.182,90.855,90.855,0,0,1-15.324-5.486,118.585,118.585,0,0,1-13.315-7.2c-4.025-2.51-7.6-5.041-10.6-7.328A5.35,5.35,0,1,1,8.591,1.094,127.487,127.487,0,0,0,20.917,9.408,97.674,97.674,0,0,0,36.678,16.99a64.536,64.536,0,0,0,17.819,4A45.105,45.105,0,0,0,73,18.538,5.35,5.35,0,1,1,76.622,28.6q-2.336.842-4.677,1.447t-4.676.995q-2.335.389-4.66.574T57.98,31.8Z" transform="translate(148.535 190.271)" fill="#eaeaea"/>
    </g>
    <g id="Group_53" data-name="Group 53" transform="translate(26.003 14.407)">
      <path id="Path_167" data-name="Path 167" d="M5.452,15.563,15.563,5.452l1.18,1.18a.714.714,0,0,0,1.011,0l2.359-2.359a.714.714,0,0,0,0-1.011L17.764.911a3.11,3.11,0,0,0-4.4,0L.911,13.362a3.11,3.11,0,0,0,0,4.4l2.856,2.856,3.37-3.37Z" fill="#b100e8"/>
      <path id="Rectangle_22" data-name="Rectangle 22" d="M0,3.37,3.37,0,6.739,3.369l-3.37,3.37Z" transform="translate(5.453 18.934)" fill="#1f8fff"/>
      <path id="Path_168" data-name="Path 168" d="M18.022,2.559,15.673.209a.714.714,0,0,0-1.011,0L12.3,2.569a.714.714,0,0,0,0,1.011l1.18,1.18L3.371,14.871h0L0,18.241l1.17,1.171a3.11,3.11,0,0,0,4.4,0L18.022,6.96a3.111,3.111,0,0,0,0-4.4Z" transform="translate(12.192 10.803)" fill="#b100e8"/>
      <path id="Path_169" data-name="Path 169" d="M11.281,6.96a3.11,3.11,0,0,0,0-4.4L8.931.209a.714.714,0,0,0-1.011,0L5.561,2.569a.714.714,0,0,0,0,1.011l1.18,1.18L0,11.5l3.371,3.37Z" transform="translate(18.934 24.285)" fill="#1f8fff"/>
      <path id="Path_170" data-name="Path 170" d="M15.563,25.674,5.452,15.563l.342-.342h0l8.443-8.443h0l1.327-1.327,1.18,1.18a.715.715,0,0,0,1.011,0l2.359-2.36a.714.714,0,0,0,0-1.011L17.764.911a3.11,3.11,0,0,0-4.4,0L9.739,4.535h0L4.684,9.592h0L.911,13.363a3.11,3.11,0,0,0,0,4.4L13.362,30.215a3.109,3.109,0,0,0,4.4,0l1.171-1.171-3.37-3.37Z" transform="translate(0 13.482)" fill="#1f8fff"/>
      <path id="Rectangle_23" data-name="Rectangle 23" d="M0,8.442,8.442,0h0L0,8.443Z" transform="translate(5.793 20.26)" fill="#9600e0"/>
      <path id="Rectangle_24" data-name="Rectangle 24" d="M0,5.056,5.056,0h0L0,5.057Z" transform="translate(4.683 18.017)" fill="#9600e0"/>
    </g>
    <g id="Group_54" data-name="Group 54" transform="translate(26.002 127.338)">
      <path id="Path_171" data-name="Path 171" d="M0,5.236a7.708,7.708,0,0,0,1.3-.978A7.724,7.724,0,0,0,2.364,3.032,7.663,7.663,0,0,0,3.152,1.6,7.611,7.611,0,0,0,3.622,0H21.365V5.236Z" transform="translate(29.216 22.715)" fill="url(#linear-gradient)"/>
      <path id="Path_172" data-name="Path 172" d="M21.14,0a7.732,7.732,0,0,0-2.552,2.722,7.614,7.614,0,0,0-.966,3.721V7.684H0V0Z" transform="translate(0 5.178)" fill="url(#linear-gradient-2)"/>
      <path id="Rectangle_25" data-name="Rectangle 25" d="M0,0H28.98V4.093H0Z" transform="translate(10.801 0)" fill="url(#linear-gradient-3)"/>
      <path id="Path_173" data-name="Path 173" d="M7.939,0a6.545,6.545,0,0,1,2.075.826A6.62,6.62,0,0,1,12.77,4.189a6.552,6.552,0,0,1,.4,2.254V16.19A6.586,6.586,0,0,1,.518,18.75,6.549,6.549,0,0,1,0,16.19V6.443A6.553,6.553,0,0,1,1.5,2.269,6.635,6.635,0,0,1,3.154.826,6.545,6.545,0,0,1,5.229,0Z" transform="translate(18.706 5.178)" fill="url(#linear-gradient-4)"/>
      <path id="Path_174" data-name="Path 174" d="M3.209,7.684H0V0H3.2V7.421q0,.033,0,.066t0,.066q0,.033,0,.066Z" transform="translate(14.42 13.946)" fill="url(#linear-gradient-5)"/>
      <path id="Rectangle_26" data-name="Rectangle 26" d="M0,0H13.335V7.684H0Z" transform="translate(0 13.946)" fill="url(#linear-gradient-6)"/>
      <path id="Path_175" data-name="Path 175" d="M0,0H17.743a7.611,7.611,0,0,0,.47,1.6A7.663,7.663,0,0,0,19,3.032a7.724,7.724,0,0,0,1.065,1.227,7.708,7.708,0,0,0,1.3.978H0Z" transform="translate(0 22.715)" fill="url(#linear-gradient-7)"/>
      <path id="Rectangle_27" data-name="Rectangle 27" d="M0,0H35.326V3.953H0Z" transform="translate(7.405 29.036)" fill="url(#linear-gradient-8)"/>
      <path id="Path_176" data-name="Path 176" d="M.007,7.421V0H3.265V7.684H0l0-.066q0-.033,0-.066t0-.066Q.007,7.454.007,7.421Z" transform="translate(32.952 13.946)" fill="url(#linear-gradient-9)"/>
      <path id="Rectangle_28" data-name="Rectangle 28" d="M0,0H13.28V7.684H0Z" transform="translate(37.301 13.946)" fill="url(#linear-gradient-10)"/>
      <path id="Path_177" data-name="Path 177" d="M3.519,7.684V6.443A7.645,7.645,0,0,0,3.266,4.49a7.615,7.615,0,0,0-.714-1.768A7.713,7.713,0,0,0,1.442,1.2,7.738,7.738,0,0,0,0,0H21.141V7.684Z" transform="translate(29.44 5.178)" fill="url(#linear-gradient-11)"/>
      <path id="Path_178" data-name="Path 178" d="M9.684,4.094H0V0H5.081a4.614,4.614,0,0,1,3.09,1.184,4.664,4.664,0,0,1,1.013,1.3A4.6,4.6,0,0,1,9.684,4.094Z" transform="translate(40.864)" fill="url(#linear-gradient-12)"/>
      <path id="Path_179" data-name="Path 179" d="M4.6,0H9.684V4.094H0A4.6,4.6,0,0,1,.5,2.483,4.662,4.662,0,0,1,2.92.316,4.609,4.609,0,0,1,4.6,0Z" transform="translate(0.033)" fill="url(#linear-gradient-13)"/>
      <path id="Path_180" data-name="Path 180" d="M0,0H6.27V3.952H4.585a4.612,4.612,0,0,1-1.65-.3,4.64,4.64,0,0,1-1.389-.835A4.668,4.668,0,0,1,.529,1.56,4.6,4.6,0,0,1,0,0Z" transform="translate(0.051 29.035)" fill="url(#linear-gradient-14)"/>
      <path id="Path_181" data-name="Path 181" d="M2.13,3.952H0V0H6.715a4.6,4.6,0,0,1-.529,1.56A4.667,4.667,0,0,1,5.17,2.814a4.64,4.64,0,0,1-1.389.835A4.613,4.613,0,0,1,2.13,3.952Z" transform="translate(43.815 29.035)" fill="url(#linear-gradient-15)"/>
    </g>
    <g id="Group_58" data-name="Group 58" transform="translate(421.322 22.616)">
      <g id="Group_55" data-name="Group 55" transform="translate(0 5.855)">
        <path id="Path_182" data-name="Path 182" d="M.922,16.481a.923.923,0,0,1-.376-.08.915.915,0,0,1-.17-.1.928.928,0,0,1-.149-.138.921.921,0,0,1,.09-1.3,6.789,6.789,0,0,0,1.105-1.239,8.239,8.239,0,0,0,.838-1.533,9.53,9.53,0,0,0,.54-1.753,10.331,10.331,0,0,0,.211-1.9,10.143,10.143,0,0,0-.154-1.968,9.486,9.486,0,0,0-.52-1.837,8.75,8.75,0,0,0-.863-1.645A8.062,8.062,0,0,0,.292,1.595.922.922,0,1,1,1.552.249,9.887,9.887,0,0,1,2.987,1.936,10.6,10.6,0,0,1,4.034,3.917a11.334,11.334,0,0,1,.632,2.2,11.973,11.973,0,0,1,.188,2.353,12.092,12.092,0,0,1-.259,2.281,11.4,11.4,0,0,1-.666,2.116,10.117,10.117,0,0,1-1.035,1.863,8.563,8.563,0,0,1-1.366,1.522.937.937,0,0,1-.138.1.919.919,0,0,1-.466.127Z" fill="#51637b"/>
      </g>
      <g id="Group_56" data-name="Group 56" transform="translate(4.3 2.711)">
        <path id="Path_183" data-name="Path 183" d="M.923,22.769a.925.925,0,0,1-.377-.08.915.915,0,0,1-.17-.1.922.922,0,0,1-.059-1.439,10.082,10.082,0,0,0,1.636-1.832,12.18,12.18,0,0,0,1.24-2.262,14.03,14.03,0,0,0,.8-2.584,15.154,15.154,0,0,0,.312-2.8,14.886,14.886,0,0,0-.227-2.9,13.958,13.958,0,0,0-.768-2.7A12.907,12.907,0,0,0,2.035,3.651,11.914,11.914,0,0,0,.292,1.595.922.922,0,1,1,1.552.249a13.738,13.738,0,0,1,2,2.349,14.748,14.748,0,0,1,1.458,2.76,15.8,15.8,0,0,1,.88,3.071,16.713,16.713,0,0,1,.261,3.281,16.9,16.9,0,0,1-.36,3.179,15.9,15.9,0,0,1-.925,2.947,14.055,14.055,0,0,1-1.438,2.593,11.859,11.859,0,0,1-1.9,2.115.93.93,0,0,1-.138.1.919.919,0,0,1-.466.127Z" fill="#51637b"/>
      </g>
      <g id="Group_57" data-name="Group 57" transform="translate(9.252)">
        <path id="Path_184" data-name="Path 184" d="M.923,28.191a.925.925,0,0,1-.377-.08.915.915,0,0,1-.17-.1.928.928,0,0,1-.149-.138.921.921,0,0,1,.091-1.3,12.923,12.923,0,0,0,2.094-2.344A15.577,15.577,0,0,0,4,21.338a17.905,17.905,0,0,0,1.022-3.3,19.305,19.305,0,0,0,.4-3.572,18.983,18.983,0,0,0-.291-3.7,17.815,17.815,0,0,0-.981-3.452,16.491,16.491,0,0,0-1.627-3.1A15.237,15.237,0,0,0,.292,1.595.922.922,0,1,1,1.552.249,17.061,17.061,0,0,1,4.033,3.168,18.328,18.328,0,0,1,5.845,6.6a19.653,19.653,0,0,1,1.093,3.819A20.807,20.807,0,0,1,7.262,14.5a21.06,21.06,0,0,1-.447,3.953,19.771,19.771,0,0,1-1.148,3.664,17.45,17.45,0,0,1-1.784,3.222,14.7,14.7,0,0,1-2.355,2.626.924.924,0,0,1-.138.1.915.915,0,0,1-.306.113A.923.923,0,0,1,.923,28.191Z" fill="#51637b"/>
      </g>
    </g>
    <g id="Group_61" data-name="Group 61" transform="translate(26.003 255.488)">
      <path id="Path_185" data-name="Path 185" d="M13.046,10.756,8.2.566A.6.6,0,0,0,8.106.433.786.786,0,0,0,7.97.318a1.152,1.152,0,0,0-.177-.1,1.759,1.759,0,0,0-.218-.08Q7.457.106,7.332.079T7.077.035Q6.947.018,6.811.009T6.535,0Q6.4,0,6.27.009T6.012.035q-.127.018-.25.044T5.519.141A1.755,1.755,0,0,0,5.3.221a1.149,1.149,0,0,0-.177.1A.785.785,0,0,0,4.99.433.606.606,0,0,0,4.9.566L.025,10.756q-.006.024-.011.044t-.008.038q0,.018,0,.032A.261.261,0,0,0,0,10.9a.322.322,0,0,0,.015.1.348.348,0,0,0,.046.092.478.478,0,0,0,.077.085.74.74,0,0,0,.107.078q.061.037.131.071t.15.064q.08.03.168.057t.187.05q.1.024.193.041t.187.03q.092.012.181.018t.175.006q.079,0,.155,0t.148-.015q.072-.01.14-.025t.132-.035a.738.738,0,0,0,.117-.046.518.518,0,0,0,.094-.06.4.4,0,0,0,.071-.074.373.373,0,0,0,.048-.087L3.5,9.465H9.57l1,1.779a.5.5,0,0,0,.132.161.57.57,0,0,0,.091.06.706.706,0,0,0,.108.046q.058.02.122.035t.132.025q.069.01.143.015t.154,0q.092,0,.184-.006t.186-.018q.093-.012.187-.03T12.2,11.5q.095-.023.182-.051t.167-.059q.08-.031.151-.067t.136-.075a.872.872,0,0,0,.113-.081.524.524,0,0,0,.08-.085.339.339,0,0,0,.048-.089A.274.274,0,0,0,13.1,10.9a.13.13,0,0,0,0-.027.265.265,0,0,0-.009-.032q-.006-.018-.015-.038T13.046,10.756ZM4.088,7.674,6.535,2.28,8.983,7.674Z" transform="translate(13.342)" fill="#51637b"/>
      <path id="Path_186" data-name="Path 186" d="M13.046,10.756,8.2.566A.6.6,0,0,0,8.105.433.786.786,0,0,0,7.97.318a1.152,1.152,0,0,0-.177-.1,1.758,1.758,0,0,0-.218-.08Q7.456.106,7.332.079T7.077.035Q6.947.018,6.811.009T6.535,0Q6.4,0,6.27.009T6.012.035q-.127.018-.25.044T5.519.141A1.757,1.757,0,0,0,5.3.221a1.152,1.152,0,0,0-.177.1.788.788,0,0,0-.135.115A.609.609,0,0,0,4.9.566L.025,10.756q-.006.024-.011.044t-.008.038q0,.018,0,.032A.263.263,0,0,0,0,10.9a.323.323,0,0,0,.015.1.348.348,0,0,0,.046.092.477.477,0,0,0,.077.085.74.74,0,0,0,.107.078q.061.037.131.071t.15.064q.08.03.168.057t.187.05q.1.024.193.041t.187.03q.092.012.181.018t.175.006q.079,0,.155,0t.148-.015q.072-.01.14-.025t.133-.035a.737.737,0,0,0,.117-.046.517.517,0,0,0,.094-.06.4.4,0,0,0,.071-.074.373.373,0,0,0,.048-.087L3.5,9.465H9.57l1,1.779a.5.5,0,0,0,.132.161.57.57,0,0,0,.091.06.706.706,0,0,0,.108.046q.058.02.122.035t.132.025q.069.01.143.015t.154,0q.092,0,.184-.006t.186-.018q.093-.012.187-.03T12.2,11.5q.095-.023.182-.051t.167-.059q.08-.031.151-.067t.136-.075a.871.871,0,0,0,.113-.081.523.523,0,0,0,.08-.085.339.339,0,0,0,.048-.089A.274.274,0,0,0,13.1,10.9a.131.131,0,0,0,0-.027.264.264,0,0,0-.009-.032q-.006-.018-.015-.038T13.046,10.756ZM4.088,7.674,6.535,2.28,8.983,7.674Z" transform="translate(67.51)" fill="#51637b"/>
      <path id="Path_187" data-name="Path 187" d="M1.3,11.59a2.164,2.164,0,0,1-.24-.013,1.956,1.956,0,0,1-.229-.039,1.843,1.843,0,0,1-.218-.065A1.818,1.818,0,0,1,.4,11.382a.864.864,0,0,1-.177-.118A.66.66,0,0,1,.1,11.116a.642.642,0,0,1-.076-.177A.8.8,0,0,1,0,10.733V.857a.806.806,0,0,1,.023-.2A.663.663,0,0,1,.092.49.68.68,0,0,1,.207.343.863.863,0,0,1,.367.22a1.609,1.609,0,0,1,.186-.1A1.493,1.493,0,0,1,.747.055a1.463,1.463,0,0,1,.2-.041A1.518,1.518,0,0,1,1.151,0H9.742a.869.869,0,0,1,.2.023.655.655,0,0,1,.174.069.621.621,0,0,1,.144.115.757.757,0,0,1,.113.161,1.775,1.775,0,0,1,.086.185,1.62,1.62,0,0,1,.061.188,1.537,1.537,0,0,1,.049.386,1.906,1.906,0,0,1-.013.226,1.658,1.658,0,0,1-.039.212,1.5,1.5,0,0,1-.065.2,1.438,1.438,0,0,1-.091.184.8.8,0,0,1-.117.155.641.641,0,0,1-.312.177.821.821,0,0,1-.195.022H2.595V5.2H6.389a.909.909,0,0,1,.195.02.7.7,0,0,1,.169.06.645.645,0,0,1,.143.1.733.733,0,0,1,.117.139,1.247,1.247,0,0,1,.156.343,1.347,1.347,0,0,1,.039.19,1.528,1.528,0,0,1,.013.2,1.187,1.187,0,0,1-.012.17,1.237,1.237,0,0,1-.037.169,1.365,1.365,0,0,1-.061.167,1.578,1.578,0,0,1-.085.166.687.687,0,0,1-.113.145.615.615,0,0,1-.144.1.7.7,0,0,1-.174.062.962.962,0,0,1-.2.021H2.595v3.472a.806.806,0,0,1-.025.206.643.643,0,0,1-.076.177.659.659,0,0,1-.126.148.861.861,0,0,1-.177.118,1.827,1.827,0,0,1-.208.091,1.851,1.851,0,0,1-.218.065,1.959,1.959,0,0,1-.229.039A2.157,2.157,0,0,1,1.3,11.59Z" transform="translate(28.956)" fill="#51637b"/>
      <path id="Path_188" data-name="Path 188" d="M1.149,11.59a1.516,1.516,0,0,1-.2-.014,1.46,1.46,0,0,1-.2-.041,1.5,1.5,0,0,1-.192-.069,1.623,1.623,0,0,1-.186-.1.867.867,0,0,1-.16-.122A.681.681,0,0,1,.092,11.1a.661.661,0,0,1-.069-.171.8.8,0,0,1-.023-.2V.855A.805.805,0,0,1,.023.66.662.662,0,0,1,.092.489.68.68,0,0,1,.206.342.863.863,0,0,1,.366.22a1.624,1.624,0,0,1,.186-.1A1.5,1.5,0,0,1,.745.055a1.461,1.461,0,0,1,.2-.041A1.516,1.516,0,0,1,1.149,0h8.7a.958.958,0,0,1,.215.023.693.693,0,0,1,.182.069.621.621,0,0,1,.148.115.724.724,0,0,1,.115.16,1.775,1.775,0,0,1,.085.185,1.619,1.619,0,0,1,.061.188,1.535,1.535,0,0,1,.049.385,1.8,1.8,0,0,1-.014.225,1.57,1.57,0,0,1-.041.212,1.438,1.438,0,0,1-.069.2,1.4,1.4,0,0,1-.1.184.838.838,0,0,1-.122.155.667.667,0,0,1-.318.177.83.83,0,0,1-.2.022H2.59v2.92H6.352a.922.922,0,0,1,.2.02.723.723,0,0,1,.171.06.676.676,0,0,1,.147.1.771.771,0,0,1,.122.139,1.222,1.222,0,0,1,.1.165,1.2,1.2,0,0,1,.069.177,1.275,1.275,0,0,1,.041.189,1.447,1.447,0,0,1,.014.2,1.189,1.189,0,0,1-.012.17,1.234,1.234,0,0,1-.037.169,1.359,1.359,0,0,1-.061.167,1.569,1.569,0,0,1-.085.166.656.656,0,0,1-.115.144.617.617,0,0,1-.148.1.743.743,0,0,1-.182.062,1.062,1.062,0,0,1-.215.021H2.59V9.293H9.846a.857.857,0,0,1,.2.021.69.69,0,0,1,.171.064.677.677,0,0,1,.147.107.815.815,0,0,1,.122.15,1.269,1.269,0,0,1,.1.18,1.382,1.382,0,0,1,.069.2,1.6,1.6,0,0,1,.041.217,1.95,1.95,0,0,1,.014.235,1.534,1.534,0,0,1-.049.385,1.615,1.615,0,0,1-.061.188,1.766,1.766,0,0,1-.085.185.725.725,0,0,1-.115.16.623.623,0,0,1-.148.115.693.693,0,0,1-.182.069.955.955,0,0,1-.215.023Z" transform="translate(41.891)" fill="#51637b"/>
      <g id="Group_59" data-name="Group 59">
        <path id="Path_189" data-name="Path 189" d="M5.44,3.477A1.512,1.512,0,0,0,6.953,1.964V.348A.347.347,0,0,0,6.605,0H4.983a.347.347,0,0,0-.348.348v.812H0V3.477Z" transform="translate(4.637 8.113)" fill="#51637b"/>
        <path id="Path_190" data-name="Path 190" d="M2.317,9.272V2.318H9.272v.811a.347.347,0,0,0,.348.348h1.623a.348.348,0,0,0,.348-.348V1.513A1.512,1.512,0,0,0,10.076,0H1.513A1.512,1.512,0,0,0,0,1.513v8.563A1.512,1.512,0,0,0,1.513,11.59h.806V9.272Z" fill="#51637b"/>
      </g>
      <g id="Group_60" data-name="Group 60" transform="translate(54.523)">
        <path id="Path_191" data-name="Path 191" d="M5.44,3.477A1.512,1.512,0,0,0,6.953,1.964V.348A.347.347,0,0,0,6.605,0H4.983a.347.347,0,0,0-.348.348v.812H0V3.477Z" transform="translate(4.637 8.113)" fill="#51637b"/>
        <path id="Path_192" data-name="Path 192" d="M2.318,9.272V2.318H9.272v.811a.347.347,0,0,0,.348.348h1.623a.347.347,0,0,0,.348-.348V1.513A1.512,1.512,0,0,0,10.077,0H1.513A1.512,1.512,0,0,0,0,1.513v8.563A1.512,1.512,0,0,0,1.513,11.59h.805V9.272Z" fill="#51637b"/>
      </g>
    </g>
    <g id="Group_63" data-name="Group 63" transform="translate(385.221 214.46)">
      <g id="Group_62" data-name="Group 62">
        <path id="Path_193" data-name="Path 193" d="M26.576,53.152A26.583,26.583,0,0,1,16.242,2.092a26.576,26.576,0,0,1,20.67,48.969A26.432,26.432,0,0,1,26.576,53.152Zm0-51.626a25.057,25.057,0,0,0-9.741,48.128A25.05,25.05,0,0,0,36.317,3.5,24.913,24.913,0,0,0,26.576,1.526Z" fill="url(#linear-gradient-16)"/>
      </g>
      <path id="Rectangle_29" data-name="Rectangle 29" d="M8.791,0H20.968a8.783,8.783,0,0,1,8.791,8.791V20.968a8.783,8.783,0,0,1-8.791,8.791H8.791A8.783,8.783,0,0,1,0,20.968V8.791A8.783,8.783,0,0,1,8.791,0Z" transform="translate(11.697 11.697)" fill="#3e4c5e"/>
    </g>
  </g>
</svg>
