<svg id="Group_51" data-name="Group 51" xmlns="http://www.w3.org/2000/svg" xmlns:xlink="http://www.w3.org/1999/xlink" width="457.371" height="287.649" viewBox="0 0 457.371 287.649">
  <defs>
    <clipPath id="clip-path">
      <rect id="Rectangle_19" data-name="Rectangle 19" width="457.371" height="287.649" rx="10" fill="none"/>
    </clipPath>
    <filter id="Rectangle_16">
      <feOffset dx="3" dy="3" input="SourceAlpha"/>
      <feGaussianBlur stdDeviation="4" result="blur"/>
      <feFlood flood-color="#fff" result="color"/>
      <feComposite operator="out" in="SourceGraphic" in2="blur"/>
      <feComposite operator="in" in="color"/>
      <feComposite operator="in" in2="SourceGraphic"/>
    </filter>
  </defs>
  <g id="Mask_Group_1" data-name="Mask Group 1" clip-path="url(#clip-path)">
    <g data-type="innerShadowGroup">
      <rect id="Rectangle_16-2" data-name="Rectangle 16" width="457.371" height="287.649" rx="10" fill="#f2f2f2"/>
      <g transform="matrix(1, 0, 0, 1, 0, 0)" filter="url(#Rectangle_16)">
        <rect id="Rectangle_16-3" data-name="Rectangle 16" width="457.371" height="287.649" rx="10" fill="#fff"/>
      </g>
    </g>
    <g id="Group_28" data-name="Group 28" transform="translate(362.41 13.675)">
      <path id="Path_53" data-name="Path 53" d="M33.092,34.632l-22.5-22.5L7.966,14.757a1.591,1.591,0,0,1-2.25,0L.466,9.507a1.591,1.591,0,0,1,0-2.25L5.695,2.028a6.925,6.925,0,0,1,9.793,0L43.2,29.736a6.924,6.924,0,0,1,0,9.793L36.84,45.885l-7.5-7.5Z" transform="translate(24.041 0)" fill="#eaeaea"/>
      <path id="Path_54" data-name="Path 54" d="M2.028,5.695,7.257.466a1.591,1.591,0,0,1,2.25,0l5.25,5.25a1.591,1.591,0,0,1,0,2.25l-2.625,2.625,22.5,22.5h0l7.5,7.5-2.6,2.6a6.925,6.925,0,0,1-9.793,0L2.028,15.488A6.925,6.925,0,0,1,2.028,5.695Z" transform="translate(0 24.041)" fill="#eaeaea"/>
      <path id="Path_55" data-name="Path 55" d="M2.028,15.488a6.925,6.925,0,0,1,0-9.793L7.257.466a1.591,1.591,0,0,1,2.25,0l5.25,5.25a1.591,1.591,0,0,1,0,2.25l-2.625,2.625,15,15-7.5,7.5Z" transform="translate(0 54.042)" fill="#eaeaea"/>
      <path id="Path_56" data-name="Path 56" d="M10.591,57.133l22.5-22.5-.76-.761h0L13.545,15.084h0l-2.953-2.953L7.966,14.757a1.591,1.591,0,0,1-2.25,0L.466,9.507a1.591,1.591,0,0,1,0-2.25L5.695,2.029a6.924,6.924,0,0,1,9.793,0l8.064,8.064,0,0L34.8,21.345l0,0L43.2,29.736a6.924,6.924,0,0,1,0,9.793L15.488,67.237a6.925,6.925,0,0,1-9.793,0L3.089,64.631l7.5-7.5Z" transform="translate(24.041 30.001)" fill="#eaeaea"/>
      <rect id="Rectangle_17" data-name="Rectangle 17" width="26.569" height="0.001" transform="translate(56.372 63.873) rotate(-135)" fill="#eaeaea"/>
      <rect id="Rectangle_18" data-name="Rectangle 18" width="15.91" height="0.003" transform="translate(58.841 51.345) rotate(-135)" fill="#eaeaea"/>
    </g>
    <g id="Group_29" data-name="Group 29" transform="translate(19.251 223.109)">
      <path id="Path_57" data-name="Path 57" d="M1.4,22.463a1.4,1.4,0,0,0,1.4-1.4V1.4A1.4,1.4,0,0,0,0,1.4V21.059A1.4,1.4,0,0,0,1.4,22.463Z" transform="translate(15.92 0)" fill="#51637b"/>
      <path id="Path_58" data-name="Path 58" d="M17.324,33.481A17.32,17.32,0,0,0,23.821.1a1.4,1.4,0,1,0-1.053,2.6,14.516,14.516,0,1,1-10.887,0A1.4,1.4,0,1,0,10.828.1a17.32,17.32,0,0,0,6.5,33.377Z" transform="translate(0 4.903)" fill="#51637b"/>
    </g>
    <g id="Group_50" data-name="Group 50" transform="translate(237.662 146.703)">
      <g id="Group_31" data-name="Group 31" transform="translate(0 47.533)">
        <g id="Group_30" data-name="Group 30" transform="translate(0 0)">
          <path id="Path_59" data-name="Path 59" d="M.7,11.045h.7a.672.672,0,0,0,.49-.2.666.666,0,0,0,.209-.5.676.676,0,0,0-.206-.5.679.679,0,0,0-.494-.2V5.027H6.325a.711.711,0,0,0,.7-.7V.7A.671.671,0,0,0,6.816.211.666.666,0,0,0,6.325,0H.7A.67.67,0,0,0,.207.211.667.667,0,0,0,0,.7v9.647a.669.669,0,0,0,.2.5A.671.671,0,0,0,.7,11.045ZM1.38,3.614v-2.2H5.626v2.2Z" transform="translate(185.297 0)" fill="#51637b"/>
          <path id="Path_60" data-name="Path 60" d="M.7,11.045H7.057V6.218a1.372,1.372,0,0,0-.412-1A1.345,1.345,0,0,0,5.659,4.8H1.413V1.4H6.406a.668.668,0,0,0,.5-.2.682.682,0,0,0,.2-.5.686.686,0,0,0-.2-.5.668.668,0,0,0-.5-.2H1.413a1.378,1.378,0,0,0-1,.41A1.35,1.35,0,0,0,0,1.4V4.8a1.357,1.357,0,0,0,.414,1,1.367,1.367,0,0,0,1,.414H5.659V9.647H.7a.675.675,0,0,0-.492.2.666.666,0,0,0-.207.5.674.674,0,0,0,.207.5A.693.693,0,0,0,.7,11.045Z" transform="translate(175.001 0.019)" fill="#51637b"/>
          <path id="Path_61" data-name="Path 61" d="M.018,1.4V4.021A2,2,0,0,0,.585,5.5,2.085,2.085,0,0,0,0,6.917v2.73a1.337,1.337,0,0,0,.418.984,1.359,1.359,0,0,0,1,.415H6.358a.695.695,0,0,0,.7-.7.695.695,0,0,0-.7-.7H1.431V6.917a.7.7,0,0,1,.205-.5A.652.652,0,0,1,2.13,6.2H4.946A.677.677,0,0,0,5.439,6a.669.669,0,0,0,.205-.5.7.7,0,0,0-.7-.7H2.116a.677.677,0,0,1-.492-.2.666.666,0,0,1-.207-.5V1.4H6.41a.666.666,0,0,0,.494-.2A.672.672,0,0,0,7.109.7.677.677,0,0,0,6.9.2.666.666,0,0,0,6.41,0H1.416A1.346,1.346,0,0,0,.425.41,1.358,1.358,0,0,0,.018,1.4Z" transform="translate(164.689 0.019)" fill="#51637b"/>
          <path id="Path_62" data-name="Path 62" d="M2.1,10.365V7.45H6.309V.718A.683.683,0,0,0,6.1.215.691.691,0,0,0,5.593,0,.677.677,0,0,0,5.1.215a.7.7,0,0,0-.207.5v5.32H2.1V1.942a.7.7,0,0,0-.2-.5.655.655,0,0,0-.5-.214.657.657,0,0,0-.5.214.7.7,0,0,0-.2.5V6.037a.672.672,0,0,0-.5.2.677.677,0,0,0-.2.5.683.683,0,0,0,.2.5.687.687,0,0,0,.5.2v2.93a.68.68,0,0,0,.207.5.7.7,0,0,0,.492.2.694.694,0,0,0,.7-.7Z" transform="translate(154.786 0)" fill="#51637b"/>
          <path id="Path_63" data-name="Path 63" d="M4.636,9.647H1.4V6.218H5.626V0H.7a.678.678,0,0,0-.49.207A.676.676,0,0,0,0,.7a.672.672,0,0,0,.205.5A.668.668,0,0,0,.7,1.4H4.213V4.82H1.4a1.34,1.34,0,0,0-.98.414A1.349,1.349,0,0,0,0,6.218V9.647a1.345,1.345,0,0,0,.412.984,1.34,1.34,0,0,0,.986.415H4.636a2.343,2.343,0,0,0,.923-.211l1.058-.44a.654.654,0,0,0,.425-.666.7.7,0,0,0-.192-.5.625.625,0,0,0-.466-.2,1.17,1.17,0,0,0-.483.126l-.923.392A.659.659,0,0,1,4.636,9.647Z" transform="translate(133.673 0.019)" fill="#51637b"/>
          <path id="Path_64" data-name="Path 64" d="M6.325,0h-.7a.674.674,0,0,0-.5.207.679.679,0,0,0-.2.492.671.671,0,0,0,.2.5.671.671,0,0,0,.5.2v4.62H.7a.668.668,0,0,0-.492.211.694.694,0,0,0-.207.5v3.614a.67.67,0,0,0,.211.5.717.717,0,0,0,.5.2H6.325a.692.692,0,0,0,.5-.211.658.658,0,0,0,.211-.488V.7A.672.672,0,0,0,6.832.2.693.693,0,0,0,6.325,0ZM5.641,7.431V9.647H1.413V7.431Z" transform="translate(123.53 0.019)" fill="#51637b"/>
          <path id="Path_65" data-name="Path 65" d="M7.039,1.3V.7a.663.663,0,0,0-.2-.492A.671.671,0,0,0,6.34,0H0V4.294a.712.712,0,0,0,.257.566l2.573,2.2v3.255a.692.692,0,0,0,.2.5.654.654,0,0,0,.5.215.691.691,0,0,0,.5-.211.659.659,0,0,0,.211-.488V6.8a.774.774,0,0,0-.248-.618L1.413,4.006V1.4H5.641a.682.682,0,0,0,.7.6.668.668,0,0,0,.5-.2A.663.663,0,0,0,7.039,1.3Z" transform="translate(113.269 0.034)" fill="#51637b"/>
          <path id="Path_66" data-name="Path 66" d="M7.058,9.628V6.218a1.332,1.332,0,0,0-.418-.987,1.364,1.364,0,0,0-1-.41V.7a.684.684,0,0,0-.2-.5.666.666,0,0,0-.5-.2H2.1a.671.671,0,0,0-.5.2.675.675,0,0,0-.2.5V4.82a1.369,1.369,0,0,0-.984.4A1.335,1.335,0,0,0,0,6.218V9.647a1.339,1.339,0,0,0,.414.984,1.348,1.348,0,0,0,.984.415H5.641a1.335,1.335,0,0,0,1-.433A1.4,1.4,0,0,0,7.058,9.628ZM5.641,6.218V9.647H1.4V6.218ZM4.242,1.4V4.82H2.8V1.4Z" transform="translate(102.975 0.019)" fill="#51637b"/>
          <path id="Path_67" data-name="Path 67" d="M.7,11.045h.7a.673.673,0,0,0,.49-.2.666.666,0,0,0,.209-.5.7.7,0,0,0-.7-.7V5.027H6.325a.711.711,0,0,0,.7-.7V.7A.668.668,0,0,0,6.815.211.665.665,0,0,0,6.325,0H.7A.668.668,0,0,0,.207.211.667.667,0,0,0,0,.7v9.647a.669.669,0,0,0,.2.5A.669.669,0,0,0,.7,11.045ZM1.38,3.614v-2.2H5.626v2.2Z" transform="translate(82.353 0)" fill="#51637b"/>
          <path id="Path_68" data-name="Path 68" d="M7.058,9.628V6.218a1.331,1.331,0,0,0-.419-.987,1.364,1.364,0,0,0-1-.41V.7a.684.684,0,0,0-.2-.5.666.666,0,0,0-.5-.2H2.1a.669.669,0,0,0-.5.2.673.673,0,0,0-.2.5V4.82a1.369,1.369,0,0,0-.984.4A1.337,1.337,0,0,0,0,6.218V9.647a1.341,1.341,0,0,0,.414.984,1.348,1.348,0,0,0,.984.415H5.641a1.335,1.335,0,0,0,1-.433A1.4,1.4,0,0,0,7.058,9.628ZM5.641,6.218V9.647H1.4V6.218ZM4.242,1.4V4.82H2.8V1.4Z" transform="translate(72.092 0.019)" fill="#51637b"/>
          <path id="Path_69" data-name="Path 69" d="M7.039,1.3V.7a.663.663,0,0,0-.2-.492A.671.671,0,0,0,6.34,0H0V4.294a.712.712,0,0,0,.257.566l2.573,2.2v3.255a.692.692,0,0,0,.2.5.654.654,0,0,0,.5.215.692.692,0,0,0,.5-.211.658.658,0,0,0,.21-.488V6.8a.772.772,0,0,0-.248-.618L1.413,4.006V1.4H5.641a.681.681,0,0,0,.7.6.668.668,0,0,0,.5-.2A.663.663,0,0,0,7.039,1.3Z" transform="translate(61.798 0.034)" fill="#51637b"/>
          <path id="Path_70" data-name="Path 70" d="M6.325,0h-.7a.674.674,0,0,0-.5.207.679.679,0,0,0-.2.492.671.671,0,0,0,.2.5.67.67,0,0,0,.5.2v4.62H.7a.668.668,0,0,0-.492.211.694.694,0,0,0-.207.5v3.614a.67.67,0,0,0,.211.5.717.717,0,0,0,.5.2H6.325a.692.692,0,0,0,.5-.211.658.658,0,0,0,.21-.488V.7A.672.672,0,0,0,6.832.2.693.693,0,0,0,6.325,0ZM5.641,7.431V9.647H1.413V7.431Z" transform="translate(51.471 0.019)" fill="#51637b"/>
          <path id="Path_71" data-name="Path 71" d="M4.636,9.647H1.4V6.218H5.626V0H.7a.678.678,0,0,0-.49.207A.676.676,0,0,0,0,.7a.672.672,0,0,0,.205.5A.669.669,0,0,0,.7,1.4H4.213V4.82H1.4a1.34,1.34,0,0,0-.98.414A1.348,1.348,0,0,0,0,6.218V9.647a1.344,1.344,0,0,0,.412.984,1.338,1.338,0,0,0,.985.415H4.636a2.342,2.342,0,0,0,.923-.211l1.058-.44a.654.654,0,0,0,.425-.666.7.7,0,0,0-.192-.5.626.626,0,0,0-.466-.2,1.17,1.17,0,0,0-.483.126l-.923.392A.659.659,0,0,1,4.636,9.647Z" transform="translate(30.731 0.019)" fill="#51637b"/>
          <path id="Path_72" data-name="Path 72" d="M2.1,10.365V7.45H6.309V.718A.683.683,0,0,0,6.1.215.692.692,0,0,0,5.593,0,.677.677,0,0,0,5.1.215a.7.7,0,0,0-.207.5v5.32H2.1V1.942a.7.7,0,0,0-.2-.5.655.655,0,0,0-.5-.214.655.655,0,0,0-.5.214.7.7,0,0,0-.2.5V6.037a.672.672,0,0,0-.5.2.677.677,0,0,0-.2.5.683.683,0,0,0,.2.5.687.687,0,0,0,.5.2v2.93a.679.679,0,0,0,.207.5.7.7,0,0,0,.492.2.695.695,0,0,0,.7-.7Z" transform="translate(20.962 0)" fill="#51637b"/>
          <path id="Path_73" data-name="Path 73" d="M.019,1.4V4.021A2,2,0,0,0,.585,5.5,2.084,2.084,0,0,0,0,6.917v2.73a1.335,1.335,0,0,0,.418.984,1.358,1.358,0,0,0,1,.415H6.359a.7.7,0,0,0,.7-.7.695.695,0,0,0-.7-.7H1.431V6.917a.693.693,0,0,1,.206-.5A.65.65,0,0,1,2.131,6.2H4.946a.7.7,0,1,0,0-1.4H2.116a.677.677,0,0,1-.492-.2.667.667,0,0,1-.207-.5V1.4H6.411a.667.667,0,0,0,.494-.2A.673.673,0,0,0,7.11.7.677.677,0,0,0,6.9.2.667.667,0,0,0,6.411,0H1.417A1.347,1.347,0,0,0,.425.41,1.359,1.359,0,0,0,.019,1.4Z" transform="translate(10.275 0.019)" fill="#51637b"/>
          <path id="Path_74" data-name="Path 74" d="M.7,11.045H7.057V6.218a1.371,1.371,0,0,0-.413-1A1.343,1.343,0,0,0,5.659,4.8H1.413V1.4H6.406a.668.668,0,0,0,.5-.2.682.682,0,0,0,.2-.5.686.686,0,0,0-.2-.5.668.668,0,0,0-.5-.2H1.413a1.379,1.379,0,0,0-1,.41A1.35,1.35,0,0,0,0,1.4V4.8a1.357,1.357,0,0,0,.414,1,1.367,1.367,0,0,0,1,.414H5.659V9.647H.7a.675.675,0,0,0-.492.2.667.667,0,0,0-.207.5.674.674,0,0,0,.207.5A.693.693,0,0,0,.7,11.045Z" transform="translate(0 0.019)" fill="#51637b"/>
        </g>
      </g>
      <g id="Group_35" data-name="Group 35" transform="translate(139.282 34.328)">
        <g id="Group_32" data-name="Group 32" transform="translate(0 0)">
          <path id="Path_75" data-name="Path 75" d="M0,6.273a4.633,4.633,0,0,0,1.79.333A2.964,2.964,0,0,0,4.868,3.3,2.964,2.964,0,0,0,1.79,0,5.382,5.382,0,0,0,0,.318v.7A3.87,3.87,0,0,1,1.764.6c1.445,0,2.4.888,2.4,2.706a2.39,2.39,0,0,1-2.4,2.706A3.6,3.6,0,0,1,0,5.6Z" transform="translate(49.433 0)" fill="#888"/>
          <path id="Path_76" data-name="Path 76" d="M.664,4.7a3.567,3.567,0,0,0,.105-.544,2.433,2.433,0,0,0,1.764.677A1.452,1.452,0,0,0,4.152,3.342c0-2.108-3.329-.954-3.329-2.068,0-.5.582-.718,1.247-.718a2.991,2.991,0,0,1,1.592.479v-.6A2.775,2.775,0,0,0,2.029,0C1.115,0,.185.4.185,1.234V3.675A3.887,3.887,0,0,1,0,4.7ZM.836,2.162c.649.451,2.68-.039,2.68,1.208,0,.7-.558.915-1.074.915-.8,0-1.605-.5-1.605-1.115Z" transform="translate(44.395 1.777)" fill="#888"/>
          <path id="Path_77" data-name="Path 77" d="M0,.624A1.18,1.18,0,0,1,.385.557C1.219.557,1.5,1.565,1.5,2.19V4.7h.649V.067H1.524V.716A1.232,1.232,0,0,0,.37,0,2.288,2.288,0,0,0,0,.026Z" transform="translate(41.136 1.777)" fill="#888"/>
          <path id="Path_78" data-name="Path 78" d="M.636,6.34V5.4A1.894,1.894,0,0,0,2.268,6.473C3.3,6.473,4.1,5.809,4.1,4.137A2.211,2.211,0,0,0,1.8,1.644,2.748,2.748,0,0,0,.636,1.9V0H0V6.34Zm0-3.86A2.6,2.6,0,0,1,1.8,2.2c1.023,0,1.672.677,1.672,1.923,0,1.287-.544,1.8-1.247,1.8A1.866,1.866,0,0,1,.636,4.019Z" transform="translate(36.468 0.133)" fill="#888"/>
          <path id="Path_79" data-name="Path 79" d="M.769,6.34,4.245,1.008V6.34h.69V0H4.165L.69,5.332V0H0V6.34Z" transform="translate(26.631 0.133)" fill="#888"/>
          <path id="Path_80" data-name="Path 80" d="M.636,4.629v-.7a1.95,1.95,0,0,0,1.552.823A1.52,1.52,0,0,0,3.9,3.183V0H3.25V3.1A1,1,0,0,1,2.135,4.191a1.627,1.627,0,0,1-1.5-1.538V0H0V4.629Z" transform="translate(21.356 1.844)" fill="#888"/>
          <path id="Path_81" data-name="Path 81" d="M.636,4.7V1.552a.892.892,0,0,1,.982-.98,1.325,1.325,0,0,1,1.3,1.286V4.7h.649V1.685c0-.6.213-1.114.982-1.114A1.569,1.569,0,0,1,5.9,2.083V4.7h.649V.067H5.9V.744A1.881,1.881,0,0,0,4.457,0,1.4,1.4,0,0,0,3.118.744,1.88,1.88,0,0,0,1.631,0,1.445,1.445,0,0,0,0,1.539V4.7Z" transform="translate(13.426 1.777)" fill="#888"/>
          <path id="Path_82" data-name="Path 82" d="M2.4,6.473A4.452,4.452,0,0,0,4.111,6.14V0H3.462V1.936a2.939,2.939,0,0,0-1.328-.292A2.01,2.01,0,0,0,0,3.939,2.269,2.269,0,0,0,2.4,6.473ZM2.149,2.2a2.856,2.856,0,0,1,1.313.32v3.25A3.818,3.818,0,0,1,2.4,5.929c-1.115,0-1.764-.69-1.764-1.977C.636,2.824,1.167,2.2,2.149,2.2Z" transform="translate(8.032 0.133)" fill="#888"/>
          <path id="Path_83" data-name="Path 83" d="M3.295,2.455a1.621,1.621,0,0,1-1.71,1.8A1.976,1.976,0,0,1,.376,3.873V4.55a2.393,2.393,0,0,0,1.208.279A2.164,2.164,0,0,0,3.931,2.388C3.931.823,3.082,0,1.848,0S-.062.823,0,2.455ZM.641,1.911C.681,1.062,1.079.572,1.862.572A1.385,1.385,0,0,1,3.254,1.911Z" transform="translate(3.215 1.777)" fill="#888"/>
          <path id="Path_84" data-name="Path 84" d="M0,.624A1.18,1.18,0,0,1,.385.557C1.219.557,1.5,1.565,1.5,2.19V4.7h.649V.067H1.524V.716A1.232,1.232,0,0,0,.37,0,2.288,2.288,0,0,0,0,.026Z" transform="translate(0 1.777)" fill="#888"/>
        </g>
        <g id="Group_33" data-name="Group 33" transform="translate(0 0)">
          <path id="Path_85" data-name="Path 85" d="M0,6.273a4.633,4.633,0,0,0,1.79.333A2.964,2.964,0,0,0,4.868,3.3,2.964,2.964,0,0,0,1.79,0,5.382,5.382,0,0,0,0,.318v.7A3.87,3.87,0,0,1,1.764.6c1.445,0,2.4.888,2.4,2.706a2.39,2.39,0,0,1-2.4,2.706A3.6,3.6,0,0,1,0,5.6Z" transform="translate(49.433 0)" fill="#b100e8"/>
          <path id="Path_86" data-name="Path 86" d="M.664,4.7a3.567,3.567,0,0,0,.105-.544,2.433,2.433,0,0,0,1.764.677A1.452,1.452,0,0,0,4.152,3.342c0-2.108-3.329-.954-3.329-2.068,0-.5.582-.718,1.247-.718a2.991,2.991,0,0,1,1.592.479v-.6A2.775,2.775,0,0,0,2.029,0C1.115,0,.185.4.185,1.234V3.675A3.887,3.887,0,0,1,0,4.7ZM.836,2.162c.649.451,2.68-.039,2.68,1.208,0,.7-.558.915-1.074.915-.8,0-1.605-.5-1.605-1.115Z" transform="translate(44.395 1.777)" fill="#b100e8"/>
          <path id="Path_87" data-name="Path 87" d="M0,.624A1.18,1.18,0,0,1,.385.557C1.219.557,1.5,1.565,1.5,2.19V4.7h.649V.067H1.524V.716A1.232,1.232,0,0,0,.37,0,2.288,2.288,0,0,0,0,.026Z" transform="translate(41.136 1.777)" fill="#b100e8"/>
          <path id="Path_88" data-name="Path 88" d="M.636,6.34V5.4A1.894,1.894,0,0,0,2.268,6.473C3.3,6.473,4.1,5.809,4.1,4.137A2.211,2.211,0,0,0,1.8,1.644,2.748,2.748,0,0,0,.636,1.9V0H0V6.34Zm0-3.86A2.6,2.6,0,0,1,1.8,2.2c1.023,0,1.672.677,1.672,1.923,0,1.287-.544,1.8-1.247,1.8A1.866,1.866,0,0,1,.636,4.019Z" transform="translate(36.468 0.133)" fill="#b100e8"/>
          <path id="Path_89" data-name="Path 89" d="M.769,6.34,4.245,1.008V6.34h.69V0H4.165L.69,5.332V0H0V6.34Z" transform="translate(26.631 0.133)" fill="#b100e8"/>
          <path id="Path_90" data-name="Path 90" d="M.636,4.629v-.7a1.95,1.95,0,0,0,1.552.823A1.52,1.52,0,0,0,3.9,3.183V0H3.25V3.1A1,1,0,0,1,2.135,4.191a1.627,1.627,0,0,1-1.5-1.538V0H0V4.629Z" transform="translate(21.356 1.844)" fill="#b100e8"/>
          <path id="Path_91" data-name="Path 91" d="M.636,4.7V1.552a.892.892,0,0,1,.982-.98,1.325,1.325,0,0,1,1.3,1.286V4.7h.649V1.685c0-.6.213-1.114.982-1.114A1.569,1.569,0,0,1,5.9,2.083V4.7h.649V.067H5.9V.744A1.881,1.881,0,0,0,4.457,0,1.4,1.4,0,0,0,3.118.744,1.88,1.88,0,0,0,1.631,0,1.445,1.445,0,0,0,0,1.539V4.7Z" transform="translate(13.426 1.777)" fill="#b100e8"/>
          <path id="Path_92" data-name="Path 92" d="M2.4,6.473A4.452,4.452,0,0,0,4.111,6.14V0H3.462V1.936a2.939,2.939,0,0,0-1.328-.292A2.01,2.01,0,0,0,0,3.939,2.269,2.269,0,0,0,2.4,6.473ZM2.149,2.2a2.856,2.856,0,0,1,1.313.32v3.25A3.818,3.818,0,0,1,2.4,5.929c-1.115,0-1.764-.69-1.764-1.977C.636,2.824,1.167,2.2,2.149,2.2Z" transform="translate(8.032 0.133)" fill="#b100e8"/>
          <path id="Path_93" data-name="Path 93" d="M3.295,2.455a1.621,1.621,0,0,1-1.71,1.8A1.976,1.976,0,0,1,.376,3.873V4.55a2.393,2.393,0,0,0,1.208.279A2.164,2.164,0,0,0,3.931,2.388C3.931.823,3.082,0,1.848,0S-.062.823,0,2.455ZM.641,1.911C.681,1.062,1.079.572,1.862.572A1.385,1.385,0,0,1,3.254,1.911Z" transform="translate(3.215 1.777)" fill="#b100e8"/>
          <path id="Path_94" data-name="Path 94" d="M0,.624A1.18,1.18,0,0,1,.385.557C1.219.557,1.5,1.565,1.5,2.19V4.7h.649V.067H1.524V.716A1.232,1.232,0,0,0,.37,0,2.288,2.288,0,0,0,0,.026Z" transform="translate(0 1.777)" fill="#b100e8"/>
        </g>
        <g id="Group_34" data-name="Group 34" transform="translate(0 0)">
          <path id="Path_95" data-name="Path 95" d="M0,6.273a4.633,4.633,0,0,0,1.79.333A2.964,2.964,0,0,0,4.868,3.3,2.964,2.964,0,0,0,1.79,0,5.382,5.382,0,0,0,0,.318v.7A3.87,3.87,0,0,1,1.764.6c1.445,0,2.4.888,2.4,2.706a2.39,2.39,0,0,1-2.4,2.706A3.6,3.6,0,0,1,0,5.6Z" transform="translate(49.433 0)" fill="#9600e0"/>
          <path id="Path_96" data-name="Path 96" d="M.664,4.7a3.567,3.567,0,0,0,.105-.544,2.433,2.433,0,0,0,1.764.677A1.452,1.452,0,0,0,4.152,3.342c0-2.108-3.329-.954-3.329-2.068,0-.5.582-.718,1.247-.718a2.991,2.991,0,0,1,1.592.479v-.6A2.775,2.775,0,0,0,2.029,0C1.115,0,.185.4.185,1.234V3.675A3.887,3.887,0,0,1,0,4.7ZM.836,2.162c.649.451,2.68-.039,2.68,1.208,0,.7-.558.915-1.074.915-.8,0-1.605-.5-1.605-1.115Z" transform="translate(44.395 1.777)" fill="#9600e0"/>
          <path id="Path_97" data-name="Path 97" d="M0,.624A1.18,1.18,0,0,1,.385.557C1.219.557,1.5,1.565,1.5,2.19V4.7h.649V.067H1.524V.716A1.232,1.232,0,0,0,.37,0,2.288,2.288,0,0,0,0,.026Z" transform="translate(41.136 1.777)" fill="#9600e0"/>
          <path id="Path_98" data-name="Path 98" d="M.636,6.34V5.4A1.894,1.894,0,0,0,2.268,6.473C3.3,6.473,4.1,5.809,4.1,4.137A2.211,2.211,0,0,0,1.8,1.644,2.748,2.748,0,0,0,.636,1.9V0H0V6.34Zm0-3.86A2.6,2.6,0,0,1,1.8,2.2c1.023,0,1.672.677,1.672,1.923,0,1.287-.544,1.8-1.247,1.8A1.866,1.866,0,0,1,.636,4.019Z" transform="translate(36.468 0.133)" fill="#9600e0"/>
          <path id="Path_99" data-name="Path 99" d="M.769,6.34,4.245,1.008V6.34h.69V0H4.165L.69,5.332V0H0V6.34Z" transform="translate(26.631 0.133)" fill="#9600e0"/>
          <path id="Path_100" data-name="Path 100" d="M.636,4.629v-.7a1.95,1.95,0,0,0,1.552.823A1.52,1.52,0,0,0,3.9,3.183V0H3.25V3.1A1,1,0,0,1,2.135,4.191a1.627,1.627,0,0,1-1.5-1.538V0H0V4.629Z" transform="translate(21.356 1.844)" fill="#9600e0"/>
          <path id="Path_101" data-name="Path 101" d="M.636,4.7V1.552a.892.892,0,0,1,.982-.98,1.325,1.325,0,0,1,1.3,1.286V4.7h.649V1.685c0-.6.213-1.114.982-1.114A1.569,1.569,0,0,1,5.9,2.083V4.7h.649V.067H5.9V.744A1.881,1.881,0,0,0,4.457,0,1.4,1.4,0,0,0,3.118.744,1.88,1.88,0,0,0,1.631,0,1.445,1.445,0,0,0,0,1.539V4.7Z" transform="translate(13.426 1.777)" fill="#9600e0"/>
          <path id="Path_102" data-name="Path 102" d="M2.4,6.473A4.452,4.452,0,0,0,4.111,6.14V0H3.462V1.936a2.939,2.939,0,0,0-1.328-.292A2.01,2.01,0,0,0,0,3.939,2.269,2.269,0,0,0,2.4,6.473ZM2.149,2.2a2.856,2.856,0,0,1,1.313.32v3.25A3.818,3.818,0,0,1,2.4,5.929c-1.115,0-1.764-.69-1.764-1.977C.636,2.824,1.167,2.2,2.149,2.2Z" transform="translate(8.032 0.133)" fill="#9600e0"/>
          <path id="Path_103" data-name="Path 103" d="M3.295,2.455a1.621,1.621,0,0,1-1.71,1.8A1.976,1.976,0,0,1,.376,3.873V4.55a2.393,2.393,0,0,0,1.208.279A2.164,2.164,0,0,0,3.931,2.388C3.931.823,3.082,0,1.848,0S-.062.823,0,2.455ZM.641,1.911C.681,1.062,1.079.572,1.862.572A1.385,1.385,0,0,1,3.254,1.911Z" transform="translate(3.215 1.777)" fill="#9600e0"/>
          <path id="Path_104" data-name="Path 104" d="M0,.624A1.18,1.18,0,0,1,.385.557C1.219.557,1.5,1.565,1.5,2.19V4.7h.649V.067H1.524V.716A1.232,1.232,0,0,0,.37,0,2.288,2.288,0,0,0,0,.026Z" transform="translate(0 1.777)" fill="#9600e0"/>
        </g>
      </g>
      <g id="Group_37" data-name="Group 37" transform="translate(145.612 103.703)">
        <g id="Group_36" data-name="Group 36" transform="translate(0 0)">
          <path id="Path_105" data-name="Path 105" d="M7.039,9.713V1.35A1.3,1.3,0,0,0,6.64.4,1.293,1.293,0,0,0,5.693,0H1.332A1.278,1.278,0,0,0,.394.4,1.311,1.311,0,0,0,0,1.35V9.713a1.3,1.3,0,0,0,.394.953,1.3,1.3,0,0,0,.953.4H5.693a1.289,1.289,0,0,0,.956-.4A1.3,1.3,0,0,0,7.039,9.713ZM1.38,9.664V1.417H5.641V9.664Z" transform="translate(41.362 0)" fill="#51637b"/>
          <path id="Path_106" data-name="Path 106" d="M4.637,9.645H1.4V6.216H5.626V0H.7a.67.67,0,0,0-.49.207A.674.674,0,0,0,0,.7a.668.668,0,0,0,.205.494A.671.671,0,0,0,.7,1.4H4.213v3.42H1.4a1.343,1.343,0,0,0-.98.416A1.345,1.345,0,0,0,0,6.216V9.645a1.347,1.347,0,0,0,.412.986,1.347,1.347,0,0,0,.986.413H4.637a2.327,2.327,0,0,0,.923-.209l1.058-.44a.657.657,0,0,0,.425-.666.7.7,0,0,0-.192-.5.618.618,0,0,0-.466-.2,1.172,1.172,0,0,0-.483.126l-.923.391A.661.661,0,0,1,4.637,9.645Z" transform="translate(30.883 0.018)" fill="#51637b"/>
          <path id="Path_107" data-name="Path 107" d="M.176,1.215l5.676,9.647a.463.463,0,0,0,.426.215.8.8,0,0,0,.51-.187.578.578,0,0,0,.237-.479,1.089,1.089,0,0,0-.167-.547L1.184.224A.489.489,0,0,0,.742,0a.814.814,0,0,0-.5.179A.558.558,0,0,0,0,.649,1.1,1.1,0,0,0,.176,1.215Z" transform="translate(20.588 0.009)" fill="#51637b"/>
          <path id="Path_108" data-name="Path 108" d="M.7,11.044H7.058V6.216a1.373,1.373,0,0,0-.412-1A1.343,1.343,0,0,0,5.659,4.8H1.413V1.4H6.406a.669.669,0,0,0,.5-.205A.678.678,0,0,0,7.106.7a.682.682,0,0,0-.2-.5.667.667,0,0,0-.5-.2H1.413a1.379,1.379,0,0,0-1,.411A1.347,1.347,0,0,0,0,1.4V4.8a1.361,1.361,0,0,0,.414,1,1.372,1.372,0,0,0,1,.413H5.659V9.645H.7a.682.682,0,0,0-.492.2.7.7,0,0,0,0,.991A.682.682,0,0,0,.7,11.044Z" transform="translate(10.446 0.018)" fill="#51637b"/>
          <path id="Path_109" data-name="Path 109" d="M4.637,9.645H1.4V6.216H5.626V0H.7a.671.671,0,0,0-.49.207A.674.674,0,0,0,0,.7a.668.668,0,0,0,.205.494A.671.671,0,0,0,.7,1.4H4.213v3.42H1.4a1.343,1.343,0,0,0-.98.416A1.345,1.345,0,0,0,0,6.216V9.645a1.347,1.347,0,0,0,.412.986,1.347,1.347,0,0,0,.986.413H4.637a2.326,2.326,0,0,0,.923-.209l1.058-.44a.657.657,0,0,0,.425-.666.7.7,0,0,0-.192-.5.618.618,0,0,0-.466-.2,1.172,1.172,0,0,0-.483.126l-.923.391A.661.661,0,0,1,4.637,9.645Z" transform="translate(0 0.018)" fill="#51637b"/>
        </g>
      </g>
      <g id="Group_41" data-name="Group 41" transform="translate(152.412 90.629)">
        <g id="Group_38" data-name="Group 38" transform="translate(0 0)">
          <path id="Path_110" data-name="Path 110" d="M2.495,6.34h.8L5.783,0H5.067L2.892,5.491.718,0H0Z" transform="translate(35.298 0)" fill="#888"/>
          <path id="Path_111" data-name="Path 111" d="M.664,4.7a3.564,3.564,0,0,0,.105-.544,2.434,2.434,0,0,0,1.764.677A1.453,1.453,0,0,0,4.152,3.342c0-2.108-3.329-.954-3.329-2.068,0-.5.582-.718,1.247-.718a2.986,2.986,0,0,1,1.592.479v-.6A2.774,2.774,0,0,0,2.029,0C1.116,0,.185.4.185,1.234V3.675A3.884,3.884,0,0,1,0,4.7ZM.836,2.162c.649.451,2.68-.039,2.68,1.207,0,.7-.558.915-1.075.915-.8,0-1.605-.505-1.605-1.115Z" transform="translate(31.941 1.644)" fill="#888"/>
          <path id="Path_112" data-name="Path 112" d="M.649,6.34V0H0V6.34Z" transform="translate(30.155 0)" fill="#888"/>
          <path id="Path_113" data-name="Path 113" d="M.649.834V0H0V.834Zm0,5.373V1.578H0V6.207Z" transform="translate(28.167 0.133)" fill="#888"/>
          <path id="Path_114" data-name="Path 114" d="M.636,6.34V5.4A1.893,1.893,0,0,0,2.268,6.473C3.3,6.473,4.1,5.809,4.1,4.137A2.211,2.211,0,0,0,1.8,1.644,2.749,2.749,0,0,0,.636,1.9V0H0V6.34Zm0-3.86A2.594,2.594,0,0,1,1.8,2.2c1.023,0,1.672.677,1.672,1.923,0,1.287-.544,1.8-1.247,1.8A1.866,1.866,0,0,1,.636,4.019Z" transform="translate(22.994 0)" fill="#888"/>
          <path id="Path_115" data-name="Path 115" d="M3.329,6.34H5.121V0H3.157C1.154,0,0,1.062,0,3.05,0,5.532,1.487,6.34,3.329,6.34ZM3.25.61H4.432V5.743H3.6C1.685,5.743.69,5.147.69,3.05.69,1.485,1.407.61,3.25.61Z" transform="translate(12.97 0)" fill="#888"/>
          <path id="Path_116" data-name="Path 116" d="M.664,4.7a3.561,3.561,0,0,0,.105-.544,2.433,2.433,0,0,0,1.764.677A1.453,1.453,0,0,0,4.152,3.342c0-2.108-3.329-.954-3.329-2.068,0-.5.583-.718,1.247-.718a2.987,2.987,0,0,1,1.593.479v-.6A2.776,2.776,0,0,0,2.029,0C1.115,0,.185.4.185,1.234V3.675A3.884,3.884,0,0,1,0,4.7ZM.836,2.162c.649.451,2.68-.039,2.68,1.207,0,.7-.558.915-1.074.915-.8,0-1.605-.505-1.605-1.115Z" transform="translate(8.052 1.644)" fill="#888"/>
          <path id="Path_117" data-name="Path 117" d="M0,5.929a3.133,3.133,0,0,0,.929.159,1.137,1.137,0,0,0,1.287-1.3V1.936h.662v-.57H2.216V0H1.565V1.367H.239v.57H1.565V4.67c0,.57-.131.875-.662.875A2.376,2.376,0,0,1,0,5.359Z" transform="translate(4.514 0.344)" fill="#888"/>
          <path id="Path_118" data-name="Path 118" d="M3.295,2.455a1.622,1.622,0,0,1-1.711,1.8A1.976,1.976,0,0,1,.376,3.873V4.55a2.392,2.392,0,0,0,1.208.279A2.164,2.164,0,0,0,3.931,2.388C3.931.823,3.082,0,1.848,0S-.062.823,0,2.455ZM.641,1.911C.681,1.062,1.08.572,1.862.572A1.385,1.385,0,0,1,3.254,1.911Z" transform="translate(0 1.644)" fill="#888"/>
        </g>
        <g id="Group_39" data-name="Group 39" transform="translate(0 0)">
          <path id="Path_119" data-name="Path 119" d="M2.495,6.34h.8L5.783,0H5.067L2.892,5.491.718,0H0Z" transform="translate(35.298 0)" fill="#b100e8"/>
          <path id="Path_120" data-name="Path 120" d="M.664,4.7a3.564,3.564,0,0,0,.105-.544,2.434,2.434,0,0,0,1.764.677A1.453,1.453,0,0,0,4.152,3.342c0-2.108-3.329-.954-3.329-2.068,0-.5.582-.718,1.247-.718a2.986,2.986,0,0,1,1.592.479v-.6A2.774,2.774,0,0,0,2.029,0C1.116,0,.185.4.185,1.234V3.675A3.884,3.884,0,0,1,0,4.7ZM.836,2.162c.649.451,2.68-.039,2.68,1.207,0,.7-.558.915-1.075.915-.8,0-1.605-.505-1.605-1.115Z" transform="translate(31.941 1.644)" fill="#b100e8"/>
          <path id="Path_121" data-name="Path 121" d="M.649,6.34V0H0V6.34Z" transform="translate(30.155 0)" fill="#b100e8"/>
          <path id="Path_122" data-name="Path 122" d="M.649.834V0H0V.834Zm0,5.373V1.578H0V6.207Z" transform="translate(28.167 0.133)" fill="#b100e8"/>
          <path id="Path_123" data-name="Path 123" d="M.636,6.34V5.4A1.893,1.893,0,0,0,2.268,6.473C3.3,6.473,4.1,5.809,4.1,4.137A2.211,2.211,0,0,0,1.8,1.644,2.749,2.749,0,0,0,.636,1.9V0H0V6.34Zm0-3.86A2.594,2.594,0,0,1,1.8,2.2c1.023,0,1.672.677,1.672,1.923,0,1.287-.544,1.8-1.247,1.8A1.866,1.866,0,0,1,.636,4.019Z" transform="translate(22.994 0)" fill="#b100e8"/>
          <path id="Path_124" data-name="Path 124" d="M3.329,6.34H5.121V0H3.157C1.154,0,0,1.062,0,3.05,0,5.532,1.487,6.34,3.329,6.34ZM3.25.61H4.432V5.743H3.6C1.685,5.743.69,5.147.69,3.05.69,1.485,1.407.61,3.25.61Z" transform="translate(12.97 0)" fill="#b100e8"/>
          <path id="Path_125" data-name="Path 125" d="M.664,4.7a3.561,3.561,0,0,0,.105-.544,2.433,2.433,0,0,0,1.764.677A1.453,1.453,0,0,0,4.152,3.342c0-2.108-3.329-.954-3.329-2.068,0-.5.583-.718,1.247-.718a2.987,2.987,0,0,1,1.593.479v-.6A2.776,2.776,0,0,0,2.029,0C1.115,0,.185.4.185,1.234V3.675A3.884,3.884,0,0,1,0,4.7ZM.836,2.162c.649.451,2.68-.039,2.68,1.207,0,.7-.558.915-1.074.915-.8,0-1.605-.505-1.605-1.115Z" transform="translate(8.052 1.644)" fill="#b100e8"/>
          <path id="Path_126" data-name="Path 126" d="M0,5.929a3.133,3.133,0,0,0,.929.159,1.137,1.137,0,0,0,1.287-1.3V1.936h.662v-.57H2.216V0H1.565V1.367H.239v.57H1.565V4.67c0,.57-.131.875-.662.875A2.376,2.376,0,0,1,0,5.359Z" transform="translate(4.514 0.344)" fill="#b100e8"/>
          <path id="Path_127" data-name="Path 127" d="M3.295,2.455a1.622,1.622,0,0,1-1.711,1.8A1.976,1.976,0,0,1,.376,3.873V4.55a2.392,2.392,0,0,0,1.208.279A2.164,2.164,0,0,0,3.931,2.388C3.931.823,3.082,0,1.848,0S-.062.823,0,2.455ZM.641,1.911C.681,1.062,1.08.572,1.862.572A1.385,1.385,0,0,1,3.254,1.911Z" transform="translate(0 1.644)" fill="#b100e8"/>
        </g>
        <g id="Group_40" data-name="Group 40" transform="translate(0 0)">
          <path id="Path_128" data-name="Path 128" d="M2.495,6.34h.8L5.783,0H5.067L2.892,5.491.718,0H0Z" transform="translate(35.298 0)" fill="#9600e0"/>
          <path id="Path_129" data-name="Path 129" d="M.664,4.7a3.564,3.564,0,0,0,.105-.544,2.434,2.434,0,0,0,1.764.677A1.453,1.453,0,0,0,4.152,3.342c0-2.108-3.329-.954-3.329-2.068,0-.5.582-.718,1.247-.718a2.986,2.986,0,0,1,1.592.479v-.6A2.774,2.774,0,0,0,2.029,0C1.116,0,.185.4.185,1.234V3.675A3.884,3.884,0,0,1,0,4.7ZM.836,2.162c.649.451,2.68-.039,2.68,1.207,0,.7-.558.915-1.075.915-.8,0-1.605-.505-1.605-1.115Z" transform="translate(31.941 1.644)" fill="#9600e0"/>
          <path id="Path_130" data-name="Path 130" d="M.649,6.34V0H0V6.34Z" transform="translate(30.155 0)" fill="#9600e0"/>
          <path id="Path_131" data-name="Path 131" d="M.649.834V0H0V.834Zm0,5.373V1.578H0V6.207Z" transform="translate(28.167 0.133)" fill="#9600e0"/>
          <path id="Path_132" data-name="Path 132" d="M.636,6.34V5.4A1.893,1.893,0,0,0,2.268,6.473C3.3,6.473,4.1,5.809,4.1,4.137A2.211,2.211,0,0,0,1.8,1.644,2.749,2.749,0,0,0,.636,1.9V0H0V6.34Zm0-3.86A2.594,2.594,0,0,1,1.8,2.2c1.023,0,1.672.677,1.672,1.923,0,1.287-.544,1.8-1.247,1.8A1.866,1.866,0,0,1,.636,4.019Z" transform="translate(22.994 0)" fill="#9600e0"/>
          <path id="Path_133" data-name="Path 133" d="M3.329,6.34H5.121V0H3.157C1.154,0,0,1.062,0,3.05,0,5.532,1.487,6.34,3.329,6.34ZM3.25.61H4.432V5.743H3.6C1.685,5.743.69,5.147.69,3.05.69,1.485,1.407.61,3.25.61Z" transform="translate(12.97 0)" fill="#9600e0"/>
          <path id="Path_134" data-name="Path 134" d="M.664,4.7a3.561,3.561,0,0,0,.105-.544,2.433,2.433,0,0,0,1.764.677A1.453,1.453,0,0,0,4.152,3.342c0-2.108-3.329-.954-3.329-2.068,0-.5.583-.718,1.247-.718a2.987,2.987,0,0,1,1.593.479v-.6A2.776,2.776,0,0,0,2.029,0C1.115,0,.185.4.185,1.234V3.675A3.884,3.884,0,0,1,0,4.7ZM.836,2.162c.649.451,2.68-.039,2.68,1.207,0,.7-.558.915-1.074.915-.8,0-1.605-.505-1.605-1.115Z" transform="translate(8.052 1.644)" fill="#9600e0"/>
          <path id="Path_135" data-name="Path 135" d="M0,5.929a3.133,3.133,0,0,0,.929.159,1.137,1.137,0,0,0,1.287-1.3V1.936h.662v-.57H2.216V0H1.565V1.367H.239v.57H1.565V4.67c0,.57-.131.875-.662.875A2.376,2.376,0,0,1,0,5.359Z" transform="translate(4.514 0.344)" fill="#9600e0"/>
          <path id="Path_136" data-name="Path 136" d="M3.295,2.455a1.622,1.622,0,0,1-1.711,1.8A1.976,1.976,0,0,1,.376,3.873V4.55a2.392,2.392,0,0,0,1.208.279A2.164,2.164,0,0,0,3.931,2.388C3.931.823,3.082,0,1.848,0S-.062.823,0,2.455ZM.641,1.911C.681,1.062,1.08.572,1.862.572A1.385,1.385,0,0,1,3.254,1.911Z" transform="translate(0 1.644)" fill="#9600e0"/>
        </g>
      </g>
      <g id="Group_43" data-name="Group 43" transform="translate(79.143 102.818)">
        <g id="Group_42" data-name="Group 42" transform="translate(0 0)">
          <path id="Path_137" data-name="Path 137" d="M.7,11.043H7.058V6.216a1.376,1.376,0,0,0-.412-1A1.343,1.343,0,0,0,5.659,4.8H1.413V1.4H6.406a.669.669,0,0,0,.5-.206A.675.675,0,0,0,7.106.7a.682.682,0,0,0-.2-.5.667.667,0,0,0-.5-.2H1.413a1.378,1.378,0,0,0-1,.41A1.346,1.346,0,0,0,0,1.4V4.8a1.361,1.361,0,0,0,.414,1,1.374,1.374,0,0,0,1,.412H5.659V9.645H.7a.684.684,0,0,0-.492.2.7.7,0,0,0,0,.991A.684.684,0,0,0,.7,11.043Z" transform="translate(20.609 0.019)" fill="#51637b"/>
          <path id="Path_138" data-name="Path 138" d="M2.1,10.363V7.45H6.309V.718A.689.689,0,0,0,6.1.213.69.69,0,0,0,5.593,0,.674.674,0,0,0,5.1.213a.708.708,0,0,0-.207.5V6.035H2.1V1.94a.7.7,0,0,0-.2-.5.661.661,0,0,0-.5-.213.66.66,0,0,0-.5.213.7.7,0,0,0-.2.5V6.035a.681.681,0,0,0-.5.2.705.705,0,0,0,0,.992.681.681,0,0,0,.5.2v2.929a.676.676,0,0,0,.207.5.686.686,0,0,0,.492.2.694.694,0,0,0,.7-.7Z" transform="translate(10.686 0)" fill="#51637b"/>
          <path id="Path_139" data-name="Path 139" d="M.019,1.4v2.62A2,2,0,0,0,.585,5.5,2.08,2.08,0,0,0,0,6.915v2.73a1.338,1.338,0,0,0,.418.986,1.367,1.367,0,0,0,1,.412H6.358a.7.7,0,1,0,0-1.4H1.431V6.915a.7.7,0,0,1,.205-.5A.659.659,0,0,1,2.131,6.2H4.946A.677.677,0,0,0,5.439,6a.7.7,0,0,0-.494-1.2H2.116a.686.686,0,0,1-.492-.2.671.671,0,0,1-.207-.5V1.4H6.41A.669.669,0,0,0,6.9,1.192.666.666,0,0,0,7.11.7.673.673,0,0,0,6.9.2.666.666,0,0,0,6.41,0H1.417A1.346,1.346,0,0,0,.425.41,1.353,1.353,0,0,0,.019,1.4Z" transform="translate(0 0.019)" fill="#51637b"/>
        </g>
      </g>
      <g id="Group_47" data-name="Group 47" transform="translate(94.896 91.39)">
        <g id="Group_44" data-name="Group 44" transform="translate(0 0)">
          <path id="Path_140" data-name="Path 140" d="M0,4.642a5.291,5.291,0,0,0,1.339.187,2.142,2.142,0,0,0,2.308-2.4A2.144,2.144,0,0,0,1.3,0,5.63,5.63,0,0,0,0,.159v.61A4.483,4.483,0,0,1,1.326.584c1.208,0,1.685.69,1.685,1.844A1.624,1.624,0,0,1,1.3,4.257,3.375,3.375,0,0,1,0,4.006Z" transform="translate(9.506 0)" fill="#888"/>
          <path id="Path_141" data-name="Path 141" d="M1.936,4.629h.623L4.509,0H3.834L2.254,3.767.664,0H0Z" transform="translate(4.574 0.067)" fill="#888"/>
          <path id="Path_142" data-name="Path 142" d="M1.937,4.629H2.56L4.509,0H3.834L2.255,3.767.664,0H0Z" transform="translate(0 0.067)" fill="#888"/>
        </g>
        <g id="Group_45" data-name="Group 45" transform="translate(0 0)">
          <path id="Path_143" data-name="Path 143" d="M0,4.642a5.291,5.291,0,0,0,1.339.187,2.142,2.142,0,0,0,2.308-2.4A2.144,2.144,0,0,0,1.3,0,5.63,5.63,0,0,0,0,.159v.61A4.483,4.483,0,0,1,1.326.584c1.208,0,1.685.69,1.685,1.844A1.624,1.624,0,0,1,1.3,4.257,3.375,3.375,0,0,1,0,4.006Z" transform="translate(9.506 0)" fill="#b100e8"/>
          <path id="Path_144" data-name="Path 144" d="M1.936,4.629h.623L4.509,0H3.834L2.254,3.767.664,0H0Z" transform="translate(4.574 0.067)" fill="#b100e8"/>
          <path id="Path_145" data-name="Path 145" d="M1.937,4.629H2.56L4.509,0H3.834L2.255,3.767.664,0H0Z" transform="translate(0 0.067)" fill="#b100e8"/>
        </g>
        <g id="Group_46" data-name="Group 46" transform="translate(0 0)">
          <path id="Path_146" data-name="Path 146" d="M0,4.642a5.291,5.291,0,0,0,1.339.187,2.142,2.142,0,0,0,2.308-2.4A2.144,2.144,0,0,0,1.3,0,5.63,5.63,0,0,0,0,.159v.61A4.483,4.483,0,0,1,1.326.584c1.208,0,1.685.69,1.685,1.844A1.624,1.624,0,0,1,1.3,4.257,3.375,3.375,0,0,1,0,4.006Z" transform="translate(9.506 0)" fill="#9600e0"/>
          <path id="Path_147" data-name="Path 147" d="M1.936,4.629h.623L4.509,0H3.834L2.254,3.767.664,0H0Z" transform="translate(4.574 0.067)" fill="#9600e0"/>
          <path id="Path_148" data-name="Path 148" d="M1.937,4.629H2.56L4.509,0H3.834L2.255,3.767.664,0H0Z" transform="translate(0 0.067)" fill="#9600e0"/>
        </g>
      </g>
      <g id="Group_49" data-name="Group 49" transform="translate(44.251 0)">
        <g id="Group_48" data-name="Group 48" transform="translate(0 0)">
          <path id="Path_149" data-name="Path 149" d="M0,12.469a9.669,9.669,0,0,0,3.98.742c4.085,0,6.553-2.386,6.553-6.6S8.012,0,3.98,0A10.348,10.348,0,0,0,0,.718V2.785A9.657,9.657,0,0,1,3.926,1.91c2.76,0,4.4,1.513,4.4,4.7s-1.936,4.722-4.4,4.722A9.535,9.535,0,0,1,0,10.425Z" transform="translate(138.8 0)" fill="#51637b"/>
          <path id="Path_150" data-name="Path 150" d="M2.175,12.68V7.135h6V12.68h2.175V0H8.171V5.2h-6V0H0V12.68Z" transform="translate(125.729 0.266)" fill="#51637b"/>
          <path id="Path_151" data-name="Path 151" d="M8.887,12.68V0H0V1.883H6.712V5.2H.557V7.135H6.712V10.8H0V12.68Z" transform="translate(113.719 0.266)" fill="#51637b"/>
          <path id="Path_152" data-name="Path 152" d="M2.042,12.68,8.489,3.607V12.68h2.175V0H8.648L2.2,9.046V0H0V12.68Z" transform="translate(101.019 0.266)" fill="#51637b"/>
          <path id="Path_153" data-name="Path 153" d="M2.175,12.68V7.135h6V12.68h2.175V0H8.171V5.2h-6V0H0V12.68Z" transform="translate(80.469 0.266)" fill="#51637b"/>
          <path id="Path_154" data-name="Path 154" d="M0,7.931c0,3.105,1.7,5.014,5.173,5.014s5.173-1.909,5.173-5.014V0H8.171V7.931c0,2.018-.982,3.131-3,3.131s-3-1.114-3-3.131V0H0Z" transform="translate(66.999 0.266)" fill="#51637b"/>
          <path id="Path_155" data-name="Path 155" d="M2.042,12.68,8.489,3.607V12.68h2.175V0H8.648L2.2,9.046V0H0V12.68Z" transform="translate(53.318 0.266)" fill="#51637b"/>
          <path id="Path_156" data-name="Path 156" d="M0,12.256a11.523,11.523,0,0,0,4.855.954c4.086,0,6.686-2.386,6.686-6.6S8.861,0,4.855,0A12.089,12.089,0,0,0,.744.718V2.759A9.842,9.842,0,0,1,4.8,1.91c2.678,0,4.535,1.513,4.535,4.7S7.322,11.328,4.8,11.328a10.76,10.76,0,0,1-2.6-.318V7.137H5.414V5.252H0Z" transform="translate(39.37 0)" fill="#51637b"/>
          <path id="Path_157" data-name="Path 157" d="M4.827,1.724V0H0V1.724Z" transform="translate(32.667 7.322)" fill="#51637b"/>
          <path id="Path_158" data-name="Path 158" d="M0,9.02c0,2.706,1.672,3.925,4.511,3.925A8.352,8.352,0,0,0,7.084,12.5V10.372a5.466,5.466,0,0,1-2.627.715c-1.405,0-2.254-.662-2.254-1.909V0H0Z" transform="translate(24.685 0.266)" fill="#51637b"/>
          <path id="Path_159" data-name="Path 159" d="M8.887,12.68V0H0V1.883H6.712V5.2H.557V7.135H6.712V10.8H0V12.68Z" transform="translate(12.7 0.266)" fill="#51637b"/>
          <path id="Path_160" data-name="Path 160" d="M2.042,12.68,8.489,3.607V12.68h2.175V0H8.648L2.2,9.046V0H0V12.68Z" transform="translate(0 0.266)" fill="#51637b"/>
        </g>
      </g>
    </g>
    <rect id="Rectangle_20" data-name="Rectangle 20" width="164.001" height="65.459" rx="10.25" transform="translate(19.251 30.578)" fill="#b5c0cf"/>
  </g>
</svg>
