<svg id="Group_51" data-name="Group 51" xmlns="http://www.w3.org/2000/svg" xmlns:xlink="http://www.w3.org/1999/xlink" width="184.376" height="115.958" viewBox="0 0 184.376 115.958">
  <defs>
    <clipPath id="clip-path">
      <rect id="Rectangle_19" data-name="Rectangle 19" width="184.376" height="115.958" rx="10" fill="none"/>
    </clipPath>
    <filter id="Rectangle_16">
      <feOffset dx="3" dy="3" input="SourceAlpha"/>
      <feGaussianBlur stdDeviation="4" result="blur"/>
      <feFlood flood-color="#fff" result="color"/>
      <feComposite operator="out" in="SourceGraphic" in2="blur"/>
      <feComposite operator="in" in="color"/>
      <feComposite operator="in" in2="SourceGraphic"/>
    </filter>
  </defs>
  <g id="Mask_Group_1" data-name="Mask Group 1" clip-path="url(#clip-path)">
    <g data-type="innerShadowGroup">
      <rect id="Rectangle_16-2" data-name="Rectangle 16" width="184.376" height="115.958" rx="10" fill="#f2f2f2"/>
      <g transform="matrix(1, 0, 0, 1, 0, 0)" filter="url(#Rectangle_16)">
        <rect id="Rectangle_16-3" data-name="Rectangle 16" width="184.376" height="115.958" rx="10" fill="#fff"/>
      </g>
    </g>
    <g id="Group_28" data-name="Group 28" transform="translate(146.096 5.513)">
      <path id="Path_53" data-name="Path 53" d="M61.43,39.554l-9.07-9.07L51.3,31.542a.641.641,0,0,1-.907,0l-2.116-2.116a.641.641,0,0,1,0-.907l2.108-2.108a2.792,2.792,0,0,1,3.948,0L65.5,37.58a2.791,2.791,0,0,1,0,3.948L62.941,44.09l-3.023-3.023Z" transform="translate(-38.399 -25.593)" fill="#eaeaea"/>
      <path id="Path_54" data-name="Path 54" d="M99.687,72.883l2.108-2.108a.641.641,0,0,1,.907,0l2.116,2.116a.641.641,0,0,1,0,.907l-1.058,1.058,9.07,9.071h0l3.023,3.023L114.8,88a2.792,2.792,0,0,1-3.948,0l-11.17-11.17A2.792,2.792,0,0,1,99.687,72.883Z" transform="translate(-98.869 -60.896)" fill="#eaeaea"/>
      <path id="Path_55" data-name="Path 55" d="M127.767,132.98a2.792,2.792,0,0,1,0-3.948l2.108-2.108a.641.641,0,0,1,.907,0l2.116,2.116a.641.641,0,0,1,0,.907l-1.058,1.058,6.046,6.046-3.023,3.023Z" transform="translate(-126.949 -104.951)" fill="#eaeaea"/>
      <path id="Path_56" data-name="Path 56" d="M52.36,104.773l9.07-9.07-.307-.307h0l-7.573-7.573h0l-1.19-1.19L51.3,87.69a.641.641,0,0,1-.907,0l-2.116-2.116a.641.641,0,0,1,0-.907l2.108-2.108a2.791,2.791,0,0,1,3.948,0l3.251,3.251h0l4.535,4.535h0L65.5,93.729a2.791,2.791,0,0,1,0,3.948l-11.17,11.17a2.791,2.791,0,0,1-3.948,0l-1.05-1.05,3.023-3.023Z" transform="translate(-38.399 -69.648)" fill="#eaeaea"/>
      <rect id="Rectangle_17" data-name="Rectangle 17" width="10.71" height="0.001" transform="translate(22.725 25.748) rotate(-135)" fill="#eaeaea"/>
      <rect id="Rectangle_18" data-name="Rectangle 18" width="6.414" height="0.001" transform="translate(23.72 20.698) rotate(-135)" fill="#eaeaea"/>
    </g>
    <g id="Group_29" data-name="Group 29" transform="translate(7.761 89.94)">
      <path id="Path_57" data-name="Path 57" d="M785.485,426.618a.566.566,0,0,0,.566-.566v-7.923a.566.566,0,0,0-1.132,0v7.923A.566.566,0,0,0,785.485,426.618Z" transform="translate(-778.501 -417.563)" fill="#51637b"/>
      <path id="Path_58" data-name="Path 58" d="M762.107,440.236a6.982,6.982,0,0,0,2.619-13.455.566.566,0,1,0-.424,1.049,5.852,5.852,0,1,1-4.389,0,.566.566,0,0,0-.424-1.049,6.982,6.982,0,0,0,2.619,13.455Z" transform="translate(-755.123 -424.763)" fill="#51637b"/>
    </g>
    <g id="Group_50" data-name="Group 50" transform="translate(95.807 59.139)">
      <g id="Group_31" data-name="Group 31" transform="translate(0 19.162)">
        <g id="Group_30" data-name="Group 30">
          <path id="Path_59" data-name="Path 59" d="M51.538,367.98h.282a.282.282,0,0,0,.2-.482.274.274,0,0,0-.2-.082v-1.862h1.986a.287.287,0,0,0,.282-.282v-1.463a.289.289,0,0,0-.282-.282H51.538a.288.288,0,0,0-.282.282V367.7a.28.28,0,0,0,.282.282Zm.274-3V364.1h1.712v.886Z" transform="translate(23.441 -363.527)" fill="#51637b"/>
          <path id="Path_60" data-name="Path 60" d="M70.656,368.015h2.563v-1.946a.553.553,0,0,0-.166-.4.542.542,0,0,0-.4-.168H70.943v-1.372h2.013a.269.269,0,0,0,.2-.082.289.289,0,0,0,0-.4.269.269,0,0,0-.2-.082H70.943a.556.556,0,0,0-.4.165.544.544,0,0,0-.167.4V365.5a.57.57,0,0,0,.569.571h1.712v1.382h-2a.272.272,0,0,0-.2.082.269.269,0,0,0-.083.2.272.272,0,0,0,.083.2A.279.279,0,0,0,70.656,368.015Z" transform="translate(0.173 -363.554)" fill="#51637b"/>
          <path id="Path_61" data-name="Path 61" d="M89.675,364.126v1.057a.805.805,0,0,0,.228.6.84.84,0,0,0-.236.571v1.1a.539.539,0,0,0,.168.4.548.548,0,0,0,.4.167h1.992a.28.28,0,0,0,.282-.282.28.28,0,0,0-.282-.282H90.245v-1.1a.28.28,0,0,1,.083-.2.263.263,0,0,1,.2-.086h1.135a.273.273,0,0,0,.2-.081.269.269,0,0,0,.083-.2.281.281,0,0,0-.282-.282H90.521a.273.273,0,0,1-.2-.082.268.268,0,0,1-.084-.2v-1.09h2.013a.281.281,0,0,0,.282-.282.273.273,0,0,0-.083-.2.268.268,0,0,0-.2-.082H90.239a.563.563,0,0,0-.564.564Z" transform="translate(-23.278 -363.554)" fill="#51637b"/>
          <path id="Path_62" data-name="Path 62" d="M110.544,367.705V366.53h1.7v-2.714a.275.275,0,0,0-.086-.2.279.279,0,0,0-.2-.087.273.273,0,0,0-.2.087.283.283,0,0,0-.084.2v2.144h-1.127V364.31a.283.283,0,0,0-.082-.2.274.274,0,0,0-.4,0,.283.283,0,0,0-.082.2v1.651a.28.28,0,0,0-.282.282.28.28,0,0,0,.282.282v1.181a.274.274,0,0,0,.083.2.28.28,0,0,0,.2.082.28.28,0,0,0,.282-.282Z" transform="translate(-47.301 -363.527)" fill="#51637b"/>
          <path id="Path_63" data-name="Path 63" d="M149.709,367.451H148.4v-1.382h1.7v-2.507h-1.986a.282.282,0,0,0-.2.482.269.269,0,0,0,.2.082h1.417v1.379H148.4a.573.573,0,0,0-.563.563v1.382a.569.569,0,0,0,.563.564h1.305a.944.944,0,0,0,.372-.085l.426-.177a.264.264,0,0,0,.171-.268.284.284,0,0,0-.078-.2.252.252,0,0,0-.188-.082.472.472,0,0,0-.195.051l-.372.158A.265.265,0,0,1,149.709,367.451Z" transform="translate(-93.953 -363.554)" fill="#51637b"/>
          <path id="Path_64" data-name="Path 64" d="M169.38,363.562H169.1a.282.282,0,1,0,0,.564v1.863h-1.986a.269.269,0,0,0-.2.085.28.28,0,0,0-.084.2v1.457a.27.27,0,0,0,.085.2.289.289,0,0,0,.2.082h2.262a.279.279,0,0,0,.2-.085.265.265,0,0,0,.085-.2v-3.889a.271.271,0,0,0-.083-.2A.279.279,0,0,0,169.38,363.562Zm-.276,3v.893h-1.7v-.893Z" transform="translate(-117.032 -363.554)" fill="#51637b"/>
          <path id="Path_65" data-name="Path 65" d="M188.872,364.113v-.242a.267.267,0,0,0-.082-.2.271.271,0,0,0-.2-.083h-2.556v1.731a.287.287,0,0,0,.1.228l1.037.886v1.312a.279.279,0,0,0,.082.2.263.263,0,0,0,.2.087.278.278,0,0,0,.2-.085.266.266,0,0,0,.085-.2v-1.422a.312.312,0,0,0-.1-.249L186.6,365.2v-1.051h1.7a.275.275,0,0,0,.282.241.28.28,0,0,0,.282-.282Z" transform="translate(-140.373 -363.576)" fill="#51637b"/>
          <path id="Path_66" data-name="Path 66" d="M208.11,367.443v-1.375a.537.537,0,0,0-.169-.4.55.55,0,0,0-.4-.165v-1.661a.276.276,0,0,0-.081-.2.268.268,0,0,0-.2-.082H206.11a.28.28,0,0,0-.282.282v1.661a.552.552,0,0,0-.4.162.538.538,0,0,0-.167.4v1.382a.57.57,0,0,0,.564.564h1.71a.538.538,0,0,0,.4-.174A.563.563,0,0,0,208.11,367.443Zm-.571-1.375v1.382h-1.71v-1.382Zm-.564-1.943v1.379h-.583v-1.379Z" transform="translate(-163.753 -363.554)" fill="#51637b"/>
          <path id="Path_67" data-name="Path 67" d="M244.2,367.98h.282a.282.282,0,0,0,.2-.482.274.274,0,0,0-.2-.082v-1.862h1.986a.287.287,0,0,0,.282-.282v-1.463a.289.289,0,0,0-.282-.282H244.2a.288.288,0,0,0-.282.282V367.7a.28.28,0,0,0,.282.282Zm.274-3V364.1h1.712v.886Z" transform="translate(-210.725 -363.527)" fill="#51637b"/>
          <path id="Path_68" data-name="Path 68" d="M265.909,367.443v-1.375a.537.537,0,0,0-.169-.4.55.55,0,0,0-.4-.165v-1.661a.276.276,0,0,0-.081-.2.269.269,0,0,0-.2-.082h-1.147a.28.28,0,0,0-.282.282v1.661a.552.552,0,0,0-.4.162.539.539,0,0,0-.167.4v1.382a.57.57,0,0,0,.564.564h1.71a.538.538,0,0,0,.4-.174A.563.563,0,0,0,265.909,367.443Zm-.571-1.375v1.382h-1.71v-1.382Zm-.564-1.943v1.379h-.583v-1.379Z" transform="translate(-234.002 -363.554)" fill="#51637b"/>
          <path id="Path_69" data-name="Path 69" d="M285.2,364.113v-.242a.267.267,0,0,0-.082-.2.271.271,0,0,0-.2-.083h-2.556v1.731a.287.287,0,0,0,.1.228l1.037.886v1.312a.279.279,0,0,0,.082.2.264.264,0,0,0,.2.087.279.279,0,0,0,.2-.085.265.265,0,0,0,.085-.2v-1.422a.311.311,0,0,0-.1-.249l-1.041-.878v-1.051h1.7a.275.275,0,0,0,.282.241.28.28,0,0,0,.282-.282Z" transform="translate(-257.453 -363.576)" fill="#51637b"/>
          <path id="Path_70" data-name="Path 70" d="M304.244,363.562h-.282a.282.282,0,1,0,0,.564v1.863h-1.986a.269.269,0,0,0-.2.085.28.28,0,0,0-.084.2v1.457a.27.27,0,0,0,.085.2.289.289,0,0,0,.2.082h2.262a.279.279,0,0,0,.2-.085.265.265,0,0,0,.085-.2v-3.889a.271.271,0,0,0-.083-.2A.28.28,0,0,0,304.244,363.562Zm-.276,3v.893h-1.7v-.893Z" transform="translate(-280.945 -363.554)" fill="#51637b"/>
          <path id="Path_71" data-name="Path 71" d="M342.372,367.451h-1.305v-1.382h1.7v-2.507h-1.986a.282.282,0,0,0-.2.482.27.27,0,0,0,.2.082H342.2v1.379h-1.135a.573.573,0,0,0-.563.563v1.382a.569.569,0,0,0,.563.564h1.305a.944.944,0,0,0,.372-.085l.426-.177a.264.264,0,0,0,.171-.268.284.284,0,0,0-.078-.2.252.252,0,0,0-.188-.082.472.472,0,0,0-.195.051l-.372.158A.265.265,0,0,1,342.372,367.451Z" transform="translate(-328.115 -363.554)" fill="#51637b"/>
          <path id="Path_72" data-name="Path 72" d="M361.007,367.705V366.53h1.7v-2.714a.276.276,0,0,0-.086-.2.279.279,0,0,0-.2-.087.273.273,0,0,0-.2.087.283.283,0,0,0-.084.2v2.144h-1.127V364.31a.282.282,0,0,0-.082-.2.274.274,0,0,0-.4,0,.282.282,0,0,0-.082.2v1.651a.28.28,0,0,0-.282.282.28.28,0,0,0,.282.282v1.181a.274.274,0,0,0,.083.2.281.281,0,0,0,.2.082.28.28,0,0,0,.282-.282Z" transform="translate(-351.711 -363.527)" fill="#51637b"/>
          <path id="Path_73" data-name="Path 73" d="M378.67,364.126v1.057a.806.806,0,0,0,.228.6.84.84,0,0,0-.236.571v1.1a.538.538,0,0,0,.169.4.548.548,0,0,0,.4.167h1.992a.28.28,0,0,0,.282-.282.28.28,0,0,0-.282-.282h-1.986v-1.1a.279.279,0,0,1,.083-.2.262.262,0,0,1,.2-.086h1.135a.272.272,0,0,0,.2-.081.27.27,0,0,0,.083-.2.282.282,0,0,0-.282-.282h-1.141a.273.273,0,0,1-.2-.082.269.269,0,0,1-.083-.2v-1.09h2.013a.281.281,0,0,0,.282-.282.273.273,0,0,0-.083-.2.269.269,0,0,0-.2-.082h-2.013a.562.562,0,0,0-.564.564Z" transform="translate(-374.52 -363.554)" fill="#51637b"/>
          <path id="Path_74" data-name="Path 74" d="M398.183,368.015h2.563v-1.946a.553.553,0,0,0-.166-.4.541.541,0,0,0-.4-.168H398.47v-1.372h2.013a.269.269,0,0,0,.2-.082.289.289,0,0,0,0-.4.269.269,0,0,0-.2-.082H398.47a.556.556,0,0,0-.4.165.544.544,0,0,0-.167.4V365.5a.57.57,0,0,0,.569.571h1.712v1.382h-2a.272.272,0,0,0-.2.082.269.269,0,0,0-.083.2.271.271,0,0,0,.083.2A.279.279,0,0,0,398.183,368.015Z" transform="translate(-397.901 -363.554)" fill="#51637b"/>
        </g>
      </g>
      <g id="Group_35" data-name="Group 35" transform="translate(56.148 13.839)">
        <g id="Group_32" data-name="Group 32">
          <path id="Path_75" data-name="Path 75" d="M48.9,341.342a1.867,1.867,0,0,0,.722.134,1.335,1.335,0,0,0,0-2.663,2.169,2.169,0,0,0-.722.128v.283a1.56,1.56,0,0,1,.711-.171c.582,0,.968.358.968,1.091a.964.964,0,0,1-.968,1.091,1.449,1.449,0,0,1-.711-.165Z" transform="translate(-28.968 -338.813)" fill="#888"/>
          <path id="Path_76" data-name="Path 76" d="M59.932,344.032a1.437,1.437,0,0,0,.042-.219.981.981,0,0,0,.711.273.586.586,0,0,0,.652-.6c0-.85-1.342-.385-1.342-.834,0-.2.235-.289.5-.289a1.206,1.206,0,0,1,.642.193v-.241a1.119,1.119,0,0,0-.658-.177c-.368,0-.743.16-.743.5v.984a1.567,1.567,0,0,1-.075.412ZM60,343.011c.262.182,1.08-.016,1.08.487,0,.283-.225.369-.433.369-.321,0-.647-.2-.647-.45Z" transform="translate(-41.767 -341.423)" fill="#888"/>
          <path id="Path_77" data-name="Path 77" d="M69.515,342.39a.476.476,0,0,1,.155-.027c.336,0,.449.406.449.658v1.01h.262v-1.866h-.251v.262a.5.5,0,0,0-.465-.289.92.92,0,0,0-.149.011Z" transform="translate(-52.932 -341.423)" fill="#888"/>
          <path id="Path_78" data-name="Path 78" d="M74.857,341.618v-.38a.764.764,0,0,0,.658.433c.418,0,.738-.268.738-.942a.891.891,0,0,0-.925-1.005,1.108,1.108,0,0,0-.47.1v-.764H74.6v2.556Zm0-1.556a1.048,1.048,0,0,1,.47-.113c.412,0,.674.273.674.775,0,.519-.219.728-.5.728a.752.752,0,0,1-.642-.77Z" transform="translate(-59.899 -339.008)" fill="#888"/>
          <path id="Path_79" data-name="Path 79" d="M91.757,341.618l1.4-2.149v2.149h.278v-2.556h-.31l-1.4,2.149v-2.149h-.278v2.556Z" transform="translate(-80.712 -339.008)" fill="#888"/>
          <path id="Path_80" data-name="Path 80" d="M103.514,344.13v-.283a.786.786,0,0,0,.626.332.613.613,0,0,0,.69-.632v-1.283h-.262v1.251a.4.4,0,0,1-.45.438.656.656,0,0,1-.6-.62v-1.069h-.257v1.866Z" transform="translate(-94.648 -341.521)" fill="#888"/>
          <path id="Path_81" data-name="Path 81" d="M113.389,344.032v-1.268a.36.36,0,0,1,.4-.4.534.534,0,0,1,.524.518v1.144h.262v-1.214c0-.241.086-.449.4-.449a.633.633,0,0,1,.546.609v1.054h.262v-1.866h-.262v.273a.758.758,0,0,0-.583-.3.566.566,0,0,0-.54.3.758.758,0,0,0-.6-.3.582.582,0,0,0-.658.62v1.273Z" transform="translate(-107.721 -341.423)" fill="#888"/>
          <path id="Path_82" data-name="Path 82" d="M128.763,341.672a1.794,1.794,0,0,0,.69-.134v-2.475h-.262v.781a1.185,1.185,0,0,0-.535-.118.81.81,0,0,0-.86.925A.915.915,0,0,0,128.763,341.672Zm-.1-1.722a1.151,1.151,0,0,1,.529.129v1.31a1.538,1.538,0,0,1-.428.064c-.45,0-.711-.278-.711-.8C128.052,340.2,128.265,339.949,128.661,339.949Z" transform="translate(-124.557 -339.008)" fill="#888"/>
          <path id="Path_83" data-name="Path 83" d="M138.476,343.129a.654.654,0,0,1-.689.727.8.8,0,0,1-.487-.155v.273a.964.964,0,0,0,.487.113.872.872,0,0,0,.946-.984c0-.631-.342-.963-.84-.963s-.77.332-.743.99Zm-1.07-.219c.016-.342.177-.54.492-.54a.558.558,0,0,1,.561.54Z" transform="translate(-135.852 -341.423)" fill="#888"/>
          <path id="Path_84" data-name="Path 84" d="M146.5,342.39a.476.476,0,0,1,.155-.027c.336,0,.449.406.449.658v1.01h.262v-1.866h-.251v.262a.5.5,0,0,0-.465-.289.921.921,0,0,0-.149.011Z" transform="translate(-146.504 -341.423)" fill="#888"/>
        </g>
        <g id="Group_33" data-name="Group 33">
          <path id="Path_85" data-name="Path 85" d="M48.9,341.342a1.867,1.867,0,0,0,.722.134,1.335,1.335,0,0,0,0-2.663,2.169,2.169,0,0,0-.722.128v.283a1.56,1.56,0,0,1,.711-.171c.582,0,.968.358.968,1.091a.964.964,0,0,1-.968,1.091,1.449,1.449,0,0,1-.711-.165Z" transform="translate(-28.968 -338.813)" fill="#b100e8"/>
          <path id="Path_86" data-name="Path 86" d="M59.932,344.032a1.437,1.437,0,0,0,.042-.219.981.981,0,0,0,.711.273.586.586,0,0,0,.652-.6c0-.85-1.342-.385-1.342-.834,0-.2.235-.289.5-.289a1.206,1.206,0,0,1,.642.193v-.241a1.119,1.119,0,0,0-.658-.177c-.368,0-.743.16-.743.5v.984a1.567,1.567,0,0,1-.075.412ZM60,343.011c.262.182,1.08-.016,1.08.487,0,.283-.225.369-.433.369-.321,0-.647-.2-.647-.45Z" transform="translate(-41.767 -341.423)" fill="#b100e8"/>
          <path id="Path_87" data-name="Path 87" d="M69.515,342.39a.476.476,0,0,1,.155-.027c.336,0,.449.406.449.658v1.01h.262v-1.866h-.251v.262a.5.5,0,0,0-.465-.289.92.92,0,0,0-.149.011Z" transform="translate(-52.932 -341.423)" fill="#b100e8"/>
          <path id="Path_88" data-name="Path 88" d="M74.857,341.618v-.38a.764.764,0,0,0,.658.433c.418,0,.738-.268.738-.942a.891.891,0,0,0-.925-1.005,1.108,1.108,0,0,0-.47.1v-.764H74.6v2.556Zm0-1.556a1.048,1.048,0,0,1,.47-.113c.412,0,.674.273.674.775,0,.519-.219.728-.5.728a.752.752,0,0,1-.642-.77Z" transform="translate(-59.899 -339.008)" fill="#b100e8"/>
          <path id="Path_89" data-name="Path 89" d="M91.757,341.618l1.4-2.149v2.149h.278v-2.556h-.31l-1.4,2.149v-2.149h-.278v2.556Z" transform="translate(-80.712 -339.008)" fill="#b100e8"/>
          <path id="Path_90" data-name="Path 90" d="M103.514,344.13v-.283a.786.786,0,0,0,.626.332.613.613,0,0,0,.69-.632v-1.283h-.262v1.251a.4.4,0,0,1-.45.438.656.656,0,0,1-.6-.62v-1.069h-.257v1.866Z" transform="translate(-94.648 -341.521)" fill="#b100e8"/>
          <path id="Path_91" data-name="Path 91" d="M113.389,344.032v-1.268a.36.36,0,0,1,.4-.4.534.534,0,0,1,.524.518v1.144h.262v-1.214c0-.241.086-.449.4-.449a.633.633,0,0,1,.546.609v1.054h.262v-1.866h-.262v.273a.758.758,0,0,0-.583-.3.566.566,0,0,0-.54.3.758.758,0,0,0-.6-.3.582.582,0,0,0-.658.62v1.273Z" transform="translate(-107.721 -341.423)" fill="#b100e8"/>
          <path id="Path_92" data-name="Path 92" d="M128.763,341.672a1.794,1.794,0,0,0,.69-.134v-2.475h-.262v.781a1.185,1.185,0,0,0-.535-.118.81.81,0,0,0-.86.925A.915.915,0,0,0,128.763,341.672Zm-.1-1.722a1.151,1.151,0,0,1,.529.129v1.31a1.538,1.538,0,0,1-.428.064c-.45,0-.711-.278-.711-.8C128.052,340.2,128.265,339.949,128.661,339.949Z" transform="translate(-124.557 -339.008)" fill="#b100e8"/>
          <path id="Path_93" data-name="Path 93" d="M138.476,343.129a.654.654,0,0,1-.689.727.8.8,0,0,1-.487-.155v.273a.964.964,0,0,0,.487.113.872.872,0,0,0,.946-.984c0-.631-.342-.963-.84-.963s-.77.332-.743.99Zm-1.07-.219c.016-.342.177-.54.492-.54a.558.558,0,0,1,.561.54Z" transform="translate(-135.852 -341.423)" fill="#b100e8"/>
          <path id="Path_94" data-name="Path 94" d="M146.5,342.39a.476.476,0,0,1,.155-.027c.336,0,.449.406.449.658v1.01h.262v-1.866h-.251v.262a.5.5,0,0,0-.465-.289.921.921,0,0,0-.149.011Z" transform="translate(-146.504 -341.423)" fill="#b100e8"/>
        </g>
        <g id="Group_34" data-name="Group 34">
          <path id="Path_95" data-name="Path 95" d="M48.9,341.342a1.867,1.867,0,0,0,.722.134,1.335,1.335,0,0,0,0-2.663,2.169,2.169,0,0,0-.722.128v.283a1.56,1.56,0,0,1,.711-.171c.582,0,.968.358.968,1.091a.964.964,0,0,1-.968,1.091,1.449,1.449,0,0,1-.711-.165Z" transform="translate(-28.968 -338.813)" fill="#9600e0"/>
          <path id="Path_96" data-name="Path 96" d="M59.932,344.032a1.437,1.437,0,0,0,.042-.219.981.981,0,0,0,.711.273.586.586,0,0,0,.652-.6c0-.85-1.342-.385-1.342-.834,0-.2.235-.289.5-.289a1.206,1.206,0,0,1,.642.193v-.241a1.119,1.119,0,0,0-.658-.177c-.368,0-.743.16-.743.5v.984a1.567,1.567,0,0,1-.075.412ZM60,343.011c.262.182,1.08-.016,1.08.487,0,.283-.225.369-.433.369-.321,0-.647-.2-.647-.45Z" transform="translate(-41.767 -341.423)" fill="#9600e0"/>
          <path id="Path_97" data-name="Path 97" d="M69.515,342.39a.476.476,0,0,1,.155-.027c.336,0,.449.406.449.658v1.01h.262v-1.866h-.251v.262a.5.5,0,0,0-.465-.289.92.92,0,0,0-.149.011Z" transform="translate(-52.932 -341.423)" fill="#9600e0"/>
          <path id="Path_98" data-name="Path 98" d="M74.857,341.618v-.38a.764.764,0,0,0,.658.433c.418,0,.738-.268.738-.942a.891.891,0,0,0-.925-1.005,1.108,1.108,0,0,0-.47.1v-.764H74.6v2.556Zm0-1.556a1.048,1.048,0,0,1,.47-.113c.412,0,.674.273.674.775,0,.519-.219.728-.5.728a.752.752,0,0,1-.642-.77Z" transform="translate(-59.899 -339.008)" fill="#9600e0"/>
          <path id="Path_99" data-name="Path 99" d="M91.757,341.618l1.4-2.149v2.149h.278v-2.556h-.31l-1.4,2.149v-2.149h-.278v2.556Z" transform="translate(-80.712 -339.008)" fill="#9600e0"/>
          <path id="Path_100" data-name="Path 100" d="M103.514,344.13v-.283a.786.786,0,0,0,.626.332.613.613,0,0,0,.69-.632v-1.283h-.262v1.251a.4.4,0,0,1-.45.438.656.656,0,0,1-.6-.62v-1.069h-.257v1.866Z" transform="translate(-94.648 -341.521)" fill="#9600e0"/>
          <path id="Path_101" data-name="Path 101" d="M113.389,344.032v-1.268a.36.36,0,0,1,.4-.4.534.534,0,0,1,.524.518v1.144h.262v-1.214c0-.241.086-.449.4-.449a.633.633,0,0,1,.546.609v1.054h.262v-1.866h-.262v.273a.758.758,0,0,0-.583-.3.566.566,0,0,0-.54.3.758.758,0,0,0-.6-.3.582.582,0,0,0-.658.62v1.273Z" transform="translate(-107.721 -341.423)" fill="#9600e0"/>
          <path id="Path_102" data-name="Path 102" d="M128.763,341.672a1.794,1.794,0,0,0,.69-.134v-2.475h-.262v.781a1.185,1.185,0,0,0-.535-.118.81.81,0,0,0-.86.925A.915.915,0,0,0,128.763,341.672Zm-.1-1.722a1.151,1.151,0,0,1,.529.129v1.31a1.538,1.538,0,0,1-.428.064c-.45,0-.711-.278-.711-.8C128.052,340.2,128.265,339.949,128.661,339.949Z" transform="translate(-124.557 -339.008)" fill="#9600e0"/>
          <path id="Path_103" data-name="Path 103" d="M138.476,343.129a.654.654,0,0,1-.689.727.8.8,0,0,1-.487-.155v.273a.964.964,0,0,0,.487.113.872.872,0,0,0,.946-.984c0-.631-.342-.963-.84-.963s-.77.332-.743.99Zm-1.07-.219c.016-.342.177-.54.492-.54a.558.558,0,0,1,.561.54Z" transform="translate(-135.852 -341.423)" fill="#9600e0"/>
          <path id="Path_104" data-name="Path 104" d="M146.5,342.39a.476.476,0,0,1,.155-.027c.336,0,.449.406.449.658v1.01h.262v-1.866h-.251v.262a.5.5,0,0,0-.465-.289.921.921,0,0,0-.149.011Z" transform="translate(-146.504 -341.423)" fill="#9600e0"/>
        </g>
      </g>
      <g id="Group_37" data-name="Group 37" transform="translate(58.699 41.805)">
        <g id="Group_36" data-name="Group 36">
          <path id="Path_105" data-name="Path 105" d="M50.929,472.568V469.2a.55.55,0,0,0-.543-.544H48.628a.515.515,0,0,0-.378.161.528.528,0,0,0-.159.383v3.371a.543.543,0,0,0,.543.544h1.752a.52.52,0,0,0,.386-.16A.525.525,0,0,0,50.929,472.568Zm-2.281-.02v-3.325h1.718v3.325Z" transform="translate(-31.417 -468.652)" fill="#51637b"/>
          <path id="Path_106" data-name="Path 106" d="M69.565,472.574H68.26v-1.382h1.7v-2.506H67.978a.282.282,0,0,0,0,.564h1.417v1.379H68.26a.574.574,0,0,0-.564.564v1.382a.568.568,0,0,0,.564.564h1.305a.938.938,0,0,0,.372-.084l.426-.177a.265.265,0,0,0,.171-.268.282.282,0,0,0-.078-.2.249.249,0,0,0-.188-.082.473.473,0,0,0-.195.051l-.372.157A.266.266,0,0,1,69.565,472.574Z" transform="translate(-55.247 -468.679)" fill="#51637b"/>
          <path id="Path_107" data-name="Path 107" d="M87.068,469.159l2.288,3.889a.187.187,0,0,0,.172.087.324.324,0,0,0,.206-.075.233.233,0,0,0,.1-.193.439.439,0,0,0-.067-.221l-2.287-3.886a.2.2,0,0,0-.178-.09.328.328,0,0,0-.2.072.225.225,0,0,0-.1.189A.443.443,0,0,0,87.068,469.159Z" transform="translate(-78.697 -468.665)" fill="#51637b"/>
          <path id="Path_108" data-name="Path 108" d="M106.109,473.138h2.563v-1.946a.554.554,0,0,0-.166-.4.541.541,0,0,0-.4-.168H106.4V469.25h2.013a.27.27,0,0,0,.2-.083.287.287,0,0,0,0-.4.269.269,0,0,0-.2-.082H106.4a.556.556,0,0,0-.4.166.543.543,0,0,0-.167.4v1.372a.569.569,0,0,0,.57.57h1.712v1.382h-2a.275.275,0,0,0-.2.082.281.281,0,0,0,0,.4A.275.275,0,0,0,106.109,473.138Z" transform="translate(-101.616 -468.679)" fill="#51637b"/>
          <path id="Path_109" data-name="Path 109" d="M127.364,472.574h-1.305v-1.382h1.7v-2.506h-1.986a.282.282,0,0,0,0,.564h1.417v1.379h-1.135a.574.574,0,0,0-.564.564v1.382a.568.568,0,0,0,.564.564h1.305a.937.937,0,0,0,.372-.084l.426-.177a.265.265,0,0,0,.171-.268.282.282,0,0,0-.078-.2.249.249,0,0,0-.188-.082.473.473,0,0,0-.195.051l-.372.157A.266.266,0,0,1,127.364,472.574Z" transform="translate(-125.495 -468.679)" fill="#51637b"/>
        </g>
      </g>
      <g id="Group_41" data-name="Group 41" transform="translate(61.44 36.534)">
        <g id="Group_38" data-name="Group 38">
          <path id="Path_110" data-name="Path 110" d="M50.069,446.739h.321l1.005-2.556h-.289l-.877,2.214-.877-2.214h-.289Z" transform="translate(-34.833 -444.183)" fill="#888"/>
          <path id="Path_111" data-name="Path 111" d="M58.667,449.153a1.437,1.437,0,0,0,.042-.219.981.981,0,0,0,.711.273.586.586,0,0,0,.652-.6c0-.85-1.342-.385-1.342-.833,0-.2.235-.289.5-.289a1.2,1.2,0,0,1,.642.193v-.241a1.118,1.118,0,0,0-.658-.177c-.368,0-.744.16-.744.5v.984a1.566,1.566,0,0,1-.075.412Zm.069-1.021c.262.182,1.08-.016,1.08.487,0,.283-.225.369-.433.369-.321,0-.647-.2-.647-.45Z" transform="translate(-45.523 -446.597)" fill="#888"/>
          <path id="Path_112" data-name="Path 112" d="M68.56,446.739v-2.556H68.3v2.556Z" transform="translate(-56.142 -444.183)" fill="#888"/>
          <path id="Path_113" data-name="Path 113" d="M72.281,444.768v-.336h-.262v.336Zm0,2.166v-1.866h-.262v1.866Z" transform="translate(-60.664 -444.378)" fill="#888"/>
          <path id="Path_114" data-name="Path 114" d="M75.5,446.739v-.38a.763.763,0,0,0,.658.433c.417,0,.738-.268.738-.942a.891.891,0,0,0-.925-1.005,1.108,1.108,0,0,0-.47.1v-.764h-.257v2.556Zm0-1.556a1.046,1.046,0,0,1,.47-.113c.412,0,.674.273.674.775,0,.519-.219.728-.5.728a.752.752,0,0,1-.642-.77Z" transform="translate(-65.977 -444.183)" fill="#888"/>
          <path id="Path_115" data-name="Path 115" d="M93.434,446.739h.722v-2.556h-.792a1.131,1.131,0,0,0-1.273,1.229A1.191,1.191,0,0,0,93.434,446.739Zm-.032-2.31h.476V446.5h-.337c-.77,0-1.171-.24-1.171-1.086C92.37,444.782,92.659,444.429,93.4,444.429Z" transform="translate(-86.864 -444.183)" fill="#888"/>
          <path id="Path_116" data-name="Path 116" d="M103.378,449.153a1.437,1.437,0,0,0,.042-.219.981.981,0,0,0,.711.273.586.586,0,0,0,.652-.6c0-.85-1.342-.385-1.342-.833,0-.2.235-.289.5-.289a1.2,1.2,0,0,1,.642.193v-.241a1.119,1.119,0,0,0-.658-.177c-.368,0-.743.16-.743.5v.984a1.566,1.566,0,0,1-.075.412Zm.069-1.021c.262.182,1.08-.016,1.08.487,0,.283-.225.369-.433.369-.321,0-.647-.2-.647-.45Z" transform="translate(-99.864 -446.597)" fill="#888"/>
          <path id="Path_117" data-name="Path 117" d="M112.117,447.217a1.264,1.264,0,0,0,.374.064.458.458,0,0,0,.519-.524v-1.15h.267v-.23h-.267v-.551h-.262v.551h-.535v.23h.535v1.1c0,.23-.053.353-.267.353a.958.958,0,0,1-.364-.075Z" transform="translate(-110.297 -444.688)" fill="#888"/>
          <path id="Path_118" data-name="Path 118" d="M119.921,448.25a.654.654,0,0,1-.69.727.8.8,0,0,1-.487-.155v.273a.965.965,0,0,0,.487.113.872.872,0,0,0,.946-.984c0-.631-.342-.963-.84-.963s-.77.332-.743.99Zm-1.07-.219c.016-.342.177-.54.492-.54a.558.558,0,0,1,.561.54Z" transform="translate(-118.593 -446.597)" fill="#888"/>
        </g>
        <g id="Group_39" data-name="Group 39">
          <path id="Path_119" data-name="Path 119" d="M50.069,446.739h.321l1.005-2.556h-.289l-.877,2.214-.877-2.214h-.289Z" transform="translate(-34.833 -444.183)" fill="#b100e8"/>
          <path id="Path_120" data-name="Path 120" d="M58.667,449.153a1.437,1.437,0,0,0,.042-.219.981.981,0,0,0,.711.273.586.586,0,0,0,.652-.6c0-.85-1.342-.385-1.342-.833,0-.2.235-.289.5-.289a1.2,1.2,0,0,1,.642.193v-.241a1.118,1.118,0,0,0-.658-.177c-.368,0-.744.16-.744.5v.984a1.566,1.566,0,0,1-.075.412Zm.069-1.021c.262.182,1.08-.016,1.08.487,0,.283-.225.369-.433.369-.321,0-.647-.2-.647-.45Z" transform="translate(-45.523 -446.597)" fill="#b100e8"/>
          <path id="Path_121" data-name="Path 121" d="M68.56,446.739v-2.556H68.3v2.556Z" transform="translate(-56.142 -444.183)" fill="#b100e8"/>
          <path id="Path_122" data-name="Path 122" d="M72.281,444.768v-.336h-.262v.336Zm0,2.166v-1.866h-.262v1.866Z" transform="translate(-60.664 -444.378)" fill="#b100e8"/>
          <path id="Path_123" data-name="Path 123" d="M75.5,446.739v-.38a.763.763,0,0,0,.658.433c.417,0,.738-.268.738-.942a.891.891,0,0,0-.925-1.005,1.108,1.108,0,0,0-.47.1v-.764h-.257v2.556Zm0-1.556a1.046,1.046,0,0,1,.47-.113c.412,0,.674.273.674.775,0,.519-.219.728-.5.728a.752.752,0,0,1-.642-.77Z" transform="translate(-65.977 -444.183)" fill="#b100e8"/>
          <path id="Path_124" data-name="Path 124" d="M93.434,446.739h.722v-2.556h-.792a1.131,1.131,0,0,0-1.273,1.229A1.191,1.191,0,0,0,93.434,446.739Zm-.032-2.31h.476V446.5h-.337c-.77,0-1.171-.24-1.171-1.086C92.37,444.782,92.659,444.429,93.4,444.429Z" transform="translate(-86.864 -444.183)" fill="#b100e8"/>
          <path id="Path_125" data-name="Path 125" d="M103.378,449.153a1.437,1.437,0,0,0,.042-.219.981.981,0,0,0,.711.273.586.586,0,0,0,.652-.6c0-.85-1.342-.385-1.342-.833,0-.2.235-.289.5-.289a1.2,1.2,0,0,1,.642.193v-.241a1.119,1.119,0,0,0-.658-.177c-.368,0-.743.16-.743.5v.984a1.566,1.566,0,0,1-.075.412Zm.069-1.021c.262.182,1.08-.016,1.08.487,0,.283-.225.369-.433.369-.321,0-.647-.2-.647-.45Z" transform="translate(-99.864 -446.597)" fill="#b100e8"/>
          <path id="Path_126" data-name="Path 126" d="M112.117,447.217a1.264,1.264,0,0,0,.374.064.458.458,0,0,0,.519-.524v-1.15h.267v-.23h-.267v-.551h-.262v.551h-.535v.23h.535v1.1c0,.23-.053.353-.267.353a.958.958,0,0,1-.364-.075Z" transform="translate(-110.297 -444.688)" fill="#b100e8"/>
          <path id="Path_127" data-name="Path 127" d="M119.921,448.25a.654.654,0,0,1-.69.727.8.8,0,0,1-.487-.155v.273a.965.965,0,0,0,.487.113.872.872,0,0,0,.946-.984c0-.631-.342-.963-.84-.963s-.77.332-.743.99Zm-1.07-.219c.016-.342.177-.54.492-.54a.558.558,0,0,1,.561.54Z" transform="translate(-118.593 -446.597)" fill="#b100e8"/>
        </g>
        <g id="Group_40" data-name="Group 40">
          <path id="Path_128" data-name="Path 128" d="M50.069,446.739h.321l1.005-2.556h-.289l-.877,2.214-.877-2.214h-.289Z" transform="translate(-34.833 -444.183)" fill="#9600e0"/>
          <path id="Path_129" data-name="Path 129" d="M58.667,449.153a1.437,1.437,0,0,0,.042-.219.981.981,0,0,0,.711.273.586.586,0,0,0,.652-.6c0-.85-1.342-.385-1.342-.833,0-.2.235-.289.5-.289a1.2,1.2,0,0,1,.642.193v-.241a1.118,1.118,0,0,0-.658-.177c-.368,0-.744.16-.744.5v.984a1.566,1.566,0,0,1-.075.412Zm.069-1.021c.262.182,1.08-.016,1.08.487,0,.283-.225.369-.433.369-.321,0-.647-.2-.647-.45Z" transform="translate(-45.523 -446.597)" fill="#9600e0"/>
          <path id="Path_130" data-name="Path 130" d="M68.56,446.739v-2.556H68.3v2.556Z" transform="translate(-56.142 -444.183)" fill="#9600e0"/>
          <path id="Path_131" data-name="Path 131" d="M72.281,444.768v-.336h-.262v.336Zm0,2.166v-1.866h-.262v1.866Z" transform="translate(-60.664 -444.378)" fill="#9600e0"/>
          <path id="Path_132" data-name="Path 132" d="M75.5,446.739v-.38a.763.763,0,0,0,.658.433c.417,0,.738-.268.738-.942a.891.891,0,0,0-.925-1.005,1.108,1.108,0,0,0-.47.1v-.764h-.257v2.556Zm0-1.556a1.046,1.046,0,0,1,.47-.113c.412,0,.674.273.674.775,0,.519-.219.728-.5.728a.752.752,0,0,1-.642-.77Z" transform="translate(-65.977 -444.183)" fill="#9600e0"/>
          <path id="Path_133" data-name="Path 133" d="M93.434,446.739h.722v-2.556h-.792a1.131,1.131,0,0,0-1.273,1.229A1.191,1.191,0,0,0,93.434,446.739Zm-.032-2.31h.476V446.5h-.337c-.77,0-1.171-.24-1.171-1.086C92.37,444.782,92.659,444.429,93.4,444.429Z" transform="translate(-86.864 -444.183)" fill="#9600e0"/>
          <path id="Path_134" data-name="Path 134" d="M103.378,449.153a1.437,1.437,0,0,0,.042-.219.981.981,0,0,0,.711.273.586.586,0,0,0,.652-.6c0-.85-1.342-.385-1.342-.833,0-.2.235-.289.5-.289a1.2,1.2,0,0,1,.642.193v-.241a1.119,1.119,0,0,0-.658-.177c-.368,0-.743.16-.743.5v.984a1.566,1.566,0,0,1-.075.412Zm.069-1.021c.262.182,1.08-.016,1.08.487,0,.283-.225.369-.433.369-.321,0-.647-.2-.647-.45Z" transform="translate(-99.864 -446.597)" fill="#9600e0"/>
          <path id="Path_135" data-name="Path 135" d="M112.117,447.217a1.264,1.264,0,0,0,.374.064.458.458,0,0,0,.519-.524v-1.15h.267v-.23h-.267v-.551h-.262v.551h-.535v.23h.535v1.1c0,.23-.053.353-.267.353a.958.958,0,0,1-.364-.075Z" transform="translate(-110.297 -444.688)" fill="#9600e0"/>
          <path id="Path_136" data-name="Path 136" d="M119.921,448.25a.654.654,0,0,1-.69.727.8.8,0,0,1-.487-.155v.273a.965.965,0,0,0,.487.113.872.872,0,0,0,.946-.984c0-.631-.342-.963-.84-.963s-.77.332-.743.99Zm-1.07-.219c.016-.342.177-.54.492-.54a.558.558,0,0,1,.561.54Z" transform="translate(-118.593 -446.597)" fill="#9600e0"/>
        </g>
      </g>
      <g id="Group_43" data-name="Group 43" transform="translate(31.904 41.448)">
        <g id="Group_42" data-name="Group 42">
          <path id="Path_137" data-name="Path 137" d="M211.49,471.483h2.563v-1.946a.554.554,0,0,0-.166-.4.541.541,0,0,0-.4-.168h-1.712v-1.372h2.013a.279.279,0,0,0,.282-.282.275.275,0,0,0-.081-.2.269.269,0,0,0-.2-.082h-2.013a.556.556,0,0,0-.4.165.543.543,0,0,0-.167.4v1.372a.569.569,0,0,0,.57.57h1.712v1.382h-2a.276.276,0,0,0-.2.082.281.281,0,0,0,0,.4A.276.276,0,0,0,211.49,471.483Z" transform="translate(-202.9 -467.023)" fill="#51637b"/>
          <path id="Path_138" data-name="Path 138" d="M232.116,471.173V470h1.7v-2.714a.293.293,0,0,0-.288-.289.272.272,0,0,0-.2.086.285.285,0,0,0-.084.2v2.144h-1.127v-1.651a.284.284,0,0,0-.082-.2.276.276,0,0,0-.4,0,.284.284,0,0,0-.082.2v1.651a.282.282,0,1,0,0,.564v1.181a.272.272,0,0,0,.083.2.281.281,0,0,0,.48-.2Z" transform="translate(-226.963 -466.996)" fill="#51637b"/>
          <path id="Path_139" data-name="Path 139" d="M249.78,467.595v1.056a.807.807,0,0,0,.228.6.839.839,0,0,0-.236.57v1.1a.539.539,0,0,0,.168.4.551.551,0,0,0,.4.166h1.992a.282.282,0,1,0,0-.564h-1.986v-1.1a.282.282,0,0,1,.083-.2.266.266,0,0,1,.2-.086h1.135a.273.273,0,0,0,.2-.08.283.283,0,0,0-.2-.483h-1.141a.277.277,0,0,1-.2-.082.27.27,0,0,1-.084-.2v-1.09h2.013a.282.282,0,1,0,0-.564h-2.013a.562.562,0,0,0-.563.564Z" transform="translate(-249.772 -467.023)" fill="#51637b"/>
        </g>
      </g>
      <g id="Group_47" data-name="Group 47" transform="translate(38.255 36.841)">
        <g id="Group_44" data-name="Group 44">
          <path id="Path_140" data-name="Path 140" d="M208.976,447.479a2.134,2.134,0,0,0,.54.075.974.974,0,0,0-.016-1.947,2.27,2.27,0,0,0-.524.064v.246a1.806,1.806,0,0,1,.535-.075c.487,0,.679.278.679.743a.655.655,0,0,1-.689.737,1.36,1.36,0,0,1-.524-.1Z" transform="translate(-205.144 -445.608)" fill="#888"/>
          <path id="Path_141" data-name="Path 141" d="M217.375,447.6h.251l.786-1.866h-.272l-.637,1.518-.641-1.518h-.268Z" transform="translate(-214.75 -445.706)" fill="#888"/>
          <path id="Path_142" data-name="Path 142" d="M225.936,447.6h.251l.786-1.866H226.7l-.637,1.518-.641-1.518h-.268Z" transform="translate(-225.155 -445.706)" fill="#888"/>
        </g>
        <g id="Group_45" data-name="Group 45">
          <path id="Path_143" data-name="Path 143" d="M208.976,447.479a2.134,2.134,0,0,0,.54.075.974.974,0,0,0-.016-1.947,2.27,2.27,0,0,0-.524.064v.246a1.806,1.806,0,0,1,.535-.075c.487,0,.679.278.679.743a.655.655,0,0,1-.689.737,1.36,1.36,0,0,1-.524-.1Z" transform="translate(-205.144 -445.608)" fill="#b100e8"/>
          <path id="Path_144" data-name="Path 144" d="M217.375,447.6h.251l.786-1.866h-.272l-.637,1.518-.641-1.518h-.268Z" transform="translate(-214.75 -445.706)" fill="#b100e8"/>
          <path id="Path_145" data-name="Path 145" d="M225.936,447.6h.251l.786-1.866H226.7l-.637,1.518-.641-1.518h-.268Z" transform="translate(-225.155 -445.706)" fill="#b100e8"/>
        </g>
        <g id="Group_46" data-name="Group 46">
          <path id="Path_146" data-name="Path 146" d="M208.976,447.479a2.134,2.134,0,0,0,.54.075.974.974,0,0,0-.016-1.947,2.27,2.27,0,0,0-.524.064v.246a1.806,1.806,0,0,1,.535-.075c.487,0,.679.278.679.743a.655.655,0,0,1-.689.737,1.36,1.36,0,0,1-.524-.1Z" transform="translate(-205.144 -445.608)" fill="#9600e0"/>
          <path id="Path_147" data-name="Path 147" d="M217.375,447.6h.251l.786-1.866h-.272l-.637,1.518-.641-1.518h-.268Z" transform="translate(-214.75 -445.706)" fill="#9600e0"/>
          <path id="Path_148" data-name="Path 148" d="M225.936,447.6h.251l.786-1.866H226.7l-.637,1.518-.641-1.518h-.268Z" transform="translate(-225.155 -445.706)" fill="#9600e0"/>
        </g>
      </g>
      <g id="Group_49" data-name="Group 49" transform="translate(17.838)">
        <g id="Group_48" data-name="Group 48">
          <path id="Path_149" data-name="Path 149" d="M48.9,279.592a3.9,3.9,0,0,0,1.6.3,2.663,2.663,0,0,0,0-5.326,4.171,4.171,0,0,0-1.6.289v.834a3.893,3.893,0,0,1,1.583-.353c1.113,0,1.775.61,1.775,1.893a1.7,1.7,0,0,1-1.775,1.9,3.843,3.843,0,0,1-1.583-.364Z" transform="translate(7.058 -274.565)" fill="#51637b"/>
          <path id="Path_150" data-name="Path 150" d="M74.584,280.175v-2.235H77v2.235h.877v-5.112H77v2.1H74.584v-2.1h-.877v5.112Z" transform="translate(-23.023 -274.956)" fill="#51637b"/>
          <path id="Path_151" data-name="Path 151" d="M102.5,280.175v-5.112H98.917v.759h2.706v1.337H99.141v.781h2.481v1.476H98.917v.759Z" transform="translate(-53.075 -274.956)" fill="#51637b"/>
          <path id="Path_152" data-name="Path 152" d="M120.183,280.175l2.6-3.658v3.658h.877v-5.112h-.813l-2.6,3.647v-3.647h-.887v5.112Z" transform="translate(-78.637 -274.956)" fill="#51637b"/>
          <path id="Path_153" data-name="Path 153" d="M159.292,280.175v-2.235h2.417v2.235h.877v-5.112h-.877v2.1h-2.417v-2.1h-.877v5.112Z" transform="translate(-125.976 -274.956)" fill="#51637b"/>
          <path id="Path_154" data-name="Path 154" d="M183.625,278.26a2.086,2.086,0,0,0,4.171,0v-3.2h-.877v3.2a1.21,1.21,0,1,1-2.417,0v-3.2h-.877Z" transform="translate(-156.616 -274.956)" fill="#51637b"/>
          <path id="Path_155" data-name="Path 155" d="M209.456,280.175l2.6-3.658v3.658h.877v-5.112h-.813l-2.6,3.647v-3.647h-.887v5.112Z" transform="translate(-187.139 -274.956)" fill="#51637b"/>
          <path id="Path_156" data-name="Path 156" d="M233.1,279.506a4.645,4.645,0,0,0,1.957.385,2.663,2.663,0,1,0,0-5.326,4.873,4.873,0,0,0-1.657.289v.823a3.968,3.968,0,0,1,1.636-.342,1.7,1.7,0,0,1,1.828,1.893,1.732,1.732,0,0,1-1.828,1.9,4.338,4.338,0,0,1-1.048-.128v-1.561h1.294v-.76H233.1Z" transform="translate(-217.228 -274.565)" fill="#51637b"/>
          <path id="Path_157" data-name="Path 157" d="M260.154,288.964v-.695h-1.946v.695Z" transform="translate(-245.039 -285.317)" fill="#51637b"/>
          <path id="Path_158" data-name="Path 158" d="M268.924,278.7c0,1.091.674,1.582,1.819,1.582a3.367,3.367,0,0,0,1.037-.181v-.856a2.2,2.2,0,0,1-1.059.288c-.566,0-.909-.267-.909-.769v-3.7h-.888Z" transform="translate(-258.973 -274.956)" fill="#51637b"/>
          <path id="Path_159" data-name="Path 159" d="M291.562,280.175v-5.112H287.98v.759h2.706v1.337H288.2v.781h2.481v1.476H287.98v.759Z" transform="translate(-282.86 -274.956)" fill="#51637b"/>
          <path id="Path_160" data-name="Path 160" d="M309.246,280.175l2.6-3.658v3.658h.877v-5.112h-.813l-2.6,3.647v-3.647h-.887v5.112Z" transform="translate(-308.423 -274.956)" fill="#51637b"/>
        </g>
      </g>
    </g>
    <rect id="Rectangle_20" data-name="Rectangle 20" width="66.112" height="26.388" rx="10.25" transform="translate(7.761 12.327)" fill="#b5c0cf"/>
  </g>
</svg>
