<svg width="1441" height="551" viewBox="0 0 1441 551" fill="none" xmlns="http://www.w3.org/2000/svg">
<g clip-path="url(#clip0_218_10549)">
<rect width="1440" height="550" transform="translate(0.5 0.5)" fill="white"/>
<g filter="url(#filter0_f_218_10549)">
<path fill-rule="evenodd" clip-rule="evenodd" d="M1891.56 385.602C1858.25 412.429 1782.94 426.506 1725.87 446.654C1674.94 464.635 1635.69 488.323 1571.72 498.527C1508.15 508.666 1436.69 501.13 1368.15 503.712C1290.07 506.654 1210.42 526.008 1137.58 514.884C1065.57 503.886 1033.09 471.984 993.496 446.495C956.624 422.756 926.628 397.786 913.526 370.631C900.516 343.665 894.648 315.38 917.707 289.407C940.276 263.988 993.986 245.209 1042.21 225.693C1088.56 206.932 1135.43 188.236 1195.95 176.801C1257.56 165.16 1326.11 162.631 1394.23 159.175C1471.46 155.256 1558.3 139.517 1624.77 155.042C1692.47 170.854 1675.38 212.607 1724.7 236.363C1775.8 260.982 1882.27 265.759 1914.58 294.66C1946.29 323.014 1926.16 357.735 1891.56 385.602Z" fill="url(#paint0_linear_218_10549)"/>
</g>
<g filter="url(#filter1_f_218_10549)">
<path fill-rule="evenodd" clip-rule="evenodd" d="M2.7467 -64.6434C70.2148 -59.923 118.415 -39.4179 176.179 -25.8818C227.729 -13.8019 289.48 -6.56584 326.495 11.222C363.276 28.8971 362.206 52.7627 383.157 73.582C407.023 97.298 468.007 118.042 459.205 143.095C450.503 167.863 386.223 184.723 337.883 202.443C292.861 218.947 243.561 233.568 185.629 243.383C128.099 253.13 66.0322 260.929 2.7467 259.223C-59.1925 257.553 -113.145 244.774 -167.536 233.862C-219.821 223.372 -272.076 212.708 -311.082 196.259C-350.795 179.512 -371.628 158.676 -394.445 138.172C-420.315 114.924 -474.789 91.1762 -454.718 67.1815C-434.276 42.7421 -336.961 39.2543 -294.654 18.8687C-250.811 -2.25697 -263.67 -36.4536 -206.076 -52.6263C-149.574 -68.4925 -67.337 -69.5469 2.7467 -64.6434Z" fill="url(#paint1_linear_218_10549)"/>
</g>
<g filter="url(#filter2_b_218_10549)">
<rect width="1440" height="550" transform="translate(0.5 0.5)" fill="white" fill-opacity="0.7"/>
</g>
</g>
<defs>
<filter id="filter0_f_218_10549" x="602.083" y="-151.67" width="1628.34" height="969.969" filterUnits="userSpaceOnUse" color-interpolation-filters="sRGB">
<feFlood flood-opacity="0" result="BackgroundImageFix"/>
<feBlend mode="normal" in="SourceGraphic" in2="BackgroundImageFix" result="shape"/>
<feGaussianBlur stdDeviation="150" result="effect1_foregroundBlur_218_10549"/>
</filter>
<filter id="filter1_f_218_10549" x="-759.066" y="-367.233" width="1519.13" height="926.692" filterUnits="userSpaceOnUse" color-interpolation-filters="sRGB">
<feFlood flood-opacity="0" result="BackgroundImageFix"/>
<feBlend mode="normal" in="SourceGraphic" in2="BackgroundImageFix" result="shape"/>
<feGaussianBlur stdDeviation="150" result="effect1_foregroundBlur_218_10549"/>
</filter>
<filter id="filter2_b_218_10549" x="-79.5" y="-79.5" width="1600" height="710" filterUnits="userSpaceOnUse" color-interpolation-filters="sRGB">
<feFlood flood-opacity="0" result="BackgroundImageFix"/>
<feGaussianBlur in="BackgroundImageFix" stdDeviation="40"/>
<feComposite in2="SourceAlpha" operator="in" result="effect1_backgroundBlur_218_10549"/>
<feBlend mode="normal" in="SourceGraphic" in2="effect1_backgroundBlur_218_10549" result="shape"/>
</filter>
<linearGradient id="paint0_linear_218_10549" x1="1899.98" y1="385.431" x2="1181.39" y2="-101.133" gradientUnits="userSpaceOnUse">
<stop stop-color="#9F3FFF"/>
<stop offset="1" stop-color="#EB00FF"/>
</linearGradient>
<linearGradient id="paint1_linear_218_10549" x1="0.499969" y1="-67.2332" x2="0.499969" y2="259.458" gradientUnits="userSpaceOnUse">
<stop stop-color="#3FE8FF"/>
<stop offset="1" stop-color="#2400FF"/>
</linearGradient>
<clipPath id="clip0_218_10549">
<rect width="1440" height="550" fill="white" transform="translate(0.5 0.5)"/>
</clipPath>
</defs>
</svg>
