<svg width="1441" height="551" viewBox="0 0 1441 551" fill="none" xmlns="http://www.w3.org/2000/svg">
<g clip-path="url(#clip0_218_10554)">
<rect width="1440" height="550" transform="translate(0.5 0.5)" fill="white"/>
<g filter="url(#filter0_f_218_10554)">
<path fill-rule="evenodd" clip-rule="evenodd" d="M672.21 599.188C638.902 626.015 563.589 640.091 506.521 660.24C455.593 678.22 416.34 701.908 352.366 712.112C288.798 722.252 217.338 714.715 148.8 717.298C70.7256 720.239 -8.92844 739.594 -81.7667 728.47C-153.778 717.472 -186.263 685.569 -225.853 660.081C-262.725 636.341 -292.722 611.371 -305.823 584.217C-318.833 557.251 -324.701 528.965 -301.642 502.993C-279.073 477.573 -225.363 458.795 -177.14 439.279C-130.785 420.518 -83.9162 401.822 -23.4029 390.387C38.2072 378.745 106.761 376.217 174.88 372.761C252.114 368.842 338.955 353.103 405.42 368.627C473.117 384.44 456.035 426.193 505.348 449.949C556.451 474.568 662.922 479.345 695.236 508.246C726.937 536.599 706.81 571.321 672.21 599.188Z" fill="url(#paint0_linear_218_10554)"/>
</g>
<g filter="url(#filter1_f_218_10554)">
<path fill-rule="evenodd" clip-rule="evenodd" d="M1155.65 -48.6017C1223.11 -43.8813 1271.31 -23.3762 1329.08 -9.84005C1380.63 2.23985 1442.38 9.47588 1479.4 27.2637C1516.18 44.9388 1515.11 68.8044 1536.06 89.6237C1559.92 113.34 1620.91 134.084 1612.1 159.137C1603.4 183.905 1539.12 200.764 1490.78 218.485C1445.76 234.989 1396.46 249.609 1338.53 259.425C1281 269.171 1218.93 276.971 1155.65 275.265C1093.71 273.595 1039.75 260.816 985.364 249.904C933.079 239.414 880.824 228.75 841.818 212.301C802.105 195.553 781.272 174.718 758.455 154.214C732.585 130.966 678.111 107.218 698.182 83.2233C718.624 58.7838 815.939 55.2961 858.246 34.9104C902.089 13.7848 889.23 -20.4118 946.824 -36.5846C1003.33 -52.4508 1085.56 -53.5051 1155.65 -48.6017Z" fill="url(#paint1_linear_218_10554)"/>
</g>
<g filter="url(#filter2_b_218_10554)">
<rect width="1440" height="550" transform="translate(0.5 0.5)" fill="white" fill-opacity="0.7"/>
</g>
</g>
<defs>
<filter id="filter0_f_218_10554" x="-617.266" y="61.916" width="1628.34" height="969.969" filterUnits="userSpaceOnUse" color-interpolation-filters="sRGB">
<feFlood flood-opacity="0" result="BackgroundImageFix"/>
<feBlend mode="normal" in="SourceGraphic" in2="BackgroundImageFix" result="shape"/>
<feGaussianBlur stdDeviation="150" result="effect1_foregroundBlur_218_10554"/>
</filter>
<filter id="filter1_f_218_10554" x="393.833" y="-351.192" width="1519.13" height="926.692" filterUnits="userSpaceOnUse" color-interpolation-filters="sRGB">
<feFlood flood-opacity="0" result="BackgroundImageFix"/>
<feBlend mode="normal" in="SourceGraphic" in2="BackgroundImageFix" result="shape"/>
<feGaussianBlur stdDeviation="150" result="effect1_foregroundBlur_218_10554"/>
</filter>
<filter id="filter2_b_218_10554" x="-79.5" y="-79.5" width="1600" height="710" filterUnits="userSpaceOnUse" color-interpolation-filters="sRGB">
<feFlood flood-opacity="0" result="BackgroundImageFix"/>
<feGaussianBlur in="BackgroundImageFix" stdDeviation="40"/>
<feComposite in2="SourceAlpha" operator="in" result="effect1_backgroundBlur_218_10554"/>
<feBlend mode="normal" in="SourceGraphic" in2="effect1_backgroundBlur_218_10554" result="shape"/>
</filter>
<linearGradient id="paint0_linear_218_10554" x1="680.634" y1="599.017" x2="-37.9587" y2="112.452" gradientUnits="userSpaceOnUse">
<stop stop-color="#9F3FFF"/>
<stop offset="1" stop-color="#EB00FF"/>
</linearGradient>
<linearGradient id="paint1_linear_218_10554" x1="1153.4" y1="-51.1915" x2="1153.4" y2="275.5" gradientUnits="userSpaceOnUse">
<stop stop-color="#3FE8FF"/>
<stop offset="1" stop-color="#2400FF"/>
</linearGradient>
<clipPath id="clip0_218_10554">
<rect width="1440" height="550" fill="white" transform="translate(0.5 0.5)"/>
</clipPath>
</defs>
</svg>
