<svg width="180" height="180" viewBox="0 0 180 180" fill="none" xmlns="http://www.w3.org/2000/svg">
<g clip-path="url(#clip0_271_14013)">
<path d="M4.10793 109.724C3.00491 109.724 2.01799 108.947 1.79131 107.824C-0.254401 97.6709 -0.550199 87.3739 0.90944 77.2179C2.32208 67.3994 5.33812 57.9266 9.87461 49.0595C10.469 47.8951 11.8954 47.436 13.0593 48.0306C14.2231 48.6253 14.682 50.0524 14.0877 51.2168C9.78891 59.6165 6.93045 68.5914 5.59245 77.89C4.21021 87.5122 4.49219 97.2671 6.43008 106.886C6.68718 108.167 5.8606 109.414 4.57789 109.674C4.42031 109.705 4.26274 109.721 4.10793 109.721V109.724Z" fill="url(#paint0_linear_271_14013)"/>
<path d="M19.2353 40.7208C18.7515 40.7208 18.2622 40.5742 17.842 40.2644C16.786 39.4927 16.5565 38.0131 17.325 36.9565C30.6055 18.7521 50.0923 6.26738 72.1969 1.80893C91.8108 -2.14614 111.646 0.412212 129.562 9.21017C130.735 9.78546 131.218 11.2043 130.643 12.377C130.068 13.5497 128.65 14.0337 127.478 13.4584C110.507 5.12511 91.7141 2.69951 73.1341 6.44992C52.1932 10.6733 33.7294 22.4998 21.1483 39.75C20.6866 40.3861 19.9651 40.7208 19.2353 40.7208Z" fill="url(#paint1_linear_271_14013)"/>
<path d="M175.839 75.083C174.736 75.083 173.75 74.3059 173.523 73.183C169.185 51.6569 156.906 32.8551 138.945 20.2458C137.875 19.4963 137.618 18.0194 138.367 16.949C139.119 15.8787 140.593 15.6215 141.662 16.371C160.621 29.6827 173.581 49.5244 178.159 72.2481C178.416 73.5287 177.587 74.776 176.307 75.036C176.149 75.0692 175.992 75.083 175.837 75.083H175.839Z" fill="url(#paint2_linear_271_14013)"/>
<path d="M177.62 94.1667C177.606 94.1667 177.589 94.1667 177.573 94.1667C176.268 94.1418 175.228 93.0632 175.253 91.755C175.372 85.5458 174.805 79.2951 173.572 73.1744C173.315 71.8939 174.142 70.6437 175.425 70.3865C176.707 70.1265 177.954 70.9563 178.211 72.2396C179.513 78.6977 180.11 85.2941 179.986 91.8462C179.961 93.1379 178.908 94.1667 177.622 94.1667H177.62Z" fill="url(#paint3_linear_271_14013)"/>
<path d="M4.99536 113.455C3.93104 113.455 2.96624 112.733 2.70085 111.655C2.38294 110.357 2.09267 109.066 1.8411 107.818C1.58124 106.538 2.41058 105.288 3.69053 105.031C4.97324 104.771 6.22002 105.6 6.47711 106.881C6.71486 108.065 6.9913 109.29 7.29539 110.521C7.60778 111.79 6.83373 113.071 5.56484 113.383C5.37409 113.43 5.18334 113.452 4.99812 113.452L4.99536 113.455Z" fill="url(#paint4_linear_271_14013)"/>
<path d="M67.3617 177.079C66.806 177.079 66.2504 176.886 65.8025 176.49C64.8211 175.627 64.7244 174.134 65.5869 173.149C75.1685 162.238 82.276 149.092 86.1352 135.139C90.1824 120.508 90.7021 105.49 87.6805 90.5021C87.4234 89.2215 88.25 87.9741 89.5327 87.7142C90.8127 87.4542 92.0622 88.2839 92.3193 89.5672C95.4901 105.291 94.9455 121.05 90.6965 136.403C86.6466 151.042 79.1936 164.83 69.142 176.275C68.6748 176.808 68.0196 177.079 67.3644 177.079H67.3617Z" fill="url(#paint5_linear_271_14013)"/>
<path d="M56.0386 173.199C55.4443 173.199 54.8471 172.975 54.3882 172.527C53.4538 171.614 53.4345 170.115 54.3468 169.18C62.4162 160.905 68.6363 151.25 72.8355 140.482C73.311 139.266 74.6822 138.663 75.8985 139.138C77.1149 139.614 77.7176 140.986 77.2421 142.203C72.8106 153.562 66.2478 163.751 57.7332 172.485C57.2688 172.961 56.6551 173.199 56.0386 173.199Z" fill="url(#paint6_linear_271_14013)"/>
<path d="M79.6248 179.441C79.1162 179.441 78.602 179.278 78.1707 178.941C77.1423 178.136 76.9599 176.648 77.7643 175.619C97.0852 150.882 104.613 119.07 98.4177 88.3391L98.2573 87.5481C97.6823 85.6176 96.4604 83.9637 94.7603 82.8324C92.8362 81.5547 90.5334 81.1011 88.2721 81.5602C83.9927 82.4231 81.0872 86.3312 81.3526 90.5766L81.5848 91.7327C84.0452 103.952 83.9816 116.276 81.3941 128.368C81.1204 129.646 79.8626 130.459 78.5854 130.185C77.3082 129.912 76.4955 128.653 76.7691 127.375C79.0609 116.675 79.2627 105.777 77.3773 94.9493L77.3276 94.9576L76.8687 92.6814C75.4118 85.4489 80.1059 78.3795 87.3349 76.922C90.8348 76.2139 94.4009 76.9137 97.3782 78.894C100.353 80.8715 102.382 83.889 103.09 87.3932L103.507 89.4565L103.452 89.4731C109.18 120.915 101.232 153.26 81.4908 178.534C81.0237 179.132 80.327 179.444 79.6248 179.444V179.441Z" fill="url(#paint7_linear_271_14013)"/>
<path d="M45.691 168.008C45.058 168.008 44.4277 167.756 43.9632 167.258C43.0703 166.304 43.1201 164.805 44.0738 163.914C61.6641 147.45 70.2422 123.415 67.0216 99.6181C66.8475 98.3237 67.7542 97.1316 69.048 96.9546C70.3445 96.7776 71.5333 97.6876 71.7102 98.982C75.1354 124.294 66.0126 149.861 47.3082 167.369C46.8521 167.795 46.2716 168.008 45.6938 168.008H45.691Z" fill="url(#paint8_linear_271_14013)"/>
<path d="M113.868 111.68C112.566 111.68 111.508 110.623 111.505 109.32C111.485 101.607 110.692 93.8182 109.155 86.1708L108.97 85.2553C107.784 80.512 104.914 76.4408 100.817 73.7165C96.4605 70.8207 91.2384 69.7946 86.1103 70.829C78.4141 72.3806 72.4069 78.3519 70.8035 86.0381C70.5353 87.3186 69.283 88.14 68.0058 87.8718C66.7259 87.6035 65.9076 86.3506 66.173 85.0728C68.1634 75.5281 75.6247 68.1185 85.1759 66.1908C91.5425 64.9047 98.0252 66.177 103.435 69.7752C108.845 73.3708 112.53 78.8608 113.813 85.2304L114.195 87.1278L114.161 87.1416C115.522 94.4792 116.218 101.927 116.238 109.312C116.24 110.62 115.184 111.682 113.879 111.685H113.874L113.868 111.68Z" fill="url(#paint9_linear_271_14013)"/>
<path d="M92.7754 180C92.3165 180 91.8493 179.865 91.4429 179.585C90.3648 178.847 90.0884 177.375 90.8265 176.297C101.694 160.404 108.583 141.951 110.75 122.939C110.899 121.642 112.071 120.707 113.368 120.856C114.664 121.003 115.599 122.179 115.45 123.476C113.197 143.254 106.031 162.443 94.7299 178.968C94.271 179.638 93.5301 180 92.7754 180Z" fill="url(#paint10_linear_271_14013)"/>
<path d="M36.3417 161.69C35.6782 161.69 35.0203 161.414 34.5531 160.874C33.6989 159.887 33.8039 158.391 34.7936 157.536C43.1423 150.301 49.495 140.969 53.1635 130.545C56.6882 120.533 57.6198 109.765 55.8948 99.2583H55.8754L55.4221 97.0097C53.5588 87.7747 55.4055 78.3656 60.6165 70.519C65.8275 62.6725 73.7809 57.3262 83.0142 55.4621C86.2238 54.8149 89.4969 54.613 92.7368 54.8647C94.0389 54.967 95.012 56.1038 94.9125 57.4064C94.8102 58.7091 93.6768 59.6827 92.3719 59.5831C89.566 59.3646 86.7324 59.5389 83.9514 60.1003C75.9593 61.7128 69.0702 66.3427 64.5586 73.1355C60.4092 79.3861 58.7256 86.7791 59.7374 94.1471L60.1244 96.061C62.5544 108.112 61.6919 120.58 57.6309 132.116C53.6887 143.314 46.866 153.343 37.8953 161.112C37.4475 161.499 36.8974 161.69 36.3472 161.69H36.3417Z" fill="url(#paint11_linear_271_14013)"/>
<path d="M106.739 178.412C106.332 178.412 105.92 178.307 105.545 178.086C104.417 177.425 104.041 175.976 104.701 174.847C120.774 147.435 126.167 115.173 119.884 84.0022L119.676 82.9761C117.7 74.6483 112.334 67.5347 104.829 63.3473C103.687 62.7112 103.278 61.2702 103.916 60.1279C104.552 58.9857 105.992 58.5763 107.134 59.2152C116.152 64.249 122.496 72.939 124.539 83.0591L124.946 85.0698L124.912 85.0808C130.801 116.766 125.1 149.413 108.782 177.24C108.342 177.992 107.552 178.409 106.739 178.409V178.412Z" fill="url(#paint12_linear_271_14013)"/>
<path d="M28.0261 154.361C27.3405 154.361 26.6632 154.065 26.196 153.496C25.3695 152.483 25.516 150.993 26.5278 150.166C33.5329 144.424 38.9706 136.923 42.2521 128.471C42.7248 127.251 44.096 126.648 45.3123 127.121C46.5287 127.594 47.1341 128.966 46.6614 130.183C43.0842 139.393 37.1599 147.569 29.5245 153.825C29.0849 154.184 28.5541 154.361 28.0261 154.361Z" fill="url(#paint13_linear_271_14013)"/>
<path d="M133.897 135.012C133.77 135.012 133.64 135.001 133.51 134.979C132.222 134.766 131.348 133.549 131.561 132.26C134.309 115.552 133.994 98.5864 130.618 81.8369L130.491 81.2007C128.188 70.6078 121.971 61.4917 112.926 55.4789C103.701 49.3472 92.6429 47.176 81.7869 49.3666C70.928 51.5571 61.5731 57.8464 55.4415 67.0759C49.708 75.7079 47.4411 85.9496 48.9644 96.1249L49.3873 98.2214C50.5484 103.991 50.8221 109.843 50.2001 115.624C50.0618 116.924 48.8925 117.864 47.5959 117.723C46.2966 117.585 45.3567 116.417 45.4977 115.118C45.9843 110.595 45.8709 106.018 45.1632 101.482L44.696 99.17C42.255 87.067 44.6711 74.7399 51.5021 64.4567C58.3304 54.1735 68.7552 47.1678 80.8525 44.7283C92.947 42.2889 105.268 44.7062 115.547 51.5377C125.825 58.3692 132.827 68.7962 135.265 80.8993L135.487 82.0028L135.478 82.0111C138.76 98.9654 139.014 116.124 136.233 133.029C136.042 134.188 135.039 135.012 133.903 135.012H133.897Z" fill="url(#paint14_linear_271_14013)"/>
<path d="M121.402 174.211C121.053 174.211 120.699 174.134 120.368 173.971C119.193 173.398 118.706 171.982 119.278 170.807C123.201 162.753 126.358 154.298 128.664 145.674C129.001 144.413 130.298 143.663 131.561 144.001C132.822 144.338 133.571 145.635 133.233 146.899C130.85 155.813 127.586 164.553 123.53 172.881C123.121 173.722 122.278 174.211 121.402 174.211Z" fill="url(#paint15_linear_271_14013)"/>
<path d="M136.637 166.589C136.355 166.589 136.07 166.539 135.793 166.431C134.574 165.963 133.963 164.597 134.431 163.375C144.554 136.901 146.984 108.178 141.474 80.2684L141.353 79.671C139.843 72.1923 136.822 65.2972 132.368 59.1765C131.6 58.12 131.832 56.6403 132.888 55.8714C133.944 55.1025 135.423 55.3348 136.192 56.3914C140.855 62.7969 144.081 69.9824 145.784 77.7598L145.795 77.7653L145.994 78.7389C151.836 107.713 149.367 137.567 138.851 165.067C138.492 166.01 137.593 166.589 136.642 166.589H136.637Z" fill="url(#paint16_linear_271_14013)"/>
<path d="M124.705 50.0246C124.177 50.0246 123.649 49.8504 123.21 49.4881C110.982 39.4704 95.0949 35.5153 79.6194 38.6379C75.6358 39.44 71.76 40.6984 68.0999 42.3772C66.9112 42.9221 65.5096 42.3994 64.965 41.2129C64.4204 40.0236 64.9429 38.6213 66.1288 38.0765C70.1207 36.2455 74.3448 34.8737 78.685 33.9997C95.5566 30.5978 112.879 34.9096 126.206 45.8289C127.218 46.6559 127.365 48.1494 126.538 49.159C126.071 49.7315 125.391 50.0274 124.708 50.0274L124.705 50.0246Z" fill="url(#paint17_linear_271_14013)"/>
<path d="M20.7694 146.138C20.0782 146.138 19.3899 145.837 18.9227 145.253C18.1044 144.236 18.2675 142.745 19.2848 141.926C30.9509 132.55 36.618 117.847 34.3401 103.186L33.9669 101.336C29.7539 80.429 37.4253 59.0799 53.9872 45.6243C55.0018 44.8001 56.4918 44.955 57.3156 45.97C58.1394 46.9851 57.9846 48.4758 56.9701 49.3C42.3267 61.1985 35.2607 79.8177 38.2297 98.3208L38.6472 100.392C42.0779 117.402 35.7942 134.732 22.2483 145.618C21.8116 145.97 21.2891 146.141 20.7694 146.141V146.138Z" fill="url(#paint18_linear_271_14013)"/>
<path d="M14.5853 137.05C13.9136 137.05 13.2473 136.765 12.7801 136.212C11.9342 135.216 12.0586 133.723 13.0566 132.877C21.1952 125.976 25.1318 115.366 23.5284 104.901L23.2464 103.498C22.5332 99.972 22.0964 96.3516 21.9471 92.7367C21.8918 91.4313 22.9064 90.3278 24.2112 90.2752C25.516 90.2254 26.6191 91.2349 26.6716 92.5404C26.7822 95.2038 27.0614 97.8728 27.5009 100.5L27.9156 102.555C30.4562 115.162 25.9335 128.164 16.1141 136.489C15.669 136.865 15.1272 137.05 14.5853 137.05Z" fill="url(#paint19_linear_271_14013)"/>
<path d="M155.891 87.9217C154.738 87.9217 153.729 87.0781 153.555 85.9027C153.193 83.4688 152.775 81.0321 152.311 78.6453L152.073 77.5085C148.728 60.9138 139.127 46.6147 125.034 37.247C110.941 27.8793 94.0444 24.5631 77.4548 27.9097C64.694 30.4847 53.2132 36.799 44.248 46.1694C35.4846 55.3325 29.7097 66.7524 27.5479 79.1957C27.3239 80.4845 26.102 81.3474 24.8138 81.1234C23.5256 80.8994 22.6658 79.6741 22.887 78.3881C25.2091 65.0155 31.4126 52.7437 40.8284 42.9003C50.4653 32.8273 62.8059 26.0401 76.5176 23.2743C94.3457 19.6788 112.503 23.2411 127.649 33.3085C142.309 43.0524 152.449 57.7608 156.342 74.87H156.364L156.72 76.5792C157.29 79.4059 157.799 82.3099 158.23 85.2085C158.423 86.5001 157.53 87.706 156.239 87.8968C156.12 87.9134 156.004 87.9217 155.888 87.9217H155.891Z" fill="url(#paint20_linear_271_14013)"/>
<path d="M152.159 154.137C151.957 154.137 151.753 154.112 151.548 154.057C150.285 153.72 149.536 152.423 149.873 151.161C154.368 134.304 156.087 116.926 154.99 99.5048C154.907 98.1993 155.899 97.0764 157.201 96.9934C158.506 96.9077 159.629 97.9006 159.712 99.2061C160.842 117.137 159.07 135.029 154.442 152.378C154.16 153.438 153.204 154.135 152.159 154.135V154.137Z" fill="url(#paint21_linear_271_14013)"/>
<path d="M9.41844 126.855C8.84343 126.855 8.26566 126.648 7.80952 126.225C6.85302 125.337 6.79496 123.838 7.68236 122.881C11.7793 118.461 13.6204 112.382 12.6888 106.471L12.5174 105.664C8.34583 84.9646 12.4787 63.8755 24.1613 46.2879C35.8412 28.7003 53.6693 16.7162 74.3586 12.5426C83.0473 10.7891 91.8659 10.4959 100.566 11.6741C101.859 11.8484 102.769 13.0404 102.592 14.3376C102.418 15.632 101.224 16.5419 99.9299 16.3649C91.7553 15.2586 83.4647 15.5324 75.2929 17.1836C55.8421 21.1082 39.0812 32.3733 28.1007 48.9099C17.3691 65.0704 13.4131 84.3755 16.9019 103.41L17.1838 104.726C18.7236 112.376 16.4706 120.367 11.1545 126.103C10.6873 126.606 10.0543 126.861 9.41844 126.861V126.855Z" fill="url(#paint22_linear_271_14013)"/>
<path d="M167.297 133.596C167.201 133.596 167.101 133.59 167.002 133.576C165.705 133.416 164.784 132.232 164.948 130.935C167.184 112.96 166.57 94.7777 163.12 76.861L162.8 75.3426C157.483 48.9542 138.248 27.4502 112.597 19.222C111.353 18.8238 110.667 17.4907 111.065 16.2461C111.463 15.0015 112.796 14.3155 114.04 14.7138C140.601 23.2352 160.696 45.143 166.957 72.1951L166.99 72.1896L167.458 74.4022C171.27 93.3091 172.005 112.526 169.642 131.516C169.492 132.713 168.472 133.59 167.297 133.59V133.596Z" fill="url(#paint23_linear_271_14013)"/>
</g>
<defs>
<linearGradient id="paint0_linear_271_14013" x1="7.17373" y1="-0.188067" x2="7.17373" y2="190.02" gradientUnits="userSpaceOnUse">
<stop stop-color="#D968D0"/>
<stop offset="1" stop-color="#EB4634"/>
</linearGradient>
<linearGradient id="paint1_linear_271_14013" x1="73.8777" y1="-0.187964" x2="73.8777" y2="190.021" gradientUnits="userSpaceOnUse">
<stop stop-color="#D968D0"/>
<stop offset="1" stop-color="#EB4634"/>
</linearGradient>
<linearGradient id="paint2_linear_271_14013" x1="158.075" y1="-0.187769" x2="158.075" y2="190.021" gradientUnits="userSpaceOnUse">
<stop stop-color="#D968D0"/>
<stop offset="1" stop-color="#EB4634"/>
</linearGradient>
<linearGradient id="paint3_linear_271_14013" x1="176.763" y1="-0.187983" x2="176.763" y2="190.021" gradientUnits="userSpaceOnUse">
<stop stop-color="#D968D0"/>
<stop offset="1" stop-color="#EB4634"/>
</linearGradient>
<linearGradient id="paint4_linear_271_14013" x1="4.57792" y1="-0.188119" x2="4.57792" y2="190.02" gradientUnits="userSpaceOnUse">
<stop stop-color="#D968D0"/>
<stop offset="1" stop-color="#EB4634"/>
</linearGradient>
<linearGradient id="paint5_linear_271_14013" x1="79.6719" y1="-0.187993" x2="79.6719" y2="190.021" gradientUnits="userSpaceOnUse">
<stop stop-color="#D968D0"/>
<stop offset="1" stop-color="#EB4634"/>
</linearGradient>
<linearGradient id="paint6_linear_271_14013" x1="65.5373" y1="-0.188033" x2="65.5373" y2="190.02" gradientUnits="userSpaceOnUse">
<stop stop-color="#D968D0"/>
<stop offset="1" stop-color="#EB4634"/>
</linearGradient>
<linearGradient id="paint7_linear_271_14013" x1="90.937" y1="-0.188091" x2="90.937" y2="190.02" gradientUnits="userSpaceOnUse">
<stop stop-color="#D968D0"/>
<stop offset="1" stop-color="#EB4634"/>
</linearGradient>
<linearGradient id="paint8_linear_271_14013" x1="57.8713" y1="-0.188001" x2="57.8713" y2="190.021" gradientUnits="userSpaceOnUse">
<stop stop-color="#D968D0"/>
<stop offset="1" stop-color="#EB4634"/>
</linearGradient>
<linearGradient id="paint9_linear_271_14013" x1="91.1776" y1="-0.188021" x2="91.1776" y2="190.02" gradientUnits="userSpaceOnUse">
<stop stop-color="#D968D0"/>
<stop offset="1" stop-color="#EB4634"/>
</linearGradient>
<linearGradient id="paint10_linear_271_14013" x1="102.938" y1="-0.188052" x2="102.938" y2="190.02" gradientUnits="userSpaceOnUse">
<stop stop-color="#D968D0"/>
<stop offset="1" stop-color="#EB4634"/>
</linearGradient>
<linearGradient id="paint11_linear_271_14013" x1="64.4453" y1="-0.188246" x2="64.4453" y2="190.02" gradientUnits="userSpaceOnUse">
<stop stop-color="#D968D0"/>
<stop offset="1" stop-color="#EB4634"/>
</linearGradient>
<linearGradient id="paint12_linear_271_14013" x1="115.392" y1="-0.188286" x2="115.392" y2="190.02" gradientUnits="userSpaceOnUse">
<stop stop-color="#D968D0"/>
<stop offset="1" stop-color="#EB4634"/>
</linearGradient>
<linearGradient id="paint13_linear_271_14013" x1="36.2394" y1="-0.187882" x2="36.2394" y2="190.021" gradientUnits="userSpaceOnUse">
<stop stop-color="#D968D0"/>
<stop offset="1" stop-color="#EB4634"/>
</linearGradient>
<linearGradient id="paint14_linear_271_14013" x1="90.9538" y1="-0.188002" x2="90.9538" y2="190.02" gradientUnits="userSpaceOnUse">
<stop stop-color="#D968D0"/>
<stop offset="1" stop-color="#EB4634"/>
</linearGradient>
<linearGradient id="paint15_linear_271_14013" x1="126.176" y1="-0.187844" x2="126.176" y2="190.021" gradientUnits="userSpaceOnUse">
<stop stop-color="#D968D0"/>
<stop offset="1" stop-color="#EB4634"/>
</linearGradient>
<linearGradient id="paint16_linear_271_14013" x1="140.496" y1="-0.188288" x2="140.496" y2="190.02" gradientUnits="userSpaceOnUse">
<stop stop-color="#D968D0"/>
<stop offset="1" stop-color="#EB4634"/>
</linearGradient>
<linearGradient id="paint17_linear_271_14013" x1="95.9104" y1="-0.18817" x2="95.9104" y2="190.023" gradientUnits="userSpaceOnUse">
<stop stop-color="#D968D0"/>
<stop offset="1" stop-color="#EB4634"/>
</linearGradient>
<linearGradient id="paint18_linear_271_14013" x1="38.1219" y1="-0.188135" x2="38.1219" y2="190.02" gradientUnits="userSpaceOnUse">
<stop stop-color="#D968D0"/>
<stop offset="1" stop-color="#EB4634"/>
</linearGradient>
<linearGradient id="paint19_linear_271_14013" x1="20.4156" y1="-0.188057" x2="20.4156" y2="190.02" gradientUnits="userSpaceOnUse">
<stop stop-color="#D968D0"/>
<stop offset="1" stop-color="#EB4634"/>
</linearGradient>
<linearGradient id="paint20_linear_271_14013" x1="90.5556" y1="-0.187873" x2="90.5556" y2="190.021" gradientUnits="userSpaceOnUse">
<stop stop-color="#D968D0"/>
<stop offset="1" stop-color="#EB4634"/>
</linearGradient>
<linearGradient id="paint21_linear_271_14013" x1="154.915" y1="-0.187913" x2="154.915" y2="190.021" gradientUnits="userSpaceOnUse">
<stop stop-color="#D968D0"/>
<stop offset="1" stop-color="#EB4634"/>
</linearGradient>
<linearGradient id="paint22_linear_271_14013" x1="54.8331" y1="-0.188318" x2="54.8331" y2="190.02" gradientUnits="userSpaceOnUse">
<stop stop-color="#D968D0"/>
<stop offset="1" stop-color="#EB4634"/>
</linearGradient>
<linearGradient id="paint23_linear_271_14013" x1="140.974" y1="-0.188237" x2="140.974" y2="190.02" gradientUnits="userSpaceOnUse">
<stop stop-color="#D968D0"/>
<stop offset="1" stop-color="#EB4634"/>
</linearGradient>
<clipPath id="clip0_271_14013">
<rect width="180" height="180" fill="white"/>
</clipPath>
</defs>
</svg>
