<svg width="60" height="60" viewBox="0 0 60 60" fill="none" xmlns="http://www.w3.org/2000/svg">
<path d="M35.877 18.2323H24.6017C24.1796 18.2323 23.8346 17.8873 23.8346 17.4697V14.2832C23.8346 13.6886 24.3157 13.2074 24.9104 13.2074H26.4355C26.4945 13.2074 26.5445 13.1802 26.5762 13.1302L26.9848 12.4948C27.1845 12.1861 27.5204 12 27.8881 12H32.577C32.9447 12 33.2806 12.1861 33.4803 12.4902L33.8888 13.1257C33.9206 13.1756 33.9751 13.2029 34.0295 13.2029H35.5547C36.1493 13.2029 36.6305 13.684 36.6305 14.2787V17.4651C36.6305 17.8873 36.2855 18.2277 35.8633 18.2277L35.877 18.2323ZM24.7424 17.3244H35.7317V14.2787C35.7317 14.1879 35.6545 14.1107 35.5638 14.1107H34.0386C33.6709 14.1107 33.335 13.9246 33.1353 13.6205L32.7268 12.985C32.695 12.9351 32.6451 12.9078 32.5861 12.9078H27.8971C27.8381 12.9078 27.7882 12.9351 27.7564 12.985L27.3479 13.6205C27.1482 13.9291 26.8123 14.1152 26.4446 14.1152H24.9195C24.8287 14.1152 24.7515 14.1924 24.7515 14.2832V17.329L24.7424 17.3244Z" fill="#F5F5F7"/>
<path d="M44.0247 47.9955H16.4539C16.2043 47.9955 16 47.7912 16 47.5416V15.8311C16 15.5814 16.2043 15.3771 16.4539 15.3771H22.6952C22.9449 15.3771 23.1492 15.5814 23.1492 15.8311C23.1492 16.0807 22.9449 16.285 22.6952 16.285H16.9078V47.0922H43.5708V16.285H37.7834C37.5337 16.285 37.3295 16.0807 37.3295 15.8311C37.3295 15.5814 37.5337 15.3771 37.7834 15.3771H44.0247C44.2744 15.3771 44.4786 15.5814 44.4786 15.8311V47.5461C44.4786 47.7957 44.2744 48 44.0247 48V47.9955Z" fill="#F5F5F7"/>
<path d="M40.7383 45.3991H19.7402C19.4906 45.3991 19.2863 45.1948 19.2863 44.9451V21.7092H20.1941V44.4912H40.2799V21.7092H41.1877V44.9451C41.1877 45.1948 40.9835 45.3991 40.7338 45.3991H40.7383Z" fill="#F5F5F7"/>
<path d="M20.1941 20.0751H19.2863V21.1101H20.1941V20.0751Z" fill="#F5F5F7"/>
<path d="M20.1941 18.5182H19.2863V19.5531H20.1941V18.5182Z" fill="#F5F5F7"/>
<path d="M41.1923 20.0751H40.2844V21.1101H41.1923V20.0751Z" fill="#F5F5F7"/>
<path d="M41.1923 18.5182H40.2844V19.5531H41.1923V18.5182Z" fill="#F5F5F7"/>
<path d="M32.8084 16.285H27.4931C27.2434 16.285 27.0392 16.0807 27.0392 15.8311C27.0392 15.5814 27.2434 15.3771 27.4931 15.3771H32.8084C33.0581 15.3771 33.2624 15.5814 33.2624 15.8311C33.2624 16.0807 33.0581 16.285 32.8084 16.285Z" fill="#F5F5F7"/>
<path d="M36.0358 26.4163C34.4244 26.4163 33.1125 25.1045 33.1125 23.4931C33.1125 23.2435 33.3168 23.0392 33.5665 23.0392C33.8161 23.0392 34.0204 23.2435 34.0204 23.4931C34.0204 24.6052 34.9237 25.5085 36.0358 25.5085C37.1479 25.5085 38.0511 24.6052 38.0511 23.4931C38.0511 23.2526 38.0103 23.0211 37.9286 22.7986C37.8423 22.5626 37.9649 22.3039 38.1964 22.2176C38.4324 22.1314 38.6912 22.2494 38.7774 22.4854C38.8954 22.8077 38.9544 23.1482 38.9544 23.4931C38.9544 25.1045 37.6426 26.4163 36.0312 26.4163H36.0358Z" fill="#F5F5F7"/>
<path d="M36.0358 23.9471C35.9087 23.9471 35.7816 23.8926 35.6954 23.7973L33.0627 20.8423C32.8947 20.6562 32.9129 20.3702 33.099 20.2023C33.2851 20.0343 33.571 20.0525 33.739 20.2386L35.9269 22.6942L37.9695 18.6272C38.083 18.4048 38.3553 18.314 38.5777 18.4274C38.8002 18.5409 38.8909 18.8133 38.7775 19.0357L36.4353 23.7019C36.3672 23.8381 36.2401 23.9289 36.0903 23.9471C36.0721 23.9471 36.0494 23.9471 36.0313 23.9471H36.0358Z" fill="#F5F5F7"/>
<path d="M30.9928 23.5067H22.0507C21.801 23.5067 21.5967 23.3024 21.5967 23.0528C21.5967 22.8031 21.801 22.5989 22.0507 22.5989H30.9928C31.2424 22.5989 31.4467 22.8031 31.4467 23.0528C31.4467 23.3024 31.2424 23.5067 30.9928 23.5067Z" fill="#F5F5F7"/>
<path d="M29.2543 25.7945H22.0507C21.801 25.7945 21.5967 25.5902 21.5967 25.3406C21.5967 25.0909 21.801 24.8867 22.0507 24.8867H29.2543C29.5039 24.8867 29.7082 25.0909 29.7082 25.3406C29.7082 25.5902 29.5039 25.7945 29.2543 25.7945Z" fill="#F5F5F7"/>
<path d="M30.8658 31.9586H21.9236C21.674 31.9586 21.4697 31.7543 21.4697 31.5047C21.4697 31.255 21.674 31.0508 21.9236 31.0508H30.8658C31.1154 31.0508 31.3197 31.255 31.3197 31.5047C31.3197 31.7543 31.1154 31.9586 30.8658 31.9586Z" fill="#F5F5F7"/>
<path d="M29.1273 34.2464H21.9236C21.674 34.2464 21.4697 34.0421 21.4697 33.7925C21.4697 33.5428 21.674 33.3386 21.9236 33.3386H29.1273C29.3769 33.3386 29.5812 33.5428 29.5812 33.7925C29.5812 34.0421 29.3769 34.2464 29.1273 34.2464Z" fill="#F5F5F7"/>
<path d="M35.9087 43.4745C34.2974 43.4745 32.9855 42.1626 32.9855 40.5512C32.9855 40.3016 33.1898 40.0973 33.4394 40.0973C33.6891 40.0973 33.8934 40.3016 33.8934 40.5512C33.8934 41.6633 34.7967 42.5666 35.9087 42.5666C37.0208 42.5666 37.9241 41.6633 37.9241 40.5512C37.9241 40.3107 37.8833 40.0792 37.8016 39.8568C37.7153 39.6207 37.8333 39.362 38.0694 39.2757C38.3054 39.1895 38.5642 39.3075 38.6504 39.5436C38.7684 39.8658 38.8274 40.2063 38.8274 40.5512C38.8274 42.1626 37.5156 43.4745 35.9042 43.4745H35.9087Z" fill="#F5F5F7"/>
<path d="M35.9087 41.0097C35.7816 41.0097 35.6545 40.9552 35.5683 40.8599L32.9356 37.9049C32.7676 37.7188 32.7858 37.4328 32.9719 37.2649C33.158 37.0969 33.444 37.1151 33.6119 37.3012L35.7998 39.7569L37.8424 35.6853C37.9559 35.4629 38.2282 35.3721 38.4507 35.4856C38.6731 35.599 38.7639 35.8714 38.6504 36.0938L36.3082 40.76C36.2401 40.8962 36.113 40.987 35.9632 41.0052C35.945 41.0052 35.9223 41.0052 35.9042 41.0052L35.9087 41.0097Z" fill="#F5F5F7"/>
<path d="M30.8658 40.5649H21.9236C21.674 40.5649 21.4697 40.3606 21.4697 40.111C21.4697 39.8613 21.674 39.657 21.9236 39.657H30.8658C31.1154 39.657 31.3197 39.8613 31.3197 40.111C31.3197 40.3606 31.1154 40.5649 30.8658 40.5649Z" fill="#F5F5F7"/>
<path d="M29.1273 42.8526H21.9236C21.674 42.8526 21.4697 42.6483 21.4697 42.3987C21.4697 42.149 21.674 41.9448 21.9236 41.9448H29.1273C29.3769 41.9448 29.5812 42.149 29.5812 42.3987C29.5812 42.6483 29.3769 42.8526 29.1273 42.8526Z" fill="#F5F5F7"/>
<path d="M38.2827 34.6413C38.1647 34.6413 38.0512 34.5959 37.9604 34.5097L33.217 29.7663C33.04 29.5892 33.04 29.3033 33.217 29.1262C33.394 28.9492 33.68 28.9492 33.857 29.1262L38.6004 33.8697C38.7775 34.0467 38.7775 34.3326 38.6004 34.5097C38.5096 34.6005 38.3962 34.6413 38.2782 34.6413H38.2827Z" fill="#F5F5F7"/>
<path d="M33.5393 34.6413C33.4213 34.6413 33.3078 34.5959 33.217 34.5097C33.04 34.3326 33.04 34.0467 33.217 33.8697L37.9604 29.1262C38.1374 28.9492 38.4234 28.9492 38.6004 29.1262C38.7775 29.3033 38.7775 29.5892 38.6004 29.7663L33.857 34.5097C33.7662 34.6005 33.6528 34.6413 33.5347 34.6413H33.5393Z" fill="#F5F5F7"/>
<path d="M35.1143 30.0704C34.9237 30.0704 34.7467 29.9523 34.6831 29.7617C34.6014 29.5257 34.7285 29.2669 34.9645 29.1852C35.5773 28.9764 36.231 28.9764 36.8437 29.1852C37.0798 29.2669 37.2069 29.5257 37.1252 29.7617C37.0435 29.9977 36.7847 30.1248 36.5487 30.0431C36.122 29.8979 35.6772 29.8979 35.255 30.0431C35.2051 30.0613 35.1552 30.0658 35.1098 30.0658L35.1143 30.0704Z" fill="#F5F5F7"/>
<path d="M38.2373 33.1978C38.1873 33.1978 38.1374 33.1888 38.092 33.1752C37.856 33.0934 37.7289 32.8347 37.8106 32.5987C37.8832 32.3853 37.9195 32.1675 37.9195 31.9496C37.9195 31.6727 37.8651 31.4049 37.7516 31.1462C37.6517 30.9147 37.7561 30.6468 37.9876 30.547C38.2191 30.4471 38.4869 30.5515 38.5868 30.783C38.7456 31.1552 38.8319 31.5456 38.8319 31.9496C38.8319 32.2673 38.7774 32.5851 38.673 32.8892C38.6095 33.0798 38.4324 33.1978 38.2418 33.1978H38.2373Z" fill="#F5F5F7"/>
<path d="M33.5801 33.1978C33.3894 33.1978 33.2169 33.0798 33.1489 32.8892C33.0445 32.5805 32.99 32.2673 32.99 31.9496C32.99 31.5456 33.0717 31.1552 33.2351 30.783C33.335 30.5515 33.6028 30.4471 33.8343 30.547C34.0658 30.6468 34.1702 30.9147 34.0703 31.1462C33.9568 31.4003 33.9024 31.6727 33.9024 31.9496C33.9024 32.1675 33.9387 32.3853 34.0113 32.5987C34.093 32.8347 33.9659 33.0934 33.7299 33.1752C33.6799 33.1933 33.63 33.1978 33.5846 33.1978H33.5801Z" fill="#F5F5F7"/>
<path d="M35.9087 34.8637C35.5047 34.8637 35.1143 34.782 34.7421 34.6186C34.5106 34.5187 34.4062 34.2509 34.5061 34.0194C34.606 33.7879 34.8738 33.6835 35.1053 33.7834C35.6136 34.0058 36.1992 34.0058 36.7076 33.7834C36.9391 33.6835 37.2069 33.7834 37.3067 34.0194C37.4066 34.2509 37.3022 34.5187 37.0707 34.6186C36.703 34.782 36.3081 34.8637 35.9041 34.8637H35.9087Z" fill="#F5F5F7"/>
</svg>
