<svg width="24" height="25" viewBox="0 0 24 25" fill="none" xmlns="http://www.w3.org/2000/svg">
<path d="M6.69675 2.93088C6.41554 3.21217 6.25757 3.59363 6.25757 3.99138C6.25757 4.38913 6.41554 4.77059 6.69675 5.05188L14.1217 12.4769L6.69675 19.9019C6.42351 20.1848 6.27232 20.5637 6.27574 20.957C6.27915 21.3503 6.43691 21.7265 6.71502 22.0046C6.99313 22.2827 7.36935 22.4405 7.76265 22.4439C8.15594 22.4473 8.53484 22.2961 8.81775 22.0229L17.3032 13.5374C17.5845 13.2561 17.7424 12.8746 17.7424 12.4769C17.7424 12.0791 17.5845 11.6977 17.3032 11.4164L8.81775 2.93088C8.53646 2.64967 8.15499 2.4917 7.75725 2.4917C7.3595 2.4917 6.97804 2.64967 6.69675 2.93088Z" fill="#2F2F3E"/>
</svg>
