<svg width="24" height="25" viewBox="0 0 24 25" fill="none" xmlns="http://www.w3.org/2000/svg">
<path d="M17.3031 22.0048C17.5843 21.7235 17.7423 21.342 17.7423 20.9443C17.7423 20.5465 17.5843 20.1651 17.3031 19.8838L9.87813 12.4588L17.3031 5.03379C17.5764 4.75089 17.7276 4.37198 17.7241 3.97869C17.7207 3.58539 17.563 3.20917 17.2849 2.93106C17.0067 2.65295 16.6305 2.4952 16.2372 2.49178C15.8439 2.48836 15.465 2.63955 15.1821 2.91279L6.69663 11.3983C6.41542 11.6796 6.25745 12.061 6.25745 12.4588C6.25745 12.8565 6.41542 13.238 6.69663 13.5193L15.1821 22.0048C15.4634 22.286 15.8449 22.444 16.2426 22.444C16.6404 22.444 17.0218 22.286 17.3031 22.0048Z" fill="#2F2F3E"/>
</svg>
