<svg width="24" height="25" viewBox="0 0 24 25" fill="none" xmlns="http://www.w3.org/2000/svg">
<path d="M21.5369 7.16458C21.2556 6.88338 20.8741 6.7254 20.4764 6.7254C20.0786 6.7254 19.6972 6.88338 19.4159 7.16458L11.9909 14.5896L4.5659 7.16458C4.28299 6.89134 3.90409 6.74015 3.51079 6.74357C3.1175 6.74699 2.74128 6.90474 2.46317 7.18285C2.18505 7.46097 2.0273 7.83718 2.02388 8.23048C2.02047 8.62377 2.17166 9.00268 2.44489 9.28558L10.9304 17.7711C11.2117 18.0523 11.5931 18.2103 11.9909 18.2103C12.3886 18.2103 12.7701 18.0523 13.0514 17.7711L21.5369 9.28558C21.8181 9.00429 21.9761 8.62283 21.9761 8.22508C21.9761 7.82734 21.8181 7.44587 21.5369 7.16458Z" fill="#2F2F3E"/>
</svg>
