<svg width="24" height="25" viewBox="0 0 24 25" fill="none" xmlns="http://www.w3.org/2000/svg">
<path d="M2.46298 17.7711C2.74427 18.0523 3.12574 18.2103 3.52348 18.2103C3.92123 18.2103 4.30269 18.0523 4.58398 17.7711L12.009 10.3461L19.434 17.7711C19.7169 18.0443 20.0958 18.1955 20.4891 18.1921C20.8824 18.1887 21.2586 18.0309 21.5367 17.7528C21.8148 17.4747 21.9726 17.0985 21.976 16.7052C21.9794 16.3119 21.8282 15.933 21.555 15.6501L13.0695 7.16459C12.7882 6.88338 12.4067 6.72541 12.009 6.72541C11.6112 6.72541 11.2298 6.88338 10.9485 7.16459L2.46298 15.6501C2.18178 15.9314 2.0238 16.3128 2.0238 16.7106C2.0238 17.1083 2.18178 17.4898 2.46298 17.7711Z" fill="#2F2F3E"/>
</svg>
