<svg width="24" height="25" viewBox="0 0 24 25" fill="none" xmlns="http://www.w3.org/2000/svg">
<path d="M22 18.8315C22 19.3137 21.8084 19.7761 21.4675 20.1171C21.1265 20.4581 20.664 20.6496 20.1818 20.6496H3.81818C3.33597 20.6496 2.87351 20.4581 2.53253 20.1171C2.19156 19.7761 2 19.3137 2 18.8315V8.83147C2 8.34925 2.19156 7.88679 2.53253 7.54582C2.87351 7.20484 3.33597 7.01328 3.81818 7.01328H7.45455L9.27273 4.28601H14.7273L16.5455 7.01328H20.1818C20.664 7.01328 21.1265 7.20484 21.4675 7.54582C21.8084 7.88679 22 8.34925 22 8.83147V18.8315Z" stroke="#2F2F3E" stroke-width="2" stroke-linecap="round" stroke-linejoin="round"/>
<path d="M12 17.0133C14.0083 17.0133 15.6364 15.3852 15.6364 13.3769C15.6364 11.3686 14.0083 9.74057 12 9.74057C9.9917 9.74057 8.36365 11.3686 8.36365 13.3769C8.36365 15.3852 9.9917 17.0133 12 17.0133Z" stroke="#2F2F3E" stroke-width="2" stroke-linecap="round" stroke-linejoin="round"/>
</svg>
