<svg width="24" height="25" viewBox="0 0 24 25" fill="none" xmlns="http://www.w3.org/2000/svg">
<path d="M19.1564 7.32868C19.0572 7.22864 18.9391 7.14924 18.8091 7.09505C18.679 7.04087 18.5395 7.01297 18.3986 7.01297C18.2577 7.01297 18.1182 7.04087 17.9881 7.09505C17.8581 7.14924 17.74 7.22864 17.6408 7.32868L9.68924 15.2909L6.34852 11.9395C6.2455 11.84 6.12389 11.7618 5.99063 11.7092C5.85737 11.6567 5.71507 11.631 5.57185 11.6334C5.42864 11.6359 5.28732 11.6666 5.15595 11.7237C5.02459 11.7808 4.90575 11.8632 4.80624 11.9662C4.70672 12.0692 4.62847 12.1908 4.57596 12.3241C4.52344 12.4574 4.49769 12.5997 4.50016 12.7429C4.50264 12.8861 4.5333 13.0274 4.5904 13.1588C4.64749 13.2901 4.7299 13.409 4.83292 13.5085L8.93144 17.607C9.03066 17.707 9.14871 17.7864 9.27877 17.8406C9.40884 17.8948 9.54834 17.9227 9.68924 17.9227C9.83014 17.9227 9.96965 17.8948 10.0997 17.8406C10.2298 17.7864 10.3478 17.707 10.447 17.607L19.1564 8.89765C19.2647 8.7977 19.3512 8.6764 19.4103 8.54138C19.4695 8.40637 19.5 8.26056 19.5 8.11316C19.5 7.96577 19.4695 7.81996 19.4103 7.68495C19.3512 7.54993 19.2647 7.42863 19.1564 7.32868Z" fill="#2F2F3E"/>
</svg>
