<svg width="24" height="25" viewBox="0 0 24 25" fill="none" xmlns="http://www.w3.org/2000/svg">
<path d="M2 7.46783C2 6.80479 2.26339 6.16891 2.73223 5.70007C3.20107 5.23123 3.83696 4.96783 4.5 4.96783H19.5C20.163 4.96783 20.7989 5.23123 21.2678 5.70007C21.7366 6.16891 22 6.80479 22 7.46783V17.4678C22 18.1309 21.7366 18.7668 21.2678 19.2356C20.7989 19.7044 20.163 19.9678 19.5 19.9678H4.5C3.83696 19.9678 3.20107 19.7044 2.73223 19.2356C2.26339 18.7668 2 18.1309 2 17.4678V7.46783ZM4.5 6.21783C4.16848 6.21783 3.85054 6.34953 3.61612 6.58395C3.3817 6.81837 3.25 7.13631 3.25 7.46783V8.71783H20.75V7.46783C20.75 7.13631 20.6183 6.81837 20.3839 6.58395C20.1495 6.34953 19.8315 6.21783 19.5 6.21783H4.5ZM20.75 11.2178H3.25V17.4678C3.25 17.7994 3.3817 18.1173 3.61612 18.3517C3.85054 18.5861 4.16848 18.7178 4.5 18.7178H19.5C19.8315 18.7178 20.1495 18.5861 20.3839 18.3517C20.6183 18.1173 20.75 17.7994 20.75 17.4678V11.2178Z" fill="#2F2F3E"/>
<path d="M4.5 14.9678C4.5 14.6363 4.6317 14.3184 4.86612 14.084C5.10054 13.8495 5.41848 13.7178 5.75 13.7178H7C7.33152 13.7178 7.64946 13.8495 7.88388 14.084C8.1183 14.3184 8.25 14.6363 8.25 14.9678V16.2178C8.25 16.5494 8.1183 16.8673 7.88388 17.1017C7.64946 17.3361 7.33152 17.4678 7 17.4678H5.75C5.41848 17.4678 5.10054 17.3361 4.86612 17.1017C4.6317 16.8673 4.5 16.5494 4.5 16.2178V14.9678Z" fill="#2F2F3E"/>
</svg>
