<svg width="24" height="25" viewBox="0 0 24 25" fill="none" xmlns="http://www.w3.org/2000/svg">
<path d="M7 4.46783C7 3.9374 7.21071 3.42869 7.58579 3.05362C7.96086 2.67855 8.46957 2.46783 9 2.46783H15C15.5304 2.46783 16.0391 2.67855 16.4142 3.05362C16.7893 3.42869 17 3.9374 17 4.46783V6.46783H21C21.2652 6.46783 21.5196 6.57319 21.7071 6.76073C21.8946 6.94826 22 7.20262 22 7.46783C22 7.73305 21.8946 7.9874 21.7071 8.17494C21.5196 8.36248 21.2652 8.46783 21 8.46783H19.931L19.064 20.6098C19.0281 21.1144 18.8023 21.5866 18.4321 21.9314C18.0619 22.2762 17.5749 22.4678 17.069 22.4678H6.93C6.42414 22.4678 5.93707 22.2762 5.56688 21.9314C5.1967 21.5866 4.97092 21.1144 4.935 20.6098L4.07 8.46783H3C2.73478 8.46783 2.48043 8.36248 2.29289 8.17494C2.10536 7.9874 2 7.73305 2 7.46783C2 7.20262 2.10536 6.94826 2.29289 6.76073C2.48043 6.57319 2.73478 6.46783 3 6.46783H7V4.46783ZM9 6.46783H15V4.46783H9V6.46783ZM6.074 8.46783L6.931 20.4678H17.07L17.927 8.46783H6.074ZM10 10.4678C10.2652 10.4678 10.5196 10.5732 10.7071 10.7607C10.8946 10.9483 11 11.2026 11 11.4678V17.4678C11 17.7331 10.8946 17.9874 10.7071 18.1749C10.5196 18.3625 10.2652 18.4678 10 18.4678C9.73478 18.4678 9.48043 18.3625 9.29289 18.1749C9.10536 17.9874 9 17.7331 9 17.4678V11.4678C9 11.2026 9.10536 10.9483 9.29289 10.7607C9.48043 10.5732 9.73478 10.4678 10 10.4678ZM14 10.4678C14.2652 10.4678 14.5196 10.5732 14.7071 10.7607C14.8946 10.9483 15 11.2026 15 11.4678V17.4678C15 17.7331 14.8946 17.9874 14.7071 18.1749C14.5196 18.3625 14.2652 18.4678 14 18.4678C13.7348 18.4678 13.4804 18.3625 13.2929 18.1749C13.1054 17.9874 13 17.7331 13 17.4678V11.4678C13 11.2026 13.1054 10.9483 13.2929 10.7607C13.4804 10.5732 13.7348 10.4678 14 10.4678Z" fill="#2F2F3E"/>
</svg>
