<svg width="60" height="60" viewBox="0 0 60 60" fill="none" xmlns="http://www.w3.org/2000/svg">
<path d="M40.3438 17.0307H19.4536C18.065 17.0307 16.9382 15.9039 16.9382 14.5153C16.9382 13.1268 18.0695 12 19.4536 12H40.3393C41.7279 12 42.8547 13.1268 42.8547 14.5153C42.8547 15.9039 41.7279 17.0307 40.3393 17.0307H40.3438ZM19.4536 12.8872C18.5575 12.8872 17.8255 13.6192 17.8255 14.5153C17.8255 15.4115 18.5575 16.1434 19.4536 16.1434H40.3393C41.2355 16.1434 41.9674 15.4115 41.9674 14.5153C41.9674 13.6192 41.2355 12.8872 40.3393 12.8872H19.4536Z" fill="#F5F5F7"/>
<path d="M33.7605 23.4543H26.0414C25.3139 23.4543 24.7194 22.8599 24.7194 22.1323V20.0828C24.7194 19.3553 25.3139 18.7608 26.0414 18.7608H33.7605C34.4924 18.7608 35.0825 19.3553 35.0825 20.0828V22.1323C35.0825 22.8643 34.488 23.4543 33.7605 23.4543ZM26.0414 19.648C25.8019 19.648 25.6067 19.8432 25.6067 20.0828V22.1323C25.6067 22.3719 25.8019 22.5671 26.0414 22.5671H33.7605C34 22.5671 34.1952 22.3719 34.1952 22.1323V20.0828C34.1952 19.8432 34 19.648 33.7605 19.648H26.0414Z" fill="#F5F5F7"/>
<path d="M36.0939 26.9767H34.3194V26.0895H36.0939V26.9767ZM32.5449 26.9767H30.7705V26.0895H32.5449V26.9767ZM28.996 26.9767H27.2215V26.0895H28.996V26.9767ZM25.447 26.9767H23.6725V26.0895H25.447V26.9767Z" fill="#F5F5F7"/>
<path d="M36.0939 29.1238H34.3194V28.2366H36.0939V29.1238ZM32.5449 29.1238H30.7705V28.2366H32.5449V29.1238ZM28.996 29.1238H27.2215V28.2366H28.996V29.1238ZM25.447 29.1238H23.6725V28.2366H25.447V29.1238Z" fill="#F5F5F7"/>
<path d="M37.6821 35.9645L37.6288 34.9708C37.5933 34.2787 37.0211 33.7331 36.3246 33.7331H23.4728C22.4525 33.7331 21.37 34.2787 20.261 35.3567L20.1323 35.481H19.1697V16.1434H40.6233V32.8725L39.3057 34.332L37.6732 35.9645H37.6821ZM20.0569 17.0307V34.3408C21.2015 33.3471 22.346 32.8458 23.4728 32.8458H36.3246C37.1941 32.8458 37.9438 33.3516 38.2987 34.088L38.6669 33.7198L39.7405 32.5309V17.0307H20.0569Z" fill="#F5F5F7"/>
<path d="M36.3246 37.2377H28.193C27.949 37.2377 27.7494 37.0381 27.7494 36.7941C27.7494 36.5501 27.949 36.3504 28.193 36.3504H36.3246C37.0433 36.3504 37.6333 35.7649 37.6333 35.0418C37.6333 34.3187 37.0477 33.7331 36.3246 33.7331H23.4729C23.2289 33.7331 23.0292 33.5334 23.0292 33.2894C23.0292 33.0455 23.2289 32.8458 23.4729 32.8458H36.3246C37.5357 32.8458 38.5205 33.8307 38.5205 35.0418C38.5205 36.2528 37.5357 37.2377 36.3246 37.2377Z" fill="#F5F5F7"/>
<path d="M22.1287 48C21.7871 48 21.4499 47.8713 21.1882 47.614L13.3893 39.8107C12.8702 39.2917 12.8702 38.4532 13.3893 37.9342L14.525 36.7985C15.0662 36.2573 15.7893 35.9556 16.5567 35.9556C17.3242 35.9556 18.0473 36.2529 18.5885 36.7985L24.2004 42.4103C24.7416 42.9516 25.0433 43.6747 25.0433 44.4421C25.0433 45.2096 24.746 45.9327 24.2004 46.4739L23.0647 47.6096C22.8074 47.8669 22.4658 47.9956 22.1287 47.9956V48ZM16.5567 36.8473C16.0244 36.8473 15.5275 37.0558 15.1549 37.4285L14.0192 38.5641C13.8462 38.7371 13.8462 39.0166 14.0192 39.1852L21.8181 46.9841C21.9911 47.1527 22.2662 47.1571 22.4392 46.9841L23.5749 45.8484C23.9519 45.4713 24.156 44.9745 24.156 44.4466C24.156 43.9187 23.9475 43.4174 23.5749 43.0447L17.963 37.4329C17.5904 37.0558 17.0891 36.8517 16.5612 36.8517L16.5567 36.8473Z" fill="#F5F5F7"/>
<path d="M23.8587 43.3242L17.719 37.1845L17.9009 36.8872C17.9985 36.7231 20.3763 32.8503 23.4772 32.8503C23.7212 32.8503 23.9208 33.0499 23.9208 33.2939C23.9208 33.5379 23.7212 33.7375 23.4772 33.7375C21.3168 33.7375 19.4358 36.204 18.8502 37.0558L23.9253 42.1308L25.2029 41.1016H35.4284C35.9519 41.1016 36.4621 40.8887 36.8303 40.5205L45.1571 32.1937C45.6806 31.6702 45.716 30.8318 45.2369 30.3216C44.9929 30.0599 44.6602 29.9135 44.3053 29.909C43.9637 29.909 43.6133 30.0377 43.3604 30.2906L38.5249 35.126C38.4805 36.2972 37.5135 37.2333 36.3334 37.2333C36.0894 37.2333 35.8898 37.0336 35.8898 36.7896C35.8898 36.5456 36.0894 36.346 36.3334 36.346C37.0521 36.346 37.6421 35.7604 37.6421 35.0373L37.6244 34.7756L42.7393 29.665C43.1563 29.248 43.702 29.0218 44.292 29.0218C44.3053 29.0218 44.3142 29.0218 44.3275 29.0218C44.9264 29.0307 45.4809 29.2747 45.8935 29.7138C46.6964 30.57 46.6521 31.963 45.7959 32.8192L37.4691 41.146C36.9367 41.6784 36.1959 41.9889 35.4373 41.9889H25.5268L23.872 43.3242H23.8587Z" fill="#F5F5F7"/>
</svg>
