<svg width="24" height="25" viewBox="0 0 24 25" fill="none" xmlns="http://www.w3.org/2000/svg">
<path d="M12 22.4678C17.523 22.4678 22 17.9908 22 12.4678C22 6.94483 17.523 2.46783 12 2.46783C6.477 2.46783 2 6.94483 2 12.4678C2 17.9908 6.477 22.4678 12 22.4678Z" stroke="#2F2F3E" stroke-width="2" stroke-linecap="round" stroke-linejoin="round"/>
<path d="M2 12.4678H22" stroke="#2F2F3E" stroke-width="2" stroke-linecap="round" stroke-linejoin="round"/>
<path d="M12 22.4678C14.209 22.4678 16 17.9908 16 12.4678C16 6.94483 14.209 2.46783 12 2.46783C9.791 2.46783 8 6.94483 8 12.4678C8 17.9908 9.791 22.4678 12 22.4678Z" stroke="#2F2F3E" stroke-width="2" stroke-linecap="round" stroke-linejoin="round"/>
<path d="M4.92896 5.53885C5.85649 6.46884 6.95867 7.20635 8.17215 7.70901C9.38563 8.21166 10.6865 8.46955 12 8.46785C13.3134 8.46955 14.6143 8.21166 15.8278 7.70901C17.0412 7.20635 18.1434 6.46884 19.071 5.53885M19.071 19.3968C18.1434 18.4669 17.0412 17.7293 15.8278 17.2267C14.6143 16.724 13.3134 16.4661 12 16.4678C10.6865 16.4661 9.38563 16.724 8.17215 17.2267C6.95867 17.7293 5.85649 18.4669 4.92896 19.3968" stroke="#2F2F3E" stroke-width="2" stroke-linecap="round" stroke-linejoin="round"/>
</svg>
