<svg width="24" height="25" viewBox="0 0 24 25" fill="none" xmlns="http://www.w3.org/2000/svg">
<path d="M7 3.46783H5C4.46957 3.46783 3.96086 3.67855 3.58579 4.05362C3.21071 4.42869 3 4.9374 3 5.46783V7.46783M17 3.46783H19C19.5304 3.46783 20.0391 3.67855 20.4142 4.05362C20.7893 4.42869 21 4.9374 21 5.46783V7.46783M16 8.46783V10.4678M8 8.46783V10.4678M9 16.4678C9 16.4678 10 17.4678 12 17.4678C14 17.4678 15 16.4678 15 16.4678M12 8.46783V13.4678H11M7 21.4678H5C4.46957 21.4678 3.96086 21.2571 3.58579 20.882C3.21071 20.507 3 19.9983 3 19.4678V17.4678M17 21.4678H19C19.5304 21.4678 20.0391 21.2571 20.4142 20.882C20.7893 20.507 21 19.9983 21 19.4678V17.4678" stroke="#2F2F3E" stroke-width="1.5" stroke-linecap="round" stroke-linejoin="round"/>
</svg>
