<svg width="24" height="25" viewBox="0 0 24 25" fill="none" xmlns="http://www.w3.org/2000/svg">
<path fill-rule="evenodd" clip-rule="evenodd" d="M10 2.21783C9.53587 2.21783 9.09075 2.40221 8.76256 2.7304C8.49388 2.99908 8.32159 3.34614 8.26794 3.71783H6.5C6.03587 3.71783 5.59075 3.90221 5.26256 4.2304C4.93437 4.55859 4.75 5.00371 4.75 5.46783V20.9678C4.75 21.432 4.93437 21.8771 5.26256 22.2053C5.59075 22.5335 6.03587 22.7178 6.5 22.7178H17.5C17.9641 22.7178 18.4092 22.5335 18.7374 22.2053C19.0656 21.8771 19.25 21.432 19.25 20.9678V5.46783C19.25 5.00371 19.0656 4.55859 18.7374 4.2304C18.4092 3.90221 17.9641 3.71783 17.5 3.71783H15.7321C15.6784 3.34614 15.5061 2.99908 15.2374 2.7304C14.9092 2.40221 14.4641 2.21783 14 2.21783H10ZM9.82322 3.79106C9.87011 3.74417 9.9337 3.71783 10 3.71783H14C14.0663 3.71783 14.1299 3.74417 14.1768 3.79106C14.2237 3.83794 14.25 3.90153 14.25 3.96783V4.96783C14.25 5.03414 14.2237 5.09773 14.1768 5.14461C14.1299 5.1915 14.0663 5.21783 14 5.21783H10C9.9337 5.21783 9.87011 5.1915 9.82322 5.14461C9.77634 5.09773 9.75 5.03414 9.75 4.96783V3.96783C9.75 3.90153 9.77634 3.83794 9.82322 3.79106ZM6.32322 5.29106C6.37011 5.24417 6.4337 5.21783 6.5 5.21783H8.26794C8.32159 5.58953 8.49388 5.93659 8.76256 6.20527C9.09075 6.53346 9.53587 6.71783 10 6.71783H14C14.4641 6.71783 14.9092 6.53346 15.2374 6.20527C15.5061 5.93659 15.6784 5.58953 15.7321 5.21783H17.5C17.5663 5.21783 17.6299 5.24417 17.6768 5.29106C17.7237 5.33794 17.75 5.40153 17.75 5.46783V20.9678C17.75 21.0341 17.7237 21.0977 17.6768 21.1446C17.6299 21.1915 17.5663 21.2178 17.5 21.2178H6.5C6.4337 21.2178 6.37011 21.1915 6.32322 21.1446C6.27634 21.0977 6.25 21.0341 6.25 20.9678V5.46783C6.25 5.40153 6.27634 5.33794 6.32322 5.29106ZM8 7.71783C7.80109 7.71783 7.61032 7.79685 7.46967 7.9375C7.32902 8.07816 7.25 8.26892 7.25 8.46783C7.25 8.66675 7.32902 8.85751 7.46967 8.99817C7.61032 9.13882 7.80109 9.21783 8 9.21783H15.75C15.9489 9.21783 16.1397 9.13882 16.2803 8.99817C16.421 8.85751 16.5 8.66675 16.5 8.46783C16.5 8.26892 16.421 8.07816 16.2803 7.9375C16.1397 7.79685 15.9489 7.71783 15.75 7.71783H8ZM8 10.2178C7.80109 10.2178 7.61032 10.2969 7.46967 10.4375C7.32902 10.5782 7.25 10.7689 7.25 10.9678C7.25 11.1667 7.32902 11.3575 7.46967 11.4982C7.61032 11.6388 7.80109 11.7178 8 11.7178H11.5C11.6989 11.7178 11.8897 11.6388 12.0303 11.4982C12.171 11.3575 12.25 11.1667 12.25 10.9678C12.25 10.7689 12.171 10.5782 12.0303 10.4375C11.8897 10.2969 11.6989 10.2178 11.5 10.2178H8Z" fill="#2F2F3E"/>
<path fill-rule="evenodd" clip-rule="evenodd" d="M13.514 11.9844C11.864 11.9844 10.514 13.3344 10.514 14.9844C10.514 15.8192 10.8718 16.5722 11.4283 17.1174C10.9178 17.4619 10.4993 17.926 10.2092 18.4693C9.91912 19.0126 9.76629 19.6185 9.76404 20.2344H11.264C11.264 18.9834 12.263 17.9844 13.514 17.9844C14.765 17.9844 15.764 18.9834 15.764 20.2344H17.264C17.2618 19.6185 17.109 19.0126 16.8189 18.4693C16.5288 17.926 16.1103 17.4619 15.5998 17.1174C16.1563 16.5722 16.514 15.8199 16.514 14.9844C16.514 13.3344 15.164 11.9844 13.514 11.9844ZM15.014 14.9844C15.014 14.1467 14.3518 13.4844 13.514 13.4844C12.6763 13.4844 12.014 14.1467 12.014 14.9844C12.014 15.8222 12.6763 16.4844 13.514 16.4844C14.3518 16.4844 15.014 15.8222 15.014 14.9844Z" fill="#2F2F3E"/>
</svg>
