<svg width="25" height="25" viewBox="0 0 25 25" fill="none" xmlns="http://www.w3.org/2000/svg">
<path d="M10.771 2.88995C11.1926 2.55224 11.7166 2.36823 12.2568 2.36823C12.7969 2.36823 13.321 2.55224 13.7425 2.88995L20.8757 8.59647C21.4395 9.04756 21.7683 9.73099 21.7683 10.4538V19.9905C21.7683 20.6211 21.5178 21.2259 21.0719 21.6718C20.626 22.1177 20.0212 22.3682 19.3906 22.3682H14.6352C14.3649 22.3682 14.1057 22.2609 13.9146 22.0698C13.7235 21.8787 13.6162 21.6195 13.6162 21.3492V14.216H10.8988V21.3492C10.8988 21.6195 10.7914 21.8787 10.6003 22.0698C10.4092 22.2609 10.15 22.3682 9.87974 22.3682H5.1243C4.49369 22.3682 3.88891 22.1177 3.443 21.6718C2.99709 21.2259 2.74658 20.6211 2.74658 19.9905V10.4525C2.74658 9.73099 3.07539 9.04756 3.63925 8.59647L10.771 2.88995ZM12.4694 4.48098C12.4092 4.43292 12.3345 4.40674 12.2575 4.40674C12.1804 4.40674 12.1057 4.43292 12.0455 4.48098L4.91234 10.1875C4.87238 10.2194 4.84014 10.2599 4.81803 10.3061C4.79591 10.3522 4.7845 10.4027 4.78463 10.4538V19.9905C4.78463 20.178 4.9368 20.3302 5.1243 20.3302H8.86072V13.197C8.86072 12.9268 8.96808 12.6676 9.15918 12.4765C9.35029 12.2854 9.60948 12.178 9.87974 12.178H14.6352C14.9054 12.178 15.1646 12.2854 15.3557 12.4765C15.5468 12.6676 15.6542 12.9268 15.6542 13.197V20.3302H19.3906C19.4807 20.3302 19.5671 20.2944 19.6308 20.2307C19.6945 20.167 19.7303 20.0806 19.7303 19.9905V10.4525C19.7302 10.4015 19.7187 10.3513 19.6966 10.3054C19.6745 10.2596 19.6424 10.2193 19.6026 10.1875L12.4694 4.48098Z" fill="#2F2F3E"/>
</svg>
