<svg width="24" height="25" viewBox="0 0 24 25" fill="none" xmlns="http://www.w3.org/2000/svg">
<path d="M3.75 4.96783C2.51625 4.96783 1.5 5.98408 1.5 7.21783V17.7178C1.5 18.9516 2.51625 19.9678 3.75 19.9678H20.25C21.4837 19.9678 22.5 18.9516 22.5 17.7178V7.21783C22.5 5.98408 21.4837 4.96783 20.25 4.96783H3.75ZM3.75 6.46783H20.25C20.6745 6.46783 21 6.79333 21 7.21783V17.7178C21 18.1423 20.6745 18.4678 20.25 18.4678H3.75C3.3255 18.4678 3 18.1423 3 17.7178V7.21783C3 6.79333 3.3255 6.46783 3.75 6.46783ZM8.25 7.96783C6.6 7.96783 5.25 9.31783 5.25 10.9678C5.25 11.8026 5.60775 12.5556 6.16425 13.1008C5.65374 13.4453 5.23522 13.9094 4.94515 14.4527C4.65508 14.996 4.50226 15.602 4.5 16.2178H6C6 14.9668 6.999 13.9678 8.25 13.9678C9.501 13.9678 10.5 14.9668 10.5 16.2178H12C11.9977 15.602 11.8449 14.996 11.5549 14.4527C11.2648 13.9094 10.8463 13.4453 10.3358 13.1008C10.8923 12.5556 11.25 11.8033 11.25 10.9678C11.25 9.31783 9.9 7.96783 8.25 7.96783ZM13.5 8.71783V10.2178H19.5V8.71783H13.5ZM8.25 9.46783C9.08775 9.46783 9.75 10.1301 9.75 10.9678C9.75 11.8056 9.08775 12.4678 8.25 12.4678C7.41225 12.4678 6.75 11.8056 6.75 10.9678C6.75 10.1301 7.41225 9.46783 8.25 9.46783ZM13.5 11.7178V13.2178H19.5V11.7178H13.5ZM13.5 14.7178V16.2178H17.25V14.7178H13.5Z" fill="#2F2F3E"/>
</svg>
