<svg width="25" height="24" viewBox="0 0 25 24" fill="none" xmlns="http://www.w3.org/2000/svg">
<g id="icon / jam-icons / outline &#38; logos / linkedin">
<path id="Vector" d="M22.4258 13.7189V21.0979H18.1478V14.2129C18.1478 12.4829 17.5288 11.3029 15.9808 11.3029C14.7988 11.3029 14.0948 12.0989 13.7858 12.8679C13.6728 13.1429 13.6438 13.5259 13.6438 13.9109V21.0979H9.3638C9.3638 21.0979 9.4218 9.43788 9.3638 8.22888H13.6438V10.0529L13.6158 10.0949H13.6438V10.0529C14.2118 9.17788 15.2268 7.92688 17.4998 7.92688C20.3148 7.92688 22.4258 9.76688 22.4258 13.7189ZM4.8878 2.02588C3.4248 2.02588 2.4668 2.98588 2.4668 4.24888C2.4668 5.48388 3.3968 6.47288 4.8318 6.47288H4.8598C6.3528 6.47288 7.2798 5.48388 7.2798 4.24888C7.2538 2.98588 6.3538 2.02588 4.8888 2.02588H4.8878ZM2.7208 21.0979H6.9988V8.22888H2.7208V21.0979Z" fill="white"/>
</g>
</svg>
