<svg width="24" height="25" viewBox="0 0 24 25" fill="none" xmlns="http://www.w3.org/2000/svg">
<path d="M12 13.4678C13.6569 13.4678 15 12.1247 15 10.4678C15 8.81098 13.6569 7.46783 12 7.46783C10.3431 7.46783 9 8.81098 9 10.4678C9 12.1247 10.3431 13.4678 12 13.4678Z" stroke="#2F2F3E" stroke-width="2" stroke-linecap="round" stroke-linejoin="round"/>
<path d="M12 2.46783C9.87827 2.46783 7.84344 3.31069 6.34315 4.81098C4.84285 6.31127 4 8.3461 4 10.4678C4 12.3598 4.402 13.5978 5.5 14.9678L12 22.4678L18.5 14.9678C19.598 13.5978 20 12.3598 20 10.4678C20 8.3461 19.1571 6.31127 17.6569 4.81098C16.1566 3.31069 14.1217 2.46783 12 2.46783Z" stroke="#2F2F3E" stroke-width="2" stroke-linecap="round" stroke-linejoin="round"/>
</svg>
