<svg width="89" height="88" viewBox="0 0 89 88" fill="none" xmlns="http://www.w3.org/2000/svg">
<g clip-path="url(#clip0_271_14108)">
<path d="M22.7306 54.8449C21.4068 52.143 21.2356 49.3586 22.217 46.4918C23.1984 43.625 25.0401 41.5297 27.742 40.206C30.4439 38.8822 33.2283 38.711 36.0951 39.6924C38.9619 40.6738 41.0572 42.5155 42.3809 45.2174C43.7047 47.9193 43.8759 50.7037 42.8945 53.5705C41.9131 56.4373 40.0714 58.5325 37.3695 59.8563C34.6676 61.1801 31.8832 61.3513 29.0164 60.3699C26.1496 59.3885 24.0543 57.5468 22.7306 54.8449ZM42.4179 17.9384L44.0202 12.6607C48.879 14.3922 53.3025 16.9968 57.2909 20.4746C61.2792 23.9524 64.4969 28.1886 66.9439 33.183C69.3909 38.1775 70.7663 43.3162 71.0702 48.5992C71.3741 53.8822 70.7213 58.9739 69.1118 63.8744L63.9594 61.9061C65.2782 57.6557 65.8134 53.2815 65.5652 48.7835C65.3169 44.2855 64.1389 39.8876 62.0313 35.5899C59.9253 31.2914 57.1712 27.6658 53.769 24.713C50.3669 21.7602 46.5832 19.502 42.4179 17.9384ZM51.154 57.0624C51.8673 54.5808 52.1228 52.0189 51.9207 49.3766C51.7186 46.7343 50.995 44.1445 49.7498 41.6071C48.5063 39.0689 46.9081 36.9197 44.9553 35.1596C43.0024 33.3994 40.8166 32.0214 38.3976 31.0257L40 25.7479C43.13 26.9557 45.9653 28.7018 48.5059 30.9863C51.0466 33.2707 53.0987 36.0087 54.6624 39.2002C56.2269 42.3934 57.1279 45.6832 57.3656 49.0695C57.6033 52.4559 57.2402 55.7558 56.2764 58.9693L51.154 57.0624Z" fill="#E8E8ED"/>
</g>
<defs>
<clipPath id="clip0_271_14108">
<rect width="65.6462" height="65.6462" fill="white" transform="translate(59.8716 0.097168) rotate(63.898)"/>
</clipPath>
</defs>
</svg>
