<svg width="25" height="24" viewBox="0 0 25 24" fill="none" xmlns="http://www.w3.org/2000/svg">
<g id="mdi:github" clip-path="url(#clip0_1640_5301)">
<path id="Vector" d="M12.4668 0.0483398C10.8909 0.0483398 9.3305 0.358729 7.8746 0.961786C6.41869 1.56484 5.09582 2.44876 3.98152 3.56306C1.73108 5.8135 0.466797 8.86574 0.466797 12.0483C0.466797 17.3523 3.9108 21.8523 8.6748 23.4483C9.2748 23.5443 9.4668 23.1723 9.4668 22.8483V20.8203C6.1428 21.5403 5.4348 19.2123 5.4348 19.2123C4.8828 17.8203 4.1028 17.4483 4.1028 17.4483C3.0108 16.7043 4.1868 16.7283 4.1868 16.7283C5.3868 16.8123 6.0228 17.9643 6.0228 17.9643C7.0668 19.7883 8.8308 19.2483 9.5148 18.9603C9.6228 18.1803 9.9348 17.6523 10.2708 17.3523C7.6068 17.0523 4.8108 16.0203 4.8108 11.4483C4.8108 10.1163 5.2668 9.04834 6.0468 8.19634C5.9268 7.89634 5.5068 6.64834 6.1668 5.02834C6.1668 5.02834 7.1748 4.70434 9.4668 6.25234C10.4148 5.98834 11.4468 5.85634 12.4668 5.85634C13.4868 5.85634 14.5188 5.98834 15.4668 6.25234C17.7588 4.70434 18.7668 5.02834 18.7668 5.02834C19.4268 6.64834 19.0068 7.89634 18.8868 8.19634C19.6668 9.04834 20.1228 10.1163 20.1228 11.4483C20.1228 16.0323 17.3148 17.0403 14.6388 17.3403C15.0708 17.7123 15.4668 18.4443 15.4668 19.5603V22.8483C15.4668 23.1723 15.6588 23.5563 16.2708 23.4483C21.0348 21.8403 24.4668 17.3523 24.4668 12.0483C24.4668 10.4725 24.1564 8.91205 23.5534 7.45614C22.9503 6.00023 22.0664 4.67736 20.9521 3.56306C19.8378 2.44876 18.5149 1.56484 17.059 0.961786C15.6031 0.358729 14.0427 0.0483398 12.4668 0.0483398Z" fill="white"/>
</g>
<defs>
<clipPath id="clip0_1640_5301">
<rect width="24" height="24" fill="white" transform="translate(0.466797)"/>
</clipPath>
</defs>
</svg>
