<svg width="60" height="60" viewBox="0 0 60 60" fill="none" xmlns="http://www.w3.org/2000/svg">
<path d="M30.7971 33.8288L23.0643 22.7267C22.3678 21.7281 22.6153 20.3519 23.6139 19.6554C24.0964 19.3197 24.6838 19.1897 25.2629 19.2945C25.8419 19.3994 26.3496 19.7225 26.6852 20.205L30.8726 26.2218L40.5733 12.9085C40.9216 12.4302 41.4335 12.1197 42.0125 12.0274C42.5915 11.9351 43.1789 12.0778 43.653 12.426C44.1314 12.7743 44.4419 13.2862 44.5342 13.8652C44.6265 14.4484 44.4838 15.0316 44.1398 15.5057L30.7971 33.8288ZM24.8726 20.1001C24.5957 20.1001 24.3272 20.1841 24.0964 20.3435C23.4796 20.7757 23.3244 21.6274 23.7566 22.2484L30.8139 32.3812L43.4642 15.0106C43.6782 14.7169 43.7663 14.3561 43.7118 13.9953C43.653 13.6344 43.46 13.3155 43.1663 13.1015C42.8726 12.8876 42.5118 12.7995 42.1509 12.854C41.7901 12.9127 41.4712 13.1057 41.2572 13.3995L30.8684 27.6652L26.0055 20.6834C25.7957 20.3855 25.4852 20.1841 25.1244 20.1169C25.0447 20.1001 24.9608 20.0959 24.881 20.0959L24.8726 20.1001Z" fill="#F5F5F7"/>
<path d="M35.7106 38.8176H28.498C28.2672 38.8176 28.0784 38.6288 28.0784 38.398C28.0784 38.1672 28.2672 37.9784 28.498 37.9784H35.7106C36.3357 37.9784 36.8434 37.4707 36.8434 36.8456C36.8434 36.2204 36.3357 35.7127 35.7106 35.7127H24.3106C24.0798 35.7127 23.891 35.5239 23.891 35.2931C23.891 35.0623 24.0798 34.8735 24.3106 34.8735H35.7106C36.7973 34.8735 37.6826 35.7588 37.6826 36.8456C37.6826 37.9323 36.7973 38.8176 35.7106 38.8176Z" fill="#F5F5F7"/>
<path d="M23.1189 48.3631C22.7958 48.3631 22.4937 48.2372 22.2671 48.0106L15.3524 41.0917C14.8825 40.6218 14.8825 39.8582 15.3524 39.3925L16.3594 38.3855C17.3622 37.3827 18.9944 37.3827 20.0014 38.3855L24.9818 43.3659C25.4685 43.8526 25.737 44.4987 25.737 45.1868C25.737 45.875 25.4685 46.5211 24.9818 47.0078L23.9748 48.0148C23.7482 48.2414 23.4461 48.3673 23.1231 48.3673L23.1189 48.3631ZM18.1762 38.4694C17.7315 38.4694 17.2867 38.6372 16.951 38.9771L15.9441 39.9841C15.8014 40.1267 15.8014 40.3575 15.9441 40.5001L22.8629 47.419C23.0014 47.5575 23.2405 47.5575 23.379 47.419L24.386 46.412C24.7133 46.0847 24.8937 45.6484 24.8937 45.1868C24.8937 44.7253 24.7133 44.2889 24.386 43.9617L19.4056 38.9813C19.0657 38.6414 18.621 38.4736 18.1804 38.4736L18.1762 38.4694Z" fill="#F5F5F7"/>
<path d="M24.6502 44.226L19.1705 38.7463L19.3426 38.4652C19.4307 38.3183 21.5496 34.8736 24.3104 34.8736C24.5412 34.8736 24.73 35.0624 24.73 35.2932C24.73 35.5239 24.5412 35.7128 24.3104 35.7128C22.4181 35.7128 20.7691 37.8568 20.2363 38.6288L24.709 43.1016L25.8293 42.1953H34.909C35.3705 42.1953 35.8069 42.0148 36.1341 41.6876L43.5188 34.303C43.9719 33.8498 44.0055 33.1197 43.5901 32.6792C43.3761 32.4526 43.0908 32.3267 42.7803 32.3225C42.4656 32.3142 42.1803 32.4358 41.9621 32.654L37.6824 36.9337C37.6362 37.9827 36.7719 38.8176 35.7104 38.8176C35.4796 38.8176 35.2908 38.6288 35.2908 38.3981C35.2908 38.1673 35.4796 37.9785 35.7104 37.9785C36.3355 37.9785 36.8432 37.4708 36.8432 36.8456L36.8265 36.6023L41.3663 32.0624C41.7481 31.6806 42.239 31.4708 42.7929 31.4834C43.3299 31.4918 43.8292 31.71 44.1985 32.1044C44.9201 32.8722 44.8824 34.1225 44.1104 34.8946L36.7258 42.2792C36.239 42.7659 35.5929 43.0344 34.909 43.0344H26.1272L24.6502 44.226Z" fill="#F5F5F7"/>
<path d="M44.4588 30.5896L43.6532 30.3589C43.8 29.8386 43.9175 29.3057 44.0014 28.7687L44.8322 28.8987C44.7441 29.4652 44.6182 30.0358 44.463 30.5855L44.4588 30.5896ZM44.9916 27.1827L44.1525 27.1533C44.1567 26.998 44.1609 26.847 44.1609 26.6918C44.1609 26.289 44.1483 25.8946 44.1189 25.5211L44.9581 25.4624C44.9874 25.8568 45 26.2722 45 26.6918C45 26.8554 45 27.019 44.9916 27.1827ZM43.9133 23.9057C43.8084 23.3687 43.67 22.8442 43.4979 22.3407L44.2909 22.0722C44.4756 22.6092 44.6224 23.1757 44.7357 23.7505L43.9133 23.9099V23.9057ZM42.8728 20.8512C42.6336 20.3813 42.3567 19.9155 42.042 19.4582L42.7343 18.9841C43.0658 19.4708 43.3679 19.9701 43.6196 20.4736L42.8728 20.8554V20.8512Z" fill="#F5F5F7"/>
<path d="M20.0476 35.998C19.6699 35.5658 19.3175 35.1043 18.9944 34.626L19.6909 34.1561C19.993 34.605 20.3287 35.0372 20.6811 35.4484L20.0476 35.998ZM18.1175 33.1365C17.8574 32.6246 17.6266 32.0917 17.4294 31.5505L18.2182 31.2652C18.4028 31.7728 18.621 32.2763 18.8685 32.7547L18.1217 33.1365H18.1175ZM16.9385 29.8973C16.8084 29.3393 16.7119 28.7645 16.6532 28.1938L17.4881 28.1057C17.5427 28.6428 17.635 29.184 17.7567 29.7085L16.9385 29.8973ZM17.4168 26.4819L16.5776 26.4694C16.586 25.8945 16.6322 25.3155 16.7077 24.7491L17.5385 24.8624C17.4671 25.3952 17.4252 25.9407 17.4168 26.4819ZM17.8574 23.268L17.0476 23.054C17.1944 22.4959 17.379 21.9463 17.5888 21.4134L18.3692 21.7239C18.1678 22.2232 17.9958 22.7435 17.8574 23.268ZM19.0657 20.2554L18.3315 19.8526C18.6084 19.3491 18.9189 18.8582 19.2546 18.3924L19.9343 18.8833C19.6196 19.3197 19.3259 19.7854 19.0657 20.2596V20.2554ZM20.9664 17.6204L20.3497 17.0498C20.7399 16.626 21.1594 16.2274 21.5958 15.854L22.1371 16.4959C21.7259 16.8442 21.3315 17.226 20.9622 17.6204H20.9664ZM23.442 15.5183L22.9804 14.8176C23.4629 14.4987 23.9664 14.2092 24.4783 13.9575L24.8518 14.7085C24.3692 14.9477 23.8951 15.2204 23.442 15.5183ZM37.3468 15.0274C36.8769 14.7547 36.386 14.5113 35.8909 14.3057L36.214 13.5295C36.7426 13.7519 37.2629 14.0078 37.7664 14.2973L37.3468 15.0232V15.0274ZM26.3455 14.0792L26.0685 13.2862C26.6098 13.0973 27.1678 12.9379 27.7301 12.812L27.9105 13.6302C27.3818 13.7477 26.8531 13.8945 26.3455 14.075V14.0792ZM34.3552 13.7813C33.8392 13.6428 33.3063 13.5337 32.765 13.4582L32.8825 12.6274C33.4573 12.7071 34.028 12.8246 34.5776 12.9757L34.3594 13.7855L34.3552 13.7813ZM29.5133 13.3827L29.4336 12.5477C30.0042 12.4931 30.5874 12.4764 31.158 12.489L31.1371 13.3281C30.6 13.3155 30.0462 13.3323 29.5091 13.3827H29.5133Z" fill="#F5F5F7"/>
<path d="M36.8936 37.7225L36.8433 36.7826C36.8097 36.1826 36.3146 35.7085 35.7146 35.7085H24.3146C23.8615 35.7085 23.3874 35.8344 22.909 36.0819L22.6531 36.2162L22.4391 36.0232C19.7874 33.6484 18.2643 30.2456 18.2643 26.6875C18.2643 19.777 23.8867 14.1589 30.7929 14.1589C33.5454 14.1589 36.1594 15.0358 38.3496 16.6931C38.5342 16.8316 38.5719 17.0959 38.4293 17.2805C38.2908 17.4652 38.0265 17.5029 37.8419 17.3603C35.7985 15.812 33.3608 14.998 30.7929 14.998C24.3482 14.998 19.1034 20.2428 19.1034 26.6875C19.1034 29.9141 20.4461 33.0022 22.7915 35.2092C23.3034 34.9826 23.8153 34.8693 24.3146 34.8693H35.7146C36.4824 34.8693 37.1496 35.3099 37.4726 35.9519L40.9342 32.4903C41.9454 30.7281 42.4782 28.7225 42.4782 26.6875C42.4782 24.2204 41.7188 21.8624 40.2838 19.8652C40.1496 19.6763 40.1915 19.4162 40.3803 19.2777C40.5691 19.1435 40.8293 19.1854 40.9677 19.3743C42.5076 21.5141 43.3216 24.04 43.3216 26.6875C43.3216 28.8903 42.7384 31.0595 41.6391 32.9602L41.5719 33.0484L36.8936 37.7267V37.7225Z" fill="#F5F5F7"/>
<path d="M35.7106 38.8176H28.498C28.2672 38.8176 28.0784 38.6288 28.0784 38.398C28.0784 38.1672 28.2672 37.9784 28.498 37.9784H35.7106C36.3357 37.9784 36.8434 37.4707 36.8434 36.8456C36.8434 36.2204 36.3357 35.7127 35.7106 35.7127H24.3106C24.0798 35.7127 23.891 35.5239 23.891 35.2931C23.891 35.0623 24.0798 34.8735 24.3106 34.8735H35.7106C36.7973 34.8735 37.6826 35.7588 37.6826 36.8456C37.6826 37.9323 36.7973 38.8176 35.7106 38.8176Z" fill="#F5F5F7"/>
<path d="M23.1189 48.3631C22.7958 48.3631 22.4937 48.2372 22.2671 48.0106L15.3524 41.0917C14.8825 40.6218 14.8825 39.8582 15.3524 39.3925L16.3594 38.3855C17.3622 37.3827 18.9944 37.3827 20.0014 38.3855L24.9818 43.3659C25.4685 43.8526 25.737 44.4987 25.737 45.1868C25.737 45.875 25.4685 46.5211 24.9818 47.0078L23.9748 48.0148C23.7482 48.2414 23.4461 48.3673 23.1231 48.3673L23.1189 48.3631ZM18.1762 38.4694C17.7315 38.4694 17.2867 38.6372 16.951 38.9771L15.9441 39.9841C15.8014 40.1267 15.8014 40.3575 15.9441 40.5001L22.8629 47.419C23.0014 47.5575 23.2405 47.5575 23.379 47.419L24.386 46.412C24.7133 46.0847 24.8937 45.6484 24.8937 45.1868C24.8937 44.7253 24.7133 44.2889 24.386 43.9617L19.4056 38.9813C19.0657 38.6414 18.621 38.4736 18.1804 38.4736L18.1762 38.4694Z" fill="#F5F5F7"/>
<path d="M24.6502 44.226L19.1705 38.7463L19.3426 38.4652C19.4307 38.3183 21.5496 34.8736 24.3104 34.8736C24.5412 34.8736 24.73 35.0624 24.73 35.2932C24.73 35.5239 24.5412 35.7128 24.3104 35.7128C22.4181 35.7128 20.7691 37.8568 20.2363 38.6288L24.709 43.1016L25.8293 42.1953H34.909C35.3705 42.1953 35.8069 42.0148 36.1341 41.6876L43.5188 34.303C43.9719 33.8498 44.0055 33.1197 43.5901 32.6792C43.3761 32.4526 43.0908 32.3267 42.7803 32.3225C42.4656 32.3142 42.1803 32.4358 41.9621 32.654L37.6824 36.9337C37.6362 37.9827 36.7719 38.8176 35.7104 38.8176C35.4796 38.8176 35.2908 38.6288 35.2908 38.3981C35.2908 38.1673 35.4796 37.9785 35.7104 37.9785C36.3355 37.9785 36.8432 37.4708 36.8432 36.8456L36.8265 36.6023L41.3663 32.0624C41.7481 31.6806 42.239 31.4708 42.7929 31.4834C43.3299 31.4918 43.8292 31.71 44.1985 32.1044C44.9201 32.8722 44.8824 34.1225 44.1104 34.8946L36.7258 42.2792C36.239 42.7659 35.5929 43.0344 34.909 43.0344H26.1272L24.6502 44.226Z" fill="#F5F5F7"/>
</svg>
