<svg width="60" height="60" viewBox="0 0 60 60" fill="none" xmlns="http://www.w3.org/2000/svg">
<path d="M22.2324 41.262C21.5805 41.262 20.9778 40.9114 20.658 40.3395C20.492 40.0443 20.5965 39.6691 20.8917 39.5031C21.1869 39.337 21.5621 39.4416 21.7281 39.7368C21.8327 39.9213 22.0233 40.032 22.2324 40.032C22.5522 40.032 22.8105 39.7737 22.8105 39.4539C22.8105 39.1341 22.5522 38.8758 22.2324 38.8758C21.2361 38.8758 20.4243 38.064 20.4243 37.0676C20.4243 36.0713 21.2361 35.2595 22.2324 35.2595C22.8782 35.2595 23.4747 35.6039 23.8007 36.1636C23.9668 36.4588 23.8684 36.8278 23.5731 37C23.2779 37.166 22.9089 37.0676 22.7367 36.7724C22.6322 36.5941 22.4415 36.4772 22.2324 36.4772C21.9126 36.4772 21.6543 36.7355 21.6543 37.0553C21.6543 37.3751 21.9126 37.6334 22.2324 37.6334C23.2287 37.6334 24.0406 38.4453 24.0406 39.4416C24.0406 40.4379 23.2287 41.2497 22.2324 41.2497V41.262Z" fill="#F5F5F7"/>
<path d="M22.2324 43.5006C19.3419 43.5006 16.9926 41.1513 16.9926 38.2608C16.9926 35.3703 19.3419 33.0209 22.2324 33.0209C25.1229 33.0209 27.4723 35.3703 27.4723 38.2608C27.4723 41.1513 25.1229 43.5006 22.2324 43.5006ZM22.2324 34.2448C20.0184 34.2448 18.2164 36.0468 18.2164 38.2608C18.2164 40.4748 20.0184 42.2768 22.2324 42.2768C24.4464 42.2768 26.2484 40.4748 26.2484 38.2608C26.2484 36.0468 24.4464 34.2448 22.2324 34.2448Z" fill="#F5F5F7"/>
<path d="M46.6605 37.8549H29.8339C29.4956 37.8549 29.2189 37.5781 29.2189 37.2399C29.2189 36.9016 29.4956 36.6248 29.8339 36.6248H46.6605C47.829 36.6248 48.7761 35.6777 48.7761 34.5092V20.3395C48.7761 19.171 47.829 18.2239 46.6605 18.2239H21.9495C20.781 18.2239 19.8339 19.171 19.8339 20.3395V22.1599C19.8339 22.4982 19.5571 22.7749 19.2189 22.7749C18.8806 22.7749 18.6039 22.4982 18.6039 22.1599V20.3395C18.6039 18.4945 20.1045 17 21.9434 17H46.6543C48.4993 17 49.9938 18.5006 49.9938 20.3395V34.5154C49.9938 36.3604 48.4932 37.8549 46.6543 37.8549H46.6605Z" fill="#F5F5F7"/>
<path d="M49.3911 26.6372H32.4907C32.1525 26.6372 31.8757 26.3604 31.8757 26.0222C31.8757 25.6839 32.1525 25.4071 32.4907 25.4071H48.7822V21.9139H19.8339V22.1538C19.8339 22.492 19.5571 22.7688 19.2189 22.7688C18.8806 22.7688 18.6039 22.492 18.6039 22.1538V21.2989C18.6039 20.9607 18.8806 20.6839 19.2189 20.6839H49.3849C49.7232 20.6839 50 20.9607 50 21.2989V26.016C50 26.3543 49.7232 26.631 49.3849 26.631L49.3911 26.6372Z" fill="#F5F5F7"/>
<path d="M44.5572 34.3125H40.9164C40.08 34.3125 39.3973 33.6298 39.3973 32.7934V31.2559C39.3973 30.4195 40.08 29.7368 40.9164 29.7368H44.5572C45.3936 29.7368 46.0763 30.4195 46.0763 31.2559V32.7934C46.0763 33.6298 45.3936 34.3125 44.5572 34.3125ZM40.9164 30.9607C40.7504 30.9607 40.6212 31.096 40.6212 31.2559V32.7934C40.6212 32.9595 40.7565 33.0886 40.9164 33.0886H44.5572C44.7233 33.0886 44.8524 32.9533 44.8524 32.7934V31.2559C44.8524 31.0898 44.7171 30.9607 44.5572 30.9607H40.9164Z" fill="#F5F5F7"/>
<path d="M22.2324 36.4895C21.8942 36.4895 21.6174 36.2128 21.6174 35.8745V35.5178C21.6174 35.1796 21.8942 34.9028 22.2324 34.9028C22.5707 34.9028 22.8474 35.1796 22.8474 35.5178V35.8745C22.8474 36.2128 22.5707 36.4895 22.2324 36.4895Z" fill="#F5F5F7"/>
<path d="M22.2324 41.6126C21.8942 41.6126 21.6174 41.3358 21.6174 40.9976V40.6409C21.6174 40.3026 21.8942 40.0259 22.2324 40.0259C22.5707 40.0259 22.8474 40.3026 22.8474 40.6409V40.9976C22.8474 41.3358 22.5707 41.6126 22.2324 41.6126Z" fill="#F5F5F7"/>
<path d="M25.8918 30.6224C25.3137 30.6224 24.7848 30.3087 24.5019 29.8106C24.3358 29.5154 24.4404 29.1402 24.7356 28.9742C25.0308 28.8081 25.4059 28.9127 25.572 29.2079C25.6396 29.3247 25.7626 29.3985 25.8979 29.3985C26.1009 29.3985 26.2669 29.2325 26.2669 29.0295C26.2669 28.8266 26.1009 28.6605 25.8979 28.6605C25.0185 28.6605 24.3051 27.9471 24.3051 27.0677C24.3051 26.1882 25.0185 25.4748 25.8979 25.4748C26.4699 25.4748 26.9988 25.7823 27.2817 26.2743C27.4477 26.5695 27.3493 26.9447 27.0541 27.1107C26.7589 27.2768 26.3899 27.1784 26.2177 26.8832C26.1501 26.7663 26.0271 26.6987 25.8979 26.6987C25.695 26.6987 25.5289 26.8647 25.5289 27.0677C25.5289 27.2706 25.695 27.4367 25.8979 27.4367C26.7774 27.4367 27.4908 28.1501 27.4908 29.0295C27.4908 29.909 26.7774 30.6224 25.8979 30.6224H25.8918Z" fill="#F5F5F7"/>
<path d="M25.8917 32.4674C23.4502 32.4674 21.4698 30.4809 21.4698 28.0455C21.4698 25.6101 23.4563 23.6236 25.8917 23.6236C28.3272 23.6236 30.3136 25.6101 30.3136 28.0455C30.3136 30.4809 28.3272 32.4674 25.8917 32.4674ZM25.8917 24.8475C24.1267 24.8475 22.6937 26.2804 22.6937 28.0455C22.6937 29.8106 24.1267 31.2435 25.8917 31.2435C27.6568 31.2435 29.0898 29.8106 29.0898 28.0455C29.0898 26.2804 27.6568 24.8475 25.8917 24.8475Z" fill="#F5F5F7"/>
<path d="M25.8917 26.6925C25.5535 26.6925 25.2767 26.4158 25.2767 26.0775V25.7823C25.2767 25.4441 25.5535 25.1673 25.8917 25.1673C26.23 25.1673 26.5067 25.4441 26.5067 25.7823V26.0775C26.5067 26.4158 26.23 26.6925 25.8917 26.6925Z" fill="#F5F5F7"/>
<path d="M25.8917 30.9115C25.5535 30.9115 25.2767 30.6347 25.2767 30.2965V30.0074C25.2767 29.6691 25.5535 29.3924 25.8917 29.3924C26.23 29.3924 26.5067 29.6691 26.5067 30.0074V30.2965C26.5067 30.6347 26.23 30.9115 25.8917 30.9115Z" fill="#F5F5F7"/>
<path d="M15.2398 30.6532C14.5879 30.6532 13.9851 30.3026 13.6653 29.7306C13.4993 29.4354 13.6038 29.0603 13.899 28.8942C14.1942 28.7282 14.5694 28.8327 14.7355 29.1279C14.84 29.3124 15.0307 29.4231 15.2398 29.4231C15.5596 29.4231 15.824 29.1648 15.824 28.845C15.824 28.5252 15.5657 28.2669 15.2398 28.2669C14.2434 28.2669 13.4316 27.4551 13.4316 26.4588C13.4316 25.4625 14.2434 24.6507 15.2398 24.6507C15.8855 24.6507 16.4821 24.9951 16.808 25.5548C16.9741 25.85 16.8757 26.2251 16.5805 26.3912C16.2853 26.5572 15.9101 26.4588 15.7441 26.1636C15.6395 25.9853 15.4489 25.8684 15.2398 25.8684C14.92 25.8684 14.6617 26.1267 14.6617 26.4465C14.6617 26.7663 14.92 27.0246 15.2398 27.0246C16.2361 27.0246 17.0479 27.8364 17.0479 28.8327C17.0479 29.829 16.2361 30.6409 15.2398 30.6409V30.6532Z" fill="#F5F5F7"/>
<path d="M15.2399 32.8979C12.3493 32.8979 10 30.5486 10 27.6581C10 24.7675 12.3493 22.4182 15.2399 22.4182C18.1304 22.4182 20.4797 24.7675 20.4797 27.6581C20.4797 30.5486 18.1304 32.8979 15.2399 32.8979ZM15.2399 23.6421C13.0258 23.6421 11.2239 25.444 11.2239 27.6581C11.2239 29.8721 13.0258 31.6741 15.2399 31.6741C17.4539 31.6741 19.2558 29.8721 19.2558 27.6581C19.2558 25.444 17.4539 23.6421 15.2399 23.6421Z" fill="#F5F5F7"/>
<path d="M15.2399 25.8807C14.9016 25.8807 14.6249 25.6039 14.6249 25.2657V24.909C14.6249 24.5707 14.9016 24.2939 15.2399 24.2939C15.5781 24.2939 15.8549 24.5707 15.8549 24.909V25.2657C15.8549 25.6039 15.5781 25.8807 15.2399 25.8807Z" fill="#F5F5F7"/>
<path d="M15.2399 31.0099C14.9016 31.0099 14.6249 30.7331 14.6249 30.3949V30.0382C14.6249 29.6999 14.9016 29.4232 15.2399 29.4232C15.5781 29.4232 15.8549 29.6999 15.8549 30.0382V30.3949C15.8549 30.7331 15.5781 31.0099 15.2399 31.0099Z" fill="#F5F5F7"/>
<path d="M36.3162 34.3124H30.8611C30.5228 34.3124 30.2461 34.0357 30.2461 33.6974C30.2461 33.3592 30.5228 33.0824 30.8611 33.0824H36.3162C36.6545 33.0824 36.9312 33.3592 36.9312 33.6974C36.9312 34.0357 36.6545 34.3124 36.3162 34.3124Z" fill="#F5F5F7"/>
</svg>
