<svg width="24" height="25" viewBox="0 0 24 25" fill="none" xmlns="http://www.w3.org/2000/svg">
<g clip-path="url(#clip0_93_11270)">
<path d="M16.5 1.96783C16.8978 1.96783 17.2794 2.12587 17.5607 2.40717C17.842 2.68848 18 3.07001 18 3.46783V21.4678C18 21.8657 17.842 22.2472 17.5607 22.5285C17.2794 22.8098 16.8978 22.9678 16.5 22.9678H7.5C7.10218 22.9678 6.72064 22.8098 6.43934 22.5285C6.15804 22.2472 6 21.8657 6 21.4678V3.46783C6 3.07001 6.15804 2.68848 6.43934 2.40717C6.72064 2.12587 7.10218 1.96783 7.5 1.96783H16.5ZM7.5 0.467834C6.70435 0.467834 5.94129 0.783905 5.37868 1.34651C4.81607 1.90912 4.5 2.67218 4.5 3.46783V21.4678C4.5 22.2635 4.81607 23.0265 5.37868 23.5892C5.94129 24.1518 6.70435 24.4678 7.5 24.4678H16.5C17.2956 24.4678 18.0587 24.1518 18.6213 23.5892C19.1839 23.0265 19.5 22.2635 19.5 21.4678V3.46783C19.5 2.67218 19.1839 1.90912 18.6213 1.34651C18.0587 0.783905 17.2956 0.467834 16.5 0.467834L7.5 0.467834Z" fill="#2F2F3E"/>
<path d="M12 21.4678C12.3978 21.4678 12.7794 21.3098 13.0607 21.0285C13.342 20.7472 13.5 20.3657 13.5 19.9678C13.5 19.57 13.342 19.1885 13.0607 18.9072C12.7794 18.6259 12.3978 18.4678 12 18.4678C11.6022 18.4678 11.2206 18.6259 10.9393 18.9072C10.658 19.1885 10.5 19.57 10.5 19.9678C10.5 20.3657 10.658 20.7472 10.9393 21.0285C11.2206 21.3098 11.6022 21.4678 12 21.4678Z" fill="#2F2F3E"/>
</g>
<defs>
<clipPath id="clip0_93_11270">
<rect width="24" height="24" fill="white" transform="translate(0 0.467834)"/>
</clipPath>
</defs>
</svg>
