<svg width="24" height="25" viewBox="0 0 24 25" fill="none" xmlns="http://www.w3.org/2000/svg">
<path d="M15.3348 11.3571V11.3682M4.41649 8.44395C3.92918 8.06942 3.55492 7.56744 3.33506 6.9935C3.1152 6.41957 3.05832 5.79601 3.17069 5.19177C3.28306 4.58752 3.56031 4.0261 3.97179 3.56958C4.38328 3.11305 4.91299 2.77918 5.50236 2.60487C6.09173 2.43057 6.71782 2.42261 7.31143 2.58189C7.90505 2.74116 8.44306 3.06146 8.86602 3.50739C9.28897 3.95331 9.5804 4.5075 9.70809 5.1087C9.83577 5.7099 9.79475 6.33469 9.58954 6.91403" stroke="#2F2F3E" stroke-width="1.5" stroke-linecap="round" stroke-linejoin="round"/>
<path d="M16.4459 3.57977V7.8051C17.8209 8.60075 18.8678 9.85993 19.399 11.3571H20.8889C21.1836 11.3571 21.4662 11.4742 21.6746 11.6826C21.8829 11.8909 22 12.1735 22 12.4682V14.6903C22 14.985 21.8829 15.2676 21.6746 15.4759C21.4662 15.6843 21.1836 15.8013 20.8889 15.8013H19.3979C19.0246 16.8568 18.3902 17.8012 17.5558 18.549V20.8011C17.5558 21.2431 17.3802 21.667 17.0677 21.9795C16.7551 22.2921 16.3312 22.4676 15.8892 22.4676C15.4472 22.4676 15.0233 22.2921 14.7108 21.9795C14.3982 21.667 14.2226 21.2431 14.2226 20.8011V20.1533C13.8555 20.2148 13.4839 20.2457 13.1116 20.2455H8.66738C8.29512 20.2457 7.92348 20.2148 7.55633 20.1533V20.8011C7.55633 21.2431 7.38075 21.667 7.0682 21.9795C6.75566 22.2921 6.33176 22.4676 5.88975 22.4676C5.44775 22.4676 5.02385 22.2921 4.71131 21.9795C4.39876 21.667 4.22318 21.2431 4.22318 20.8011V18.549C3.21652 17.649 2.50691 16.4645 2.18827 15.1523C1.86963 13.8402 1.95698 12.4622 2.43876 11.2007C2.92055 9.93929 3.77405 8.8539 4.88629 8.08823C5.99853 7.32256 7.31707 6.91271 8.66738 6.91293H11.445L16.4447 3.57977H16.4459Z" stroke="#2F2F3E" stroke-width="1.5" stroke-linecap="round" stroke-linejoin="round"/>
</svg>
