<svg width="24" height="25" viewBox="0 0 24 25" fill="none" xmlns="http://www.w3.org/2000/svg">
<g clip-path="url(#clip0_93_11338)">
<path fill-rule="evenodd" clip-rule="evenodd" d="M17.991 6.47783L5.39904 11.0308L9.59404 13.4588L13.293 9.75883C13.4807 9.57133 13.7351 9.46604 14.0004 9.46613C14.2657 9.46622 14.52 9.57169 14.7075 9.75933C14.8951 9.94697 15.0003 10.2014 15.0002 10.4667C15.0002 10.732 14.8947 10.9863 14.707 11.1738L11.007 14.8738L13.437 19.0678L17.991 6.47783ZM18.314 4.23383C19.509 3.80083 20.667 4.95883 20.234 6.15383L14.952 20.7588C14.518 21.9568 12.882 22.1028 12.243 20.9998L9.02604 15.4418L3.46804 12.2248C2.36504 11.5858 2.51004 9.94983 3.70904 9.51583L18.314 4.23383Z" fill="#2F2F3E"/>
</g>
<defs>
<clipPath id="clip0_93_11338">
<rect width="24" height="24" fill="white" transform="translate(0 0.467834)"/>
</clipPath>
</defs>
</svg>
