<svg width="60" height="60" viewBox="0 0 60 60" fill="none" xmlns="http://www.w3.org/2000/svg">
<path d="M42.1034 24.7704C42.0135 24.7704 41.9185 24.7454 41.8386 24.6955L27.8763 16.0103C27.7264 15.9153 27.6364 15.7554 27.6414 15.5805C27.6414 15.4056 27.7364 15.2457 27.8863 15.1558L33.1434 12.0675C33.2983 11.9775 33.4932 11.9775 33.6481 12.0675L47.7503 20.3529C47.9002 20.4428 47.9952 20.5977 47.9952 20.7726C47.9952 20.9475 47.9102 21.1075 47.7653 21.2024L42.3683 24.6905C42.2883 24.7454 42.1934 24.7704 42.0984 24.7704H42.1034ZM29.1056 15.6005L42.0984 23.681L46.551 20.8026L33.3982 13.0769L29.1056 15.6005Z" fill="#F5F5F7"/>
<path d="M33.3982 30.4023C33.3032 30.4023 33.2083 30.3773 33.1283 30.3223L19.0261 21.2024C18.8812 21.1074 18.7963 20.9475 18.7963 20.7726C18.7963 20.5977 18.8912 20.4428 19.0411 20.3529L24.623 17.0747C24.7829 16.9797 24.9828 16.9847 25.1427 17.0797L39.2599 25.8598C39.4048 25.9498 39.4948 26.1097 39.4948 26.2796C39.4948 26.4495 39.4098 26.6094 39.2649 26.7043L33.673 30.3223C33.5931 30.3773 33.4981 30.4023 33.4032 30.4023H33.3982ZM20.2455 20.8076L33.3982 29.3079L38.0606 26.2946L24.8679 18.0891L20.2455 20.8026V20.8076Z" fill="#F5F5F7"/>
<path d="M42.1532 42.9753C42.0733 42.9753 41.9883 42.9553 41.9133 42.9154C41.7534 42.8254 41.6535 42.6605 41.6535 42.4756V24.4856C41.6235 24.4206 41.6035 24.3506 41.6035 24.2757C41.6035 24.1058 41.6885 23.9459 41.8334 23.8509L47.2304 20.3629C47.3853 20.2629 47.5802 20.2579 47.7401 20.3429C47.9 20.4328 48 20.5977 48 20.7826V39.0175C48 39.1874 47.915 39.3473 47.7701 39.4373L42.4181 42.8954C42.3381 42.9503 42.2432 42.9753 42.1482 42.9753H42.1532ZM42.6529 24.5155V41.5611L47.0055 38.7477V21.7021L42.6529 24.5155Z" fill="#F5F5F7"/>
<path d="M33.398 48.6322C33.3181 48.6322 33.2331 48.6122 33.1582 48.5722C32.9983 48.4823 32.8983 48.3174 32.8983 48.1325V29.8976C32.8983 29.7277 32.9833 29.5677 33.1282 29.4778L38.7201 25.8598C38.885 25.7549 39.0899 25.7549 39.2548 25.8548L39.2998 25.8798C39.4447 25.9697 39.5346 26.1296 39.5346 26.3046V44.4845C39.5346 44.6544 39.4497 44.8143 39.3048 44.9042L33.6679 48.5472C33.5879 48.6022 33.493 48.6272 33.398 48.6272V48.6322ZM33.8978 30.1724V47.218L38.5352 44.2196V27.1741L33.8978 30.1724Z" fill="#F5F5F7"/>
<path d="M33.3981 48.6322C33.3032 48.6322 33.2082 48.6072 33.1283 48.5522L19.0261 39.4373C18.8812 39.3473 18.7962 39.1874 18.7962 39.0175V36.8237H13.6741C12.7496 36.8237 12 36.0741 12 35.1497C12 34.2252 12.7496 33.4756 13.6741 33.4756H14.4436C14.3537 33.2707 14.3037 33.0408 14.3037 32.801C14.3037 32.5611 14.3537 32.3312 14.4436 32.1263H14.2088C13.2843 32.1263 12.5347 31.3767 12.5347 30.4523C12.5347 29.5278 13.2843 28.7782 14.2088 28.7782H18.8012V20.7776C18.8012 20.5927 18.9012 20.4278 19.0611 20.3379C19.221 20.2529 19.4159 20.2579 19.5708 20.3578L33.673 29.4728C33.8179 29.5627 33.9029 29.7227 33.9029 29.8926V48.1275C33.9029 48.3124 33.8029 48.4773 33.643 48.5672C33.568 48.6072 33.4881 48.6272 33.4031 48.6272L33.3981 48.6322ZM19.7957 38.7427L32.8984 47.213V30.1674L19.7957 21.7021V29.2829C19.7957 29.5577 19.5708 29.7826 19.296 29.7826H14.2038C13.834 29.7826 13.5292 30.0875 13.5292 30.4572C13.5292 30.827 13.834 31.1319 14.2038 31.1319H15.9728C16.2476 31.1319 16.4725 31.3568 16.4725 31.6316C16.4725 31.9064 16.2476 32.1313 15.9728 32.1313C15.603 32.1313 15.2982 32.4362 15.2982 32.8059C15.2982 33.1757 15.603 33.4806 15.9728 33.4806C16.2476 33.4806 16.4725 33.7055 16.4725 33.9803C16.4725 34.2551 16.2476 34.48 15.9728 34.48H13.6741C13.3043 34.48 12.9994 34.7799 12.9994 35.1546C12.9994 35.5294 13.3043 35.8293 13.6741 35.8293H19.296C19.5708 35.8293 19.7957 36.0541 19.7957 36.329V38.7477V38.7427Z" fill="#F5F5F7"/>
<path d="M27.1316 34.475H17.5219C17.2471 34.475 17.0222 34.2502 17.0222 33.9753C17.0222 33.7005 17.2471 33.4756 17.5219 33.4756H27.1316C27.4065 33.4756 27.6313 33.7005 27.6313 33.9753C27.6313 34.2502 27.4065 34.475 27.1316 34.475Z" fill="#F5F5F7"/>
<path d="M20.99 32.1313H15.9727C15.6979 32.1313 15.473 31.9065 15.473 31.6316C15.473 31.3568 15.6979 31.1319 15.9727 31.1319H20.99C21.2648 31.1319 21.4897 31.3568 21.4897 31.6316C21.4897 31.9065 21.2648 32.1313 20.99 32.1313Z" fill="#F5F5F7"/>
<path d="M39.035 44.9893C38.955 44.9893 38.8701 44.9693 38.7951 44.9293C38.6352 44.8393 38.5353 44.6744 38.5353 44.4895V26.5895L24.613 17.9293C24.4631 17.8343 24.3731 17.6744 24.3781 17.4995C24.3781 17.3246 24.4731 17.1647 24.623 17.0747L27.8862 15.1558C28.0461 15.0609 28.246 15.0658 28.4059 15.1608L42.4181 23.876C42.563 23.9659 42.653 24.1258 42.653 24.3007V42.4757C42.653 42.6456 42.568 42.8055 42.4231 42.8954L39.3049 44.9093C39.2199 44.9643 39.13 44.9893 39.035 44.9893ZM25.8423 17.5145L39.2999 25.8849C39.4448 25.9748 39.5347 26.1347 39.5347 26.3096V43.5701L41.6536 42.2008V24.5806L28.131 16.1702L25.8423 17.5145Z" fill="#F5F5F7"/>
</svg>
