<svg width="60" height="60" viewBox="0 0 60 60" fill="none" xmlns="http://www.w3.org/2000/svg">
<path d="M41.7104 29.7316H37.0753V24.3524H37.491C39.819 24.3524 41.7104 26.2439 41.7104 28.5718V29.7316ZM37.9067 28.9002H40.879V28.5718C40.879 26.8466 39.582 25.4166 37.9067 25.2088V28.9002Z" fill="#F5F5F7"/>
<path d="M47.5802 33.2194H42.8162C42.5876 33.2194 42.4005 33.0323 42.4005 32.8037C42.4005 32.5751 42.5876 32.388 42.8162 32.388H47.5802C47.8088 32.388 47.9959 32.5751 47.9959 32.8037C47.9959 33.0323 47.8088 33.2194 47.5802 33.2194Z" fill="#F5F5F7"/>
<path d="M39.3949 33.2194H36.0069C35.7783 33.2194 35.5912 33.0323 35.5912 32.8037C35.5912 32.5751 35.7783 32.388 36.0069 32.388H39.3949C39.6235 32.388 39.8106 32.5751 39.8106 32.8037C39.8106 33.0323 39.6235 33.2194 39.3949 33.2194Z" fill="#F5F5F7"/>
<path d="M42.8162 34.375C42.5876 34.375 42.4005 34.188 42.4005 33.9593V31.5275C42.4005 31.2988 42.5876 31.1118 42.8162 31.1118C43.0449 31.1118 43.2319 31.2988 43.2319 31.5275V33.9593C43.2319 34.188 43.0449 34.375 42.8162 34.375Z" fill="#F5F5F7"/>
<path d="M22.4882 40.1949C20.9917 40.1949 19.7737 38.9769 19.7737 37.4804C19.7737 35.9838 20.9917 34.7658 22.4882 34.7658C23.9848 34.7658 25.2028 35.9838 25.2028 37.4804C25.2028 38.9769 23.9848 40.1949 22.4882 40.1949ZM22.4882 35.5972C21.449 35.5972 20.6051 36.4411 20.6051 37.4804C20.6051 38.5196 21.449 39.3635 22.4882 39.3635C23.5275 39.3635 24.3714 38.5196 24.3714 37.4804C24.3714 36.4411 23.5275 35.5972 22.4882 35.5972Z" fill="#F5F5F7"/>
<path d="M28.3164 40.1949C26.8198 40.1949 25.6018 38.9769 25.6018 37.4804C25.6018 35.9838 26.8198 34.7658 28.3164 34.7658C29.8129 34.7658 31.0309 35.9838 31.0309 37.4804C31.0309 38.9769 29.8129 40.1949 28.3164 40.1949ZM28.3164 35.5972C27.2771 35.5972 26.4332 36.4411 26.4332 37.4804C26.4332 38.5196 27.2771 39.3635 28.3164 39.3635C29.3556 39.3635 30.1995 38.5196 30.1995 37.4804C30.1995 36.4411 29.3556 35.5972 28.3164 35.5972Z" fill="#F5F5F7"/>
<path d="M36.0028 36.3954H31.5049C31.3427 36.3954 31.1972 36.3039 31.1307 36.1584C30.6194 35.0693 29.5136 34.3668 28.3164 34.3668C27.2896 34.3668 26.3294 34.8739 25.7474 35.7261C25.5936 35.9547 25.2153 35.9547 25.0615 35.7261C24.4795 34.8739 23.5192 34.3668 22.4924 34.3668C21.2952 34.3668 20.1894 35.0693 19.6781 36.1584C19.6074 36.3039 19.4619 36.3954 19.3039 36.3954H17.3585C17.1298 36.3954 16.9427 36.2083 16.9427 35.9797V32.8037C16.9427 32.5751 17.1298 32.388 17.3585 32.388H36.0111C36.2397 32.388 36.4268 32.5751 36.4268 32.8037V35.9797C36.4268 36.2083 36.2397 36.3954 36.0111 36.3954H36.0028ZM31.7585 35.564H35.5871V33.2194H17.77V35.564H19.0462C19.7363 34.3252 21.0624 33.5353 22.4882 33.5353C23.6065 33.5353 24.6582 34.0092 25.4023 34.8199C26.1464 34.0051 27.1982 33.5353 28.3164 33.5353C29.7423 33.5353 31.0684 34.3252 31.7585 35.564Z" fill="#F5F5F7"/>
<path d="M42.6042 40.1949C41.1077 40.1949 39.8896 38.9769 39.8896 37.4804C39.8896 35.9838 41.1077 34.7658 42.6042 34.7658C44.1007 34.7658 45.3187 35.9838 45.3187 37.4804C45.3187 38.9769 44.1007 40.1949 42.6042 40.1949ZM42.6042 35.5972C41.5649 35.5972 40.7211 36.4411 40.7211 37.4804C40.7211 38.5196 41.5649 39.3635 42.6042 39.3635C43.6435 39.3635 44.4873 38.5196 44.4873 37.4804C44.4873 36.4411 43.6435 35.5972 42.6042 35.5972Z" fill="#F5F5F7"/>
<path d="M47.5801 36.3954H45.7926C45.6304 36.3954 45.485 36.3039 45.4184 36.1584C44.9071 35.0693 43.8013 34.3668 42.6041 34.3668C41.4069 34.3668 40.3011 35.0693 39.7898 36.1584C39.7233 36.3039 39.5736 36.3954 39.4157 36.3954H36.0069C35.7783 36.3954 35.5912 36.2083 35.5912 35.9797V22.6522C35.5912 22.4236 35.7783 22.2365 36.0069 22.2365H37.5658C40.6919 22.2365 43.236 24.7806 43.236 27.9067V28.9169C44.9362 29.0499 46.5034 30.006 47.3972 31.4735C47.4055 31.4859 47.4097 31.4984 47.418 31.5109L47.9584 32.6291C47.9875 32.6873 48 32.7455 48 32.8079V35.9839C48 36.2125 47.8129 36.3996 47.5843 36.3996L47.5801 36.3954ZM46.0462 35.564H47.1644V32.8993L46.6739 31.885C45.8549 30.5548 44.3792 29.7275 42.8161 29.7275C42.5875 29.7275 42.4004 29.5404 42.4004 29.3118V27.9026C42.4004 25.2337 40.2304 23.0638 37.5616 23.0638H36.4184V35.5598H39.1579C39.848 34.321 41.1741 33.5312 42.6 33.5312C44.0258 33.5312 45.3519 34.321 46.042 35.5598L46.0462 35.564Z" fill="#F5F5F7"/>
<path d="M26.0175 37.896H24.787C24.5584 37.896 24.3713 37.709 24.3713 37.4803C24.3713 37.2517 24.5584 37.0646 24.787 37.0646H26.0175C26.2462 37.0646 26.4332 37.2517 26.4332 37.4803C26.4332 37.709 26.2462 37.896 26.0175 37.896Z" fill="#F5F5F7"/>
<path d="M34.6808 33.2194H16.0739C15.1635 33.2194 14.4236 32.4794 14.4236 31.5649C14.4236 30.6503 15.1635 29.9104 16.0739 29.9104H17.9487C17.8074 29.6693 17.7284 29.3866 17.7284 29.0873C17.7284 28.788 17.8074 28.5095 17.9487 28.2642H16.606C15.6956 28.2642 14.9515 27.5242 14.9515 26.6097C14.9515 26.3104 15.0305 26.0319 15.1718 25.7866H13.6503C12.74 25.7866 12 25.0467 12 24.1321C12 23.2176 12.74 22.4776 13.6503 22.4776H17.1589C17.0217 22.2365 16.9386 21.9538 16.9386 21.6545C16.9386 20.7441 17.6785 20 18.5931 20H34.685C34.9136 20 35.1007 20.1871 35.1007 20.4157V32.7829C35.1007 33.0115 34.9136 33.1986 34.685 33.1986L34.6808 33.2194ZM16.0739 30.746C15.6208 30.746 15.255 31.1159 15.255 31.5691C15.255 32.0222 15.6249 32.3921 16.0739 32.3921H34.2651V20.8522H18.5889C18.1358 20.8522 17.7658 21.2222 17.7658 21.6753C17.7658 22.1284 18.1358 22.4984 18.5889 22.4984C18.8176 22.4984 19.0046 22.6855 19.0046 22.9141C19.0046 23.1427 18.8176 23.3298 18.5889 23.3298H13.6462C13.1931 23.3298 12.8273 23.6998 12.8273 24.1529C12.8273 24.606 13.1972 24.976 13.6462 24.976H16.6018C16.8305 24.976 17.0176 25.163 17.0176 25.3917C17.0176 25.6203 16.8305 25.8074 16.6018 25.8074C16.1487 25.8074 15.7788 26.1774 15.7788 26.6305C15.7788 27.0836 16.1487 27.4536 16.6018 27.4536H19.3788C19.6074 27.4536 19.7945 27.6406 19.7945 27.8693C19.7945 28.0979 19.6074 28.285 19.3788 28.285C18.9256 28.285 18.5557 28.655 18.5557 29.1081C18.5557 29.5612 18.9256 29.9312 19.3788 29.9312C19.6074 29.9312 19.7945 30.1182 19.7945 30.3469C19.7945 30.5755 19.6074 30.7626 19.3788 30.7626H16.0697L16.0739 30.746Z" fill="#F5F5F7"/>
<path d="M28.2415 25.7991H26.5787V24.9677H28.2415V25.7991ZM24.9159 25.7991H23.2531V24.9677H24.9159V25.7991ZM21.5903 25.7991H19.9274V24.9677H21.5903V25.7991ZM18.2646 25.7991H16.6018V24.9677H18.2646V25.7991Z" fill="#F5F5F7"/>
<path d="M21.5737 22.4942H19.9109V23.3256H21.5737V22.4942Z" fill="#F5F5F7"/>
<path d="M22.3677 29.9146H20.7048V30.746H22.3677V29.9146Z" fill="#F5F5F7"/>
<path d="M25.9551 28.2725H24.2923V27.4411H25.9551V28.2725ZM22.6295 28.2725H20.9667V27.4411H22.6295V28.2725Z" fill="#F5F5F7"/>
</svg>
