<svg width="25" height="24" viewBox="0 0 25 24" fill="none" xmlns="http://www.w3.org/2000/svg">
<g id="icon / jam-icons / outline &#38; logos / twitter">
<path id="Vector" d="M22.4668 5.90716C21.7172 6.23454 20.9233 6.4492 20.1108 6.54416C20.9636 6.0434 21.6048 5.24927 21.9148 4.31016C21.1068 4.78049 20.2255 5.11177 19.3078 5.29016C18.9213 4.88537 18.4565 4.56355 17.9416 4.34434C17.4266 4.12513 16.8724 4.01313 16.3128 4.01516C14.0468 4.01516 12.2098 5.82516 12.2098 8.05516C12.2098 8.37116 12.2458 8.68016 12.3158 8.97516C10.6904 8.89786 9.09891 8.48257 7.64296 7.7558C6.18702 7.02903 4.89856 6.00674 3.8598 4.75416C3.49562 5.36857 3.30421 6.06994 3.3058 6.78416C3.30649 7.45213 3.47363 8.10939 3.79209 8.69656C4.11055 9.28372 4.5703 9.78228 5.1298 10.1472C4.47928 10.1262 3.84282 9.95249 3.2718 9.64016V9.69016C3.2718 11.6482 4.6868 13.2812 6.5618 13.6532C6.20941 13.7467 5.84638 13.7941 5.4818 13.7942C5.2168 13.7942 4.9598 13.7692 4.7088 13.7192C4.97688 14.5271 5.4899 15.2315 6.17661 15.7345C6.86333 16.2375 7.68964 16.5142 8.5408 16.5262C7.08086 17.6507 5.28862 18.2582 3.4458 18.2532C3.1138 18.2532 2.7878 18.2332 2.4668 18.1972C4.34805 19.3879 6.52939 20.0184 8.7558 20.0152C16.3028 20.0152 20.4288 13.8582 20.4288 8.51916L20.4148 7.99616C21.2197 7.42983 21.9149 6.72201 22.4668 5.90716Z" fill="white"/>
</g>
</svg>
