<svg width="60" height="60" viewBox="0 0 60 60" fill="none" xmlns="http://www.w3.org/2000/svg">
<path d="M37.3956 47.9959H37.1263C35.9455 47.9959 34.8392 47.4697 34.0893 46.5582L33.9277 46.3635C33.8283 46.2392 33.8034 46.0693 33.8739 45.9243C33.9443 45.7793 34.0893 45.6881 34.2468 45.6881H37.7933L38.3775 37.7912L37.234 36.4074C37.1718 36.3328 37.1387 36.2417 37.1387 36.1423V33.3539H23.0312V36.1423C23.0312 36.2375 22.9981 36.3328 22.9359 36.4074L21.7924 37.7912L22.3766 45.6881H25.9231C26.0847 45.6881 26.2297 45.7793 26.296 45.9243C26.3665 46.0693 26.3416 46.2392 26.2422 46.3635L26.0806 46.5623C25.3348 47.478 24.2244 48 23.0436 48H22.7743C21.5024 48 20.305 47.3785 19.5717 46.3386C19.5385 46.2889 19.5136 46.235 19.5012 46.177L18.0428 38.6116C17.9558 38.1558 18.0014 37.6877 18.1795 37.2568C18.1878 37.2319 18.2044 37.207 18.2168 37.1863L23.2674 29.6085C23.7273 28.9166 24.4274 28.4608 25.1856 28.3531L28.177 27.9263C28.2972 27.9098 28.4173 27.9429 28.5085 28.0216C28.5996 28.1004 28.6493 28.2164 28.6493 28.3365C28.6493 28.3365 28.6493 28.6307 28.6493 28.8088L29.739 30.1554C29.8219 30.2589 29.9503 30.3211 30.0829 30.3211C30.2155 30.3211 30.3439 30.2631 30.4268 30.1554C30.9985 29.4469 31.3175 29.0533 31.5164 28.8296V28.3365C31.5164 28.2164 31.5703 28.1004 31.6573 28.0216C31.7484 27.9429 31.8686 27.9098 31.9887 27.9263L34.9801 28.3531C35.7383 28.4608 36.4385 28.9166 36.8984 29.6085L41.9489 37.1863C41.9655 37.2112 41.9779 37.2319 41.9862 37.2568C42.1644 37.6877 42.2099 38.1517 42.1229 38.6116L40.6645 46.1729C40.6521 46.2309 40.6314 46.2847 40.5941 46.3345C39.8608 47.3744 38.6634 47.9959 37.3914 47.9959H37.3956ZM35.2204 46.5126C35.759 46.9352 36.4261 47.1672 37.1263 47.1672H37.3956C38.3692 47.1672 39.289 46.7073 39.869 45.9284L41.3109 38.4583C41.3647 38.1724 41.3399 37.8824 41.2363 37.6131L36.2106 30.0725C35.875 29.5712 35.3986 29.2522 34.8641 29.1776L32.345 28.8171V28.9621C32.345 29.0657 32.3078 29.161 32.2415 29.2356C32.1545 29.3392 31.0731 30.6816 31.0731 30.6816C30.8286 30.984 30.4682 31.1539 30.0829 31.1539C29.6976 31.1539 29.3371 30.9799 29.0927 30.6816L28.003 29.335C27.8746 29.2687 27.8331 29.1154 27.8207 28.8171L25.2934 29.1776C24.7589 29.2522 24.2824 29.5712 23.9468 30.0725L18.9336 37.6131C18.83 37.8824 18.8052 38.1724 18.859 38.4583L20.3009 45.9284C20.8809 46.7073 21.8007 47.1672 22.7743 47.1672H23.0436C23.7438 47.1672 24.4109 46.9352 24.9495 46.5126H21.9871C21.7717 46.5126 21.5894 46.3469 21.5728 46.1273L20.9472 37.6794C20.9389 37.5716 20.972 37.4681 21.0425 37.3852L22.1984 35.9848V32.9271C22.1984 32.6993 22.3849 32.5128 22.6127 32.5128H37.5572C37.785 32.5128 37.9715 32.6993 37.9715 32.9271V35.9848L39.1274 37.3852C39.1937 37.4681 39.231 37.5716 39.2227 37.6794L38.5971 46.1273C38.5805 46.3427 38.4024 46.5126 38.1828 46.5126H35.2204Z" fill="#F5F5F7"/>
<path d="M25.339 23.7086C24.3074 23.7086 23.5492 23.2156 23.255 22.3414C22.994 21.5707 23.1473 20.6261 23.5864 20.3112C24.3032 19.7974 25.2686 20.7835 25.455 20.9824L24.846 21.5459C24.5849 21.2641 24.2121 21.0031 24.0671 20.9948C23.9759 21.144 23.8599 21.7157 24.0961 22.2171C24.3156 22.677 24.759 22.9048 25.4219 22.88L25.4509 23.7086C25.4136 23.7086 25.3763 23.7086 25.339 23.7086Z" fill="#F5F5F7"/>
<path d="M34.8351 23.7086C34.7978 23.7086 34.7605 23.7086 34.7233 23.7086L34.7523 22.8799C35.4152 22.9007 35.8626 22.6811 36.0781 22.217C36.3142 21.7157 36.1982 21.1481 36.1071 20.9948C35.9579 21.0072 35.5892 21.2683 35.3282 21.5458L34.7191 20.9824C34.9056 20.7794 35.8751 19.7974 36.5877 20.3112C37.0227 20.6219 37.1802 21.5707 36.9191 22.3413C36.625 23.2155 35.8668 23.7086 34.8351 23.7086Z" fill="#F5F5F7"/>
<path d="M24.1002 19.3997C24.0132 19.3997 23.9262 19.3707 23.8516 19.3168C23.7439 19.234 23.6817 19.1055 23.6859 18.973C23.6859 18.9025 23.9759 12 30.1202 12C32.0592 12 33.6005 12.58 34.7067 13.7277C36.567 15.6584 36.4883 18.4716 36.4841 18.5876C36.48 18.7036 36.4261 18.8155 36.335 18.8901C36.2438 18.9647 36.1278 19.002 36.0077 18.9812C35.9206 18.9688 33.8159 18.6415 32.399 17.4814C31.6905 16.8972 31.2927 16.4953 31.0731 16.2219C29.8923 16.8227 25.9522 18.8114 24.2245 19.379C24.183 19.3914 24.1375 19.3997 24.096 19.3997H24.1002ZM30.1202 12.8286C25.7367 12.8286 24.7755 16.7978 24.5684 18.3722C26.7891 17.5021 30.982 15.3353 31.0317 15.3145C31.1436 15.2565 31.272 15.2524 31.388 15.3021C31.4916 15.3477 31.5703 15.4305 31.6117 15.5383C31.6366 15.5838 31.8479 15.9526 32.9293 16.8434C33.7828 17.5436 34.976 17.904 35.6389 18.0615C35.5726 17.2287 35.2909 15.5217 34.1059 14.2953C33.1613 13.3217 31.8231 12.8286 30.1202 12.8286Z" fill="#F5F5F7"/>
<path d="M30.112 26.8491H30.0871C28.434 26.8491 27.0294 26.845 25.7119 25.1628C24.8874 24.1105 24.6471 21.0404 24.5933 18.6539C24.5933 18.4841 24.6927 18.3266 24.8501 18.2603C27.1289 17.3281 30.9945 15.3352 31.0317 15.3145C31.214 15.2192 31.4378 15.2731 31.5579 15.4388C31.5579 15.4388 31.8852 15.878 32.95 16.8558C33.5798 17.4358 34.4872 17.7424 35.2868 17.9703C35.4691 18.02 35.5934 18.1858 35.5892 18.3763C35.5561 20.4189 35.3655 24.0193 34.4664 25.167C33.1448 26.8491 31.7402 26.8533 30.1161 26.8533L30.112 26.8491ZM30.0705 26.0205C31.6905 26.0205 32.7387 26.0205 33.8077 24.6532C34.3214 23.9986 34.6777 21.724 34.7482 18.6788C33.932 18.4343 33.0536 18.0863 32.3824 17.4648C31.7237 16.8558 31.3301 16.4456 31.1146 16.2012C30.199 16.6694 27.3692 18.0987 25.426 18.9191C25.513 21.8773 25.8569 24.011 26.3624 24.6532C27.4355 26.0205 28.4796 26.0205 30.0622 26.0205H30.0747H30.0705Z" fill="#F5F5F7"/>
<path d="M37.5572 46.5085H22.617C22.3891 46.5085 22.2026 46.322 22.2026 46.0941V32.9313C22.2026 32.7034 22.3891 32.517 22.617 32.517H37.5614C37.7892 32.517 37.9757 32.7034 37.9757 32.9313V46.0941C37.9757 46.322 37.7892 46.5085 37.5614 46.5085H37.5572ZM23.0271 45.6798H37.1429V33.3456H23.0313V45.6798H23.0271Z" fill="#F5F5F7"/>
<path d="M31.5455 45.2614H28.6245C28.3967 45.2614 28.2102 45.075 28.2102 44.8471V40.4429H26.2754C26.1138 40.4429 25.9688 40.3517 25.9025 40.2067C25.8362 40.0617 25.8569 39.8918 25.9563 39.7675L29.7639 35.1313C29.9214 34.9408 30.2487 34.9408 30.402 35.1313L34.2095 39.7675C34.3131 39.8918 34.3338 40.0617 34.2634 40.2067C34.193 40.3517 34.048 40.4429 33.8905 40.4429H31.9557V44.8471C31.9557 45.075 31.7692 45.2614 31.5413 45.2614H31.5455ZM29.0389 44.4328H31.1312V40.0286C31.1312 39.8007 31.3176 39.6143 31.5455 39.6143H33.0163L30.0829 36.047L27.1496 39.6143H28.6204C28.8483 39.6143 29.0347 39.8007 29.0347 40.0286V44.4328H29.0389Z" fill="#F5F5F7"/>
<path d="M32.3989 34.4601H27.771C27.5431 34.4601 27.3567 34.2737 27.3567 34.0458V32.9313C27.3567 32.7034 27.5431 32.517 27.771 32.517H32.3989C32.6268 32.517 32.8132 32.7034 32.8132 32.9313V34.0458C32.8132 34.2737 32.6268 34.4601 32.3989 34.4601ZM28.1853 33.6315H31.9846V33.3456H28.1853V33.6315Z" fill="#F5F5F7"/>
<path d="M30.087 31.1539C29.7017 31.1539 29.3412 30.9798 29.0968 30.6815L27.9201 29.2231C27.8621 29.1486 27.829 29.0574 27.829 28.9621V26.3064C27.829 26.1903 27.8787 26.0826 27.9616 26.0039C28.0444 25.9252 28.1563 25.8879 28.2723 25.892L30.087 26.0246L31.9017 25.892C32.0136 25.8837 32.1296 25.9252 32.2125 26.0039C32.2953 26.0826 32.345 26.1903 32.345 26.3064V28.9621C32.345 29.0574 32.3119 29.1486 32.2539 29.2231L31.0772 30.6815C30.8328 30.984 30.4723 31.1539 30.087 31.1539ZM28.6576 28.8171L29.7431 30.1595C29.826 30.2631 29.9544 30.3252 30.087 30.3252C30.2196 30.3252 30.348 30.2672 30.4309 30.1595L31.5164 28.8171V26.7538L30.116 26.8574C30.116 26.8574 30.0746 26.8574 30.058 26.8574L28.6576 26.7538V28.8171Z" fill="#F5F5F7"/>
</svg>
