<?xml version="1.0" standalone="no"?>
<!DOCTYPE svg PUBLIC "-//W3C//DTD SVG 20010904//EN"
 "http://www.w3.org/TR/2001/REC-SVG-20010904/DTD/svg10.dtd">
<svg version="1.0" xmlns="http://www.w3.org/2000/svg"
 width="1184.000000pt" height="1184.000000pt" viewBox="0 0 1184.000000 1184.000000"
 preserveAspectRatio="xMidYMid meet">
<metadata>
Created by potrace 1.14, written by Peter Selinger 2001-2017
</metadata>
<g transform="translate(0.000000,1184.000000) scale(0.100000,-0.100000)"
fill="#000000" stroke="none">
<path d="M5885 11682 c-2 -2 -27 -6 -57 -8 -61 -4 -62 -4 -143 -28 -77 -23
-165 -67 -237 -120 -50 -36 -3324 -3304 -3373 -3366 -24 -32 -96 -172 -115
-225 -26 -75 -39 -179 -35 -285 4 -114 3 -108 29 -195 20 -70 84 -205 97 -205
5 0 9 -6 9 -13 0 -8 15 -31 33 -52 45 -54 788 -795 796 -795 8 0 855 846 859
858 1 4 -29 38 -68 76 -38 38 -70 73 -70 77 0 5 -4 9 -8 9 -5 0 -70 61 -145
136 l-136 136 1300 1300 1299 1299 162 -161 c88 -89 177 -169 197 -179 43 -20
107 -20 153 2 33 16 697 674 699 693 0 5 3 18 5 29 10 44 4 95 -15 132 -11 21
-168 185 -353 368 -340 337 -369 364 -410 386 -12 6 -25 15 -28 18 -6 7 -38
23 -110 54 -66 29 -138 47 -206 52 -27 2 -49 5 -49 5 0 4 -76 5 -80 2z"/>
<path d="M8883 8890 c-54 -24 -679 -649 -703 -703 -21 -46 -20 -109 3 -153 8
-16 87 -102 176 -190 l160 -162 -1729 -1729 c-952 -951 -1730 -1732 -1730
-1735 0 -10 296 -303 358 -355 62 -53 79 -63 165 -105 105 -51 198 -71 337
-71 99 -1 141 4 202 21 90 25 203 76 236 105 12 11 22 18 22 15 0 -4 17 8 37
25 70 60 3289 3282 3328 3332 22 28 42 52 45 55 3 3 11 16 18 30 6 14 16 32
21 40 26 46 41 80 35 80 -3 0 -2 6 4 13 9 11 22 50 38 122 11 47 13 235 4 285
-5 25 -11 61 -15 80 -4 19 -11 39 -16 45 -5 5 -9 15 -9 23 0 18 -42 106 -52
110 -5 2 -8 8 -8 14 0 30 -98 138 -404 446 -188 188 -355 349 -373 357 -47 23
-106 25 -150 5z"/>
<path d="M5825 8213 c-43 -7 -161 -36 -170 -41 -5 -4 -16 -7 -24 -9 -22 -3
-100 -44 -146 -76 -22 -15 -51 -35 -64 -44 -55 -39 -3314 -3308 -3356 -3367
-50 -70 -85 -143 -111 -232 -10 -33 -20 -66 -22 -74 -8 -26 -9 -290 -2 -290 4
0 7 -6 7 -12 -1 -25 16 -99 24 -104 5 -3 9 -13 9 -23 0 -24 71 -153 116 -211
43 -55 3251 -3266 3314 -3317 25 -20 50 -41 55 -48 27 -30 184 -102 272 -125
143 -36 355 -23 478 30 83 36 107 48 160 84 55 37 415 382 415 398 0 4 -778
785 -1729 1736 l-1730 1730 1295 1293 c712 712 1297 1296 1299 1299 3 2 79
-69 168 -158 163 -162 204 -192 266 -192 75 0 104 24 439 359 186 186 331 340
339 358 18 44 17 108 -3 149 -14 29 -534 560 -675 689 -39 36 -152 115 -164
115 -3 0 -24 9 -48 19 -58 27 -125 48 -178 57 -48 7 -201 12 -234 7z"/>
<path d="M8947 5444 c-2 -3 -17 -7 -32 -10 -15 -3 -39 -11 -54 -19 -39 -21
-666 -655 -683 -691 -17 -36 -15 -121 3 -156 7 -13 85 -97 175 -187 l163 -164
-865 -865 -865 -865 23 -25 c13 -13 207 -209 432 -434 l410 -409 1041 1041
c670 670 1056 1063 1083 1103 46 69 99 177 106 219 2 15 7 31 10 36 11 19 18
72 21 172 7 195 -43 356 -155 505 -60 80 -690 710 -730 730 -17 9 -30 13 -30
11 0 -3 -11 -1 -24 4 -13 5 -26 7 -29 4z"/>
</g>
</svg>
