<svg width="25" height="37" viewBox="0 0 25 37" fill="none" xmlns="http://www.w3.org/2000/svg">
<path d="M4.37999 12.9911L12.4992 4.87185L13.4472 5.81985C13.6704 6.04305 14.0352 6.04305 14.2584 5.81985L16.1544 3.92385C16.3776 3.70065 16.3776 3.33585 16.1544 3.11265L14.268 1.22625C13.2912 0.249452 11.7096 0.249452 10.7328 1.22625L0.73199 11.2247C-0.24481 12.2015 -0.24481 13.7831 0.73199 14.7599L3.02639 17.0543L5.73359 14.3471L4.37999 12.9935V12.9911Z" fill="#B531FD"/>
<path d="M24.2688 11.2247L22.3824 9.3383C22.1592 9.1151 21.7944 9.1151 21.5712 9.3383L19.6752 11.2343C19.452 11.4575 19.452 11.8223 19.6752 12.0455L20.6232 12.9935L12.5016 21.1151L9.79443 23.8223L10.7352 24.7631C11.712 25.7399 13.2936 25.7399 14.2704 24.7631L24.2712 14.7623C25.248 13.7855 25.248 12.2039 24.2712 11.2271L24.2688 11.2247Z" fill="#B531FD"/>
<path d="M24.2688 25.5861C25.2456 24.6093 25.2456 23.0277 24.2688 22.0509L22.3824 20.1645C22.1592 19.9413 21.7944 19.9413 21.5712 20.1645L19.6752 22.0605C19.452 22.2837 19.452 22.6485 19.6752 22.8717L20.6232 23.8197L15.2088 29.2341L17.916 31.9413L24.2688 25.5885V25.5861Z" fill="#00B4FE"/>
<path d="M12.4992 31.9412L4.37761 23.8196L4.65121 23.546L11.4312 16.7636L12.4968 15.698L13.4448 16.646C13.668 16.8692 14.0328 16.8692 14.256 16.646L16.152 14.75C16.3752 14.5268 16.3752 14.162 16.152 13.9388L14.2656 12.0524C13.2888 11.0756 11.7072 11.0756 10.7304 12.0524L7.81921 14.9636L3.75841 19.0244L0.729609 22.0532C-0.247191 23.03 -0.247191 24.6116 0.729609 25.5884L10.7304 35.5892C11.7072 36.566 13.2888 36.566 14.2656 35.5892L15.2064 34.6484L12.4992 31.9412Z" fill="#00B4FE"/>
</svg>
