<svg xmlns="http://www.w3.org/2000/svg" width="69.203" height="208.968" viewBox="0 0 69.203 208.968">
  <g id="wave_line" data-name="wave line" transform="translate(160.437 -738.932) rotate(90)" opacity="0.499">
    <g id="Group_10" data-name="Group 10">
      <path id="Path_13" data-name="Path 13" d="M739.082,91.384c6.136,0,6.136,6,12.272,6s6.134-6,12.268-6,6.136,6,12.272,6,6.137-6,12.274-6,6.136,6,12.272,6,6.136-6,12.273-6,6.136,6,12.273,6,6.138-6,12.276-6,6.137,6,12.273,6,6.138-6,12.275-6,6.138,6,12.275,6,6.136-6,12.272-6,6.137,6,12.274,6,6.139-6,12.278-6,6.138,6,12.275,6,6.142-6,12.283-6,6.142,6,12.283,6" fill="none" stroke="#f2f2f2" stroke-linecap="round" stroke-linejoin="round" stroke-width="0.3"/>
    </g>
    <g id="Group_11" data-name="Group 11">
      <path id="Path_14" data-name="Path 14" d="M739.082,107.11c6.136,0,6.136,6,12.272,6s6.134-6,12.268-6,6.136,6,12.272,6,6.137-6,12.274-6,6.136,6,12.272,6,6.136-6,12.273-6,6.136,6,12.273,6,6.138-6,12.276-6,6.137,6,12.273,6,6.138-6,12.275-6,6.138,6,12.275,6,6.136-6,12.272-6,6.137,6,12.274,6,6.139-6,12.278-6,6.138,6,12.275,6,6.142-6,12.283-6,6.142,6,12.283,6" fill="none" stroke="#f2f2f2" stroke-linecap="round" stroke-linejoin="round" stroke-width="0.3"/>
    </g>
    <g id="Group_12" data-name="Group 12">
      <path id="Path_15" data-name="Path 15" d="M739.082,122.836c6.136,0,6.136,6,12.272,6s6.134-6,12.268-6,6.136,6,12.272,6,6.137-6,12.274-6,6.136,6,12.272,6,6.136-6,12.273-6,6.136,6,12.273,6,6.138-6,12.276-6,6.137,6,12.273,6,6.138-6,12.275-6,6.138,6,12.275,6,6.136-6,12.272-6,6.137,6,12.274,6,6.139-6,12.278-6,6.138,6,12.275,6,6.142-6,12.283-6,6.142,6,12.283,6" fill="none" stroke="#f2f2f2" stroke-linecap="round" stroke-linejoin="round" stroke-width="0.3"/>
    </g>
    <g id="Group_13" data-name="Group 13">
      <path id="Path_16" data-name="Path 16" d="M739.082,138.561c6.136,0,6.136,6,12.272,6s6.134-6,12.268-6,6.136,6,12.272,6,6.137-6,12.274-6,6.136,6,12.272,6,6.136-6,12.273-6,6.136,6,12.273,6,6.138-6,12.276-6,6.137,6,12.273,6,6.138-6,12.275-6,6.138,6,12.275,6,6.136-6,12.272-6,6.137,6,12.274,6,6.139-6,12.278-6,6.138,6,12.275,6,6.142-6,12.283-6,6.142,6,12.283,6" fill="none" stroke="#f2f2f2" stroke-linecap="round" stroke-linejoin="round" stroke-width="0.3"/>
    </g>
    <g id="Group_14" data-name="Group 14">
      <path id="Path_17" data-name="Path 17" d="M739.082,154.287c6.136,0,6.136,6,12.272,6s6.134-6,12.268-6,6.136,6,12.272,6,6.137-6,12.274-6,6.136,6,12.272,6,6.136-6,12.273-6,6.136,6,12.273,6,6.138-6,12.276-6,6.137,6,12.273,6,6.138-6,12.275-6,6.138,6,12.275,6,6.136-6,12.272-6,6.137,6,12.274,6,6.139-6,12.278-6,6.138,6,12.275,6,6.142-6,12.283-6,6.142,6,12.283,6" fill="none" stroke="#f2f2f2" stroke-linecap="round" stroke-linejoin="round" stroke-width="0.3"/>
    </g>
  </g>
</svg>
